<?xml version="1.0" encoding="UTF-8"?>
<svg xmlns="http://www.w3.org/2000/svg" viewBox="0 0 19.5 20.73">
  <defs>
    <style>
      .chartBold {
        fill: CurrentColor;
      }
    </style>
  </defs>
  <g>
    <path class="chartBold" d="M18.75,20.73H.75c-.41,0-.75-.34-.75-.75s.34-.75.75-.75h18c.41,0,.75.34.75.75s-.34.75-.75.75Z"/>
    <path class="chartBold" d="M3.35,6.36h-1.6c-.55,0-1,.45-1,1v8.62c0,.55.45,1,1,1h1.6c.55,0,1-.45,1-1V7.36c0-.56-.45-1-1-1Z"/>
    <path class="chartBold" d="M10.55,0h-1.6c-.55,0-1,.55-1,1.23v14.52c0,.68.45,1.23,1,1.23h1.6c.55,0,1-.55,1-1.23V1.23c0-.68-.45-1.23-1-1.23Z"/>
    <path class="chartBold" d="M17.75,2.51h-1.6c-.55,0-1,.38-1,.85v12.77c0,.47.45.85,1,.85h1.6c.55,0,1-.38,1-.85V3.36c0-.47-.45-.85-1-.85Z"/>
  </g>
</svg>