<svg id="Layer_2" data-name="Layer 2" viewBox="0 0 129 94.83">

  <defs>

    <style>


 @keyframes float {

                0% {

                    transform: translate(0, 0);

                    opacity: 1;

                    }

                    100% {

                        transform: translate(0, -10px);

                        opacity: 0;

                        }

                        }

                        .animate-float {

                            animation: float 4s ease-out infinite;

                            }



 #lights { animation-delay: -240ms; }

                            #lights-1 { animation-delay: -480ms; }

                             #lights-2 { animation-delay: -720ms; }

                             #lights-3 { animation-delay: -960ms; }

                            #lights-4 { animation-delay: -1200ms; }

                            .animate-float:nth-child(6) { animation-delay: -1440ms; }



      .hide {

      fill: hsl(123, 100%, 40%);

}



#zipper {

fill: #000;

}

#bag-stroke {

fill: hsl(123, 100%, 40%);

       stroke: #000;

        stroke-linecap: round;

        stroke-linejoin: round;

      }



.animate-zip, .animate-open-zip, .animate-top-zip {

  animation-duration: 5s;

  animation-iteration-count: forwards;

  animation-timing-function: ease-in-out;

  animation-delay: 2s; 



}



/* 1. THE SLIDE (Fast return) */

.animate-zip {

  animation-name: slideZip;


}



@keyframes slideZip {

  0% { cx: 55.8; cy: 78.18; }

  15%, 75% { cx: 69.8; cy: 78.18; } /* Reaches end fast, stays through pause */

  85%, 100% { cx: 55.8; cy: 78.18; } /* Returns in 1s (75% to 85%), then waits */

}



/* 2. THE HANDLE POP */

.animate-open-zip {

  animation-name: expandEllipse;


}



@keyframes expandEllipse {

  0%, 15% { 

    cx: 63.11; cy: 76.41; rx: 6.54; ry: 0.08; 

  }

  25%, 65% { /* Open state during the 4s pause */

    cx: 63.08; cy: 76.9; rx: 6.56; ry: 2.59; 

  }

  75%, 100% { 

    cx: 63.11; cy: 76.41; rx: 6.54; ry: 0.08; 

  }

}



/* 3. THE TOP PATH (Morph) */

.animate-top-zip {

  animation-name: morphTop;

}



@keyframes morphTop {

  0%, 15% { 

    d: path("M53.77,59.87c1.82-2.95,5.35-4.83,9.22-4.9,5.99-.1,9.17,4.22,9.31,4.41"); 

  }

  25%, 65% { 

    d: path("M53.77,59.87c1.82-1.64,5.35-2.68,9.22-2.71,5.99-.06,9.17,2.34,9.31,2.45"); 

  }

  75%, 100% { 

    d: path("M53.77,59.87c1.82-2.95,5.35-4.83,9.22-4.9,5.99-.1,9.17,4.22,9.31,4.41"); 

  }

}   

.arch-stay-8316 { 

    offset-path: path("M 33.36,41.79 Q 47.77597700940359,27.056598915560887 62.19195401880718,64.26047054329835");

 opacity: 0;

fill:orange;

    animation: arch-stay-8316-logic 8s ease-in-out forwards 1.6s;

}

@keyframes arch-stay-8316-logic {

    0% { opacity: 0; offset-distance: 0%; }

    12.5% { opacity: 1; offset-distance: 0%; }

    25% { opacity: 1; offset-distance: 0%; }

    37.5% { opacity: 1; offset-distance: 100%; }

    95% { opacity: 1; offset-distance: 100%; }

    100% { opacity: 0; offset-distance: 100%; }

}

.arch-stay-7695 {

    offset-path: path("M 0,0 Q -15.917641281216465,-19.296865037221526 -31.83528256243293,7.057822077520505");

 opacity: 0;

fill:purple; 

   animation: arch-stay-7695-logic 8s ease-in-out forwards 1.4s;

}

@keyframes arch-stay-7695-logic {

    0% { opacity: 0; offset-distance: 0%; }

    12.5% { opacity: 1; offset-distance: 0%; }

    25% { opacity: 1; offset-distance: 0%; }

    37.5% { opacity: 1; offset-distance: 100%; }

    95% { opacity: 1; offset-distance: 100%; }

    100% { opacity: 0; offset-distance: 100%; }

}

.arch-stay-9257 {

    offset-path: path("M 15.59,80.19 Q 38.56546335873697,47.56766928695973 66.540926717473944,83.28900143691227");

    opacity: 0;

fill:green;

    animation: arch-stay-9257-logic 8s ease-in-out forwards 1.8s;

}

@keyframes arch-stay-9257-logic {

    0% { opacity: 0; offset-distance: 0%; }

    12.5% { opacity: 1; offset-distance: 0%; }

    25% { opacity: 1; offset-distance: 0%; }

    37.5% { opacity: 1; offset-distance: 100%; }

    95% { opacity: 1; offset-distance: 100%; }

    100% { opacity: 0; offset-distance: 100%; }

}

.arch-stay-1286 {
    offset-path: path("M 101.46,82 Q 82.61411338874842,53.69342428480496 58.76822677749686,88.3960057476491");

    opacity: 0;

fill:yellow;

    animation: arch-stay-1286-logic 8s ease-in-out forwards 2s;

}

@keyframes arch-stay-1286-logic {

    0% { opacity: 0; offset-distance: 0%; }

    12.5% { opacity: 1; offset-distance: 0%; }

    25% { opacity: 1; offset-distance: 0%; }

    37.5% { opacity: 1; offset-distance: 100%; }

    95% { opacity: 1; offset-distance: 100%; }

    100% { opacity: 0; offset-distance: 100%; }

}

.arch-stay-1456 {

    offset-path: path("M 112.5,71.1 Q 88.02287236945016,40.36151367120458 63.54574473890031,83.05882064060823");

    opacity: 0;

fill:orange;

    animation: arch-stay-1456-logic 8s ease-in-out forwards 2.3s;

}

@keyframes arch-stay-1456-logic {

    0% { opacity: 0; offset-distance: 0%; }

    12.5% { opacity: 1; offset-distance: 0%; }

    25% { opacity: 1; offset-distance: 0%; }

    37.5% { opacity: 1; offset-distance: 100%; }

    95% { opacity: 1; offset-distance: 100%; }

    100% { opacity: 0; offset-distance: 100%; }

}

.arch-stay-5559 {

    offset-path: path("M 0,0 Q 29.582786154713617,-36.2543590557273 59.16557230942723,12.013314174502995");

    opacity: 0;

fill:pink;

    animation: arch-stay-5559-logic 8s ease-in-out forwards 1.2s;

}

@keyframes arch-stay-5559-logic {

    0% { opacity: 0; offset-distance: 0%; }

    12.5% { opacity: 1; offset-distance: 0%; }

    25% { opacity: 1; offset-distance: 0%; }

    37.5% { opacity: 1; offset-distance: 100%; }

    95% { opacity: 1; offset-distance: 100%; }

    100% { opacity: 0; offset-distance: 100%; }

}

.arch-stay-1460 {

    offset-path: path("M 4.36,35.79 Q 35.144117572163914,2.8546203591848993 65.92823514432783,65.82328543625748");

    opacity: 0;

fill:red;

    animation: arch-stay-1460-logic 8s ease-in-out forwards 1.9s

}

@keyframes arch-stay-1460-logic {

    0% { opacity: 0; offset-distance: 0%; }

    12.5% { opacity: 1; offset-distance: 0%; }

    25% { opacity: 1; offset-distance: 0%; }

    37.5% { opacity: 1; offset-distance: 100%; }

    95% { opacity: 1; offset-distance: 100%; }

    100% { opacity: 0; offset-distance: 100%; }

}

.arch-stay-6199 {

    offset-path: path("M 105,27.6 Q 84.87769875770749,7.524535492173229 64.75539751541497,87.45858236781316");

    opacity: 0;

fill:b;rown

    animation: arch-stay-6199-logic 8s ease-in-out forwards 1.2s;

}

@keyframes arch-stay-6199-logic {

    0% { opacity: 0; offset-distance: 0%; }

    12.5% { opacity: 1; offset-distance: 0%; }

    25% { opacity: 1; offset-distance: 0%; }

    37.5% { opacity: 1; offset-distance: 100%; }

    95% { opacity: 1; offset-distance: 100%; }

    100% { opacity: 0; offset-distance: 100%; }

}

.arch-stay-9611 {

    offset-path: path("M 48.86,26.29 Q 57.26931992215209,16.18112934638956 65.67863984430419,64.432272504047");

    opacity: 0;

fill:yellow;

    animation: arch-stay-9611-logic 8s ease-in-out forwards 1.4s;

}

@keyframes arch-stay-9611-logic {

    0% { opacity: 0; offset-distance: 0%; }

    12.5% { opacity: 1; offset-distance: 0%; }

    25% { opacity: 1; offset-distance: 0%; }

    37.5% { opacity: 1; offset-distance: 100%; }

    95% { opacity: 1; offset-distance: 100%; }

    100% { opacity: 0; offset-distance: 100%; }

}

.arch-stay-9661 {

    offset-path: path("M 127.5,29.1 Q 95.96505029192964,-4.549035218239318 64.43010058385929,60.334616853707786");

    opacity: 0;

fill:cyan;

    animation: arch-stay-9661-logic 8s ease-in-out forwards 1s;

}

@keyframes arch-stay-9661-logic {

    0% { opacity: 0; offset-distance: 0%; }

    12.5% { opacity: 1; offset-distance: 0%; }

    25% { opacity: 1; offset-distance: 0%; }

    37.5% { opacity: 1; offset-distance: 100%; }

    95% { opacity: 1; offset-distance: 100%; }

    100% { opacity: 0; offset-distance: 100%; }

}

.arch-stay-9872 {

    offset-path: path("M 75.27,11.84 Q 69.71384219429237,1.9925555150848666 64.15768438858473,64.289262445661066");

    opacity: 0;

fill:red;

    animation: arch-stay-9872-logic 8s ease-in-out forwards 1s;

}

@keyframes arch-stay-9872-logic {

    0% { opacity: 0; offset-distance: 0%; }

    12.5% { opacity: 1; offset-distance: 0%; }

    25% { opacity: 1; offset-distance: 0%; }

    37.5% { opacity: 1; offset-distance: 100%; }

    95% { opacity: 1; offset-distance: 100%; }

    100% { opacity: 0; offset-distance: 100%; }

}

.arch-stay-6107 {

    offset-path: path("M 15.72,3.79 Q 37.79446479564925,-18.53289688701983 59.868929591298496,66.40940013459685");

    opacity: 0;

fill:blue;

    animation: arch-stay-6107-logic 8s ease-in-out forwards 1.9s;

}

@keyframes arch-stay-6107-logic {

    0% { opacity: 0; offset-distance: 0%; }

    12.5% { opacity: 1; offset-distance: 0%; }

    25% { opacity: 1; offset-distance: 0%; }

    37.5% { opacity: 1; offset-distance: 100%; }

    95% { opacity: 1; offset-distance: 100%; }

    100% { opacity: 0; offset-distance: 100%; }

}

.arch-stay-1683 {

    offset-path: path("M 93.5,5.1 Q 77.95777478673676,-11.170233380069305 62.41554957347351,65.70608596009385");

    opacity: 0;

fill:blue;

    animation: arch-stay-1683-logic 8s ease-in-out forwards 2.4s;

}

@keyframes arch-stay-1683-logic {

    0% { opacity: 0; offset-distance: 0%; }

    12.5% { opacity: 1; offset-distance: 0%; }

    25% { opacity: 1; offset-distance: 0%; }

    37.5% { opacity: 1; offset-distance: 100%; }

    95% { opacity: 1; offset-distance: 100%; }

    100% { opacity: 0; offset-distance: 100%; }

}















.arch-stay-8832 {

    offset-path: path("M 0,0 Q 8.409319922152093,-12.778662581623554 16.818639844304187,55.11107877553247");

    opacity: 0;

    animation: arch-stay-8832-logic 8s ease-in-out infinite;

}

@keyframes arch-stay-8832-logic {

    0% { opacity: 0; offset-distance: 0%; }

    12.5% { opacity: 1; offset-distance: 0%; }

    25% { opacity: 1; offset-distance: 0%; }

    37.5% { opacity: 1; offset-distance: 100%; }

    95% { opacity: 1; offset-distance: 100%; }

    100% { opacity: 0; offset-distance: 100%; }

}



}

.arch-stay-52 {

    offset-path: path("M 0,0 Q 39.869186416631806,-41.65484292551618 79.73837283326361,44.59942887284236");

    opacity: 0;

    animation: arch-stay-52-logic 8s ease-in-out infinite;

}

@keyframes arch-stay-52-logic {

    0% { opacity: 0; offset-distance: 0%; }

    12.5% { opacity: 1; offset-distance: 0%; }

    25% { opacity: 1; offset-distance: 0%; }

    37.5% { opacity: 1; offset-distance: 100%; }

    95% { opacity: 1; offset-distance: 100%; }

    100% { opacity: 0; offset-distance: 100%; }



}















   .cls-1 {

        stroke: #2997a5;

order:5

      }



      .cls-1, .cls-2, .cls-3, .cls-4, .cls-5, .cls-6, .cls-7 {

        fill: none;

      }



      .cls-2 {

        stroke: #29a847;

      }



      .cls-8 {

        fill: #af3ec6;

      }



      .cls-3 {

        stroke: #bf72f3;

      }


      .cls-9 {

        fill: #ff2939;

      }



#bottom-zipper-1 {
fill:hsl(123, 100%, 25%);
}

      .cls-10, .cls-100, .cls-1000, .cls-5, .cls-6 {

        stroke: #000;

        stroke-linecap: round;

        stroke-linejoin: round;

      }



      .cls-10, .cls-100, .cls-1000, .cls-6 {

        stroke-width: 1.5px;
 
      }
.cls-1000 {
fill:none;
st
}
.cls-100 {
fill:none
}

.cls-10 {
fill:hsl(123, 100%, 30%);
}

 #topZipper {

}




      .cls-11 {

        fill: #ffae00;

      }



      .cls-4 {

        stroke: #ff6b6b;

      }



      .cls-12 {

        fill: #2c82ff;

      }



      .cls-5 {

        stroke-width: 4px;

      }



      .cls-13 {

        fill: #bf72f3;

      }



      .cls-7 {

        stroke: #ffae00;

      }



      .cls-14 {

        fill: #29a847;

      }



      .cls-15 {

        fill: #242424;

      }

    

</style>

  </defs>

 































































































































































<rect id="selection-overlay"/>
<path id="lights-4" class="cls-15 animate-float" d="M63.92,34.14h0c.55,0,1,.45,1,1v7c0,.55-.45,1-1,1h0c-.55,0-1-.45-1-1v-7c0-.55.45-1,1-1Z"/>
<rect id="lights-3" class="cls-15 animate-float" x="55.52" y="37.29" width="2" height="6" rx="1" ry="1"/>
<path id="lights-2" class="cls-15 animate-float" d="M49.83,40.57h0c.5-.23,1.1-.02,1.33.48l.42.91c.23.5.02,1.1-.48,1.33h0c-.5.23-1.1.02-1.33-.48l-.42-.91c-.23-.5-.02-1.1.48-1.33Z"/>
<path id="lights-1" class="cls-15 animate-float" d="M79.1,40.57h0c-.5-.23-1.1-.02-1.33.48l-.42.91c-.23.5-.02,1.1.48,1.33h0c.5.23,1.1.02,1.33-.48l.42-.91c.23-.5.02-1.1-.48-1.33Z"/>
<path id="lights" class="cls-15 animate-float" d="M72.15,37.35h0c-.54-.11-1.07.23-1.19.77l-.83,3.91c-.11.54.23,1.07.77,1.19h0c.54.11,1.07-.23,1.19-.77l.83-3.91c.11-.54-.23-1.07-.77-1.19Z"/>
<polygon id="plus" class="arch-stay-5559" points="1.68 51 1.68 49.38 2.77 49.38 2.77 51 4.41 51 4.41 52.08 2.77 52.08 2.77 53.73 1.68 53.73 1.68 52.08 0 52.08 0 51 1.68 51" x="0" y="0"/>
<polygon id="plus-1" class="arch-stay-7182" points="122.29 48.83 122.29 46.6 123.77 46.6 123.77 48.83 126 48.83 126 50.31 123.77 50.31 123.77 52.6 122.29 52.6 122.29 50.31 120 50.31 120 48.83 122.29 48.83" x="0" y="0"/>
<polygon id="plus-2" class="arch-stay-2995" points="111.57 3.04 111.57 1.97 112.29 1.97 112.29 3.04 113.37 3.04 113.37 3.76 112.29 3.76 112.29 4.87 111.57 4.87 111.57 3.76 110.47 3.76 110.47 3.04 111.57 3.04" x="0" y="0"/>
<path id="bubble-rounded" class="arch-stay-4633" d="M24.36,15.79c1.66,0,3,1.34,3,3,0-1.66,1.34-3,3-3-1.66,0-3-1.34-3-3,0,1.66-1.34,3-3,3Z" x="0" y="0"/>
<path id="bubble-rounded-2" data-name="bubble-rounded" class="arch-stay-3746" d="M85.6,27.05c1.66,0,3,1.34,3,3,0-1.66,1.34-3,3-3-1.66,0-3-1.34-3-3,0,1.66-1.34,3-3,3Z" x="0" y="0"/>
<polygon id="diamond" class="arch-stay-7695" points="95 52.6 98 55.6 95 58.6 92 55.6 95 52.6" x="0" y="0"/>
<polygon id="diamond-2" data-name="diamond" class="arch-stay-8832" points="48.26 .71 51.26 3.71 48.26 6.71 45.26 3.71 48.26 .71" x="0" y="0"/>
<path class="cls-10" d="M47.36,73.05h3.78v14.79h-2.05c-1.94,0-3.52-1.58-3.52-3.52v-9.48c0-.99.8-1.79,1.79-1.79Z"/>
<path class="cls-10" d="M79.09,73.05h2.05v14.79h-3.78c-.99,0-1.79-.8-1.79-1.79v-9.48c0-1.94,1.58-3.52,3.52-3.52Z" transform="translate(156.71 160.9) rotate(-180)"/>
<circle class="cls-6" cx="63.35" cy="55.42" r="6.37"/>
<path id="bag" class="cls-10" d="M63.31,51.19h0c-7.83,0-12.74,6.35-12.74,14.17l-1.43,21.67c0,3.89,3.15,7.05,7.05,7.05h14.26c3.89,0,7.05-3.15,7.05-7.05l-1.43-21.67c0-7.83-4.92-14.17-12.74-14.17Z"/>
<path id="bag-stroke" d="M63.31,51.19h0c-7.83,0-12.74,6.35-12.74,14.17l-1.43,21.67c0,3.89,3.15,7.05,7.05,7.05h14.26c3.89,0,7.05-3.15,7.05-7.05l-1.43-21.67c0-7.83-4.92-14.17-12.74-14.17Z"/>
<path class="cls-1000" d="M53.77,59.87c1.82-2.95,5.35-4.83,9.22-4.9,5.99-.1,9.17,4.22,9.31,4.41"/>
<circle id="oval-2" class="arch-stay-9257" cx="0" cy="0" r="1.5"/>
<ellipse id="bottom-zipper-1" class="cls-6 animate-open-zip" cx="63.11" cy="76.41" rx="6.54" ry=".08"/>
<circle id="oval-8" class="arch-stay-1460" cx="0" cy="0" r="3"/>
<circle id="oval" class="arch-stay-6107" cx="0" cy="0" r="1.5"/>
<circle id="oval-7" class="arch-stay-8316" cx="0" cy="0" r="3"/>
<circle id="oval-3" class="arch-stay-1683" cx="0" cy="0" r="1.5"/>
<circle id="oval-6" cx="0" cy="0" r="1.5" class="arch-stay-9611"/>
<circle id="oval-4" cx="0" cy="0" r="1.5" class="arch-stay-9661"/>
<circle id="oval-1" class="arch-stay-9872" cx="0" cy="0" r="1.5"/>
<path id="top-hide" =""="" class="hide" d="M52.14,61.18l2.16-1.07,4.53-2.65,9.66.46,3.36,1.92,2.3.84.92,5.37-.32,2.19s-23.35,5.52-23.11-.5l.25-6.02.25-.54Z"/>
<circle id="oval-10" class="arch-stay-6199" cx="0" cy="0" r="3"/>
<circle id="oval-5" class="arch-stay-1456" cx="0" cy="0" r="1.5"/>
<circle id="oval-1-2" data-name="oval-1" class="arch-stay-1286" cx="0" cy="0" r="1.5"/>
<path id="bottom-hide" class="hide" d="M51.29,77.58l5.59-.66,2.69,2,5.1.41s3.96-.48,4.32-1.38l.35-.9,6.05-.28.99,10.37-1.98,3.52-4.6,1.87-14.72-.17s-4.32-.93-4.35-3.18l-.04-2.25.6-9.36Z"/>
<ellipse id="bottom-zipper" class="cls-6 animate-open-zip" cx="63.11" cy="76.41" rx="6.54" ry=".08"/>
<line class="cls-5" x1="54.74" y1="68.06" x2="71.97" y2="68.06"/>
<path id="topZipper" class="cls-100 animate-top-zip" d="M53.77,59.87c1.82-2.95,5.35-4.83,9.22-4.9,5.99-.1,9.17,4.22,9.31,4.41"/>
<ellipse id="zipper" class="animate-zip" cx="55.8" cy="78.18" rx=".58" ry="1.73"/>
<line id="line-1" class="cls-5" x1="54.74" y1="83.62" x2="71.97" y2="83.62"/>
<rect id="selection-overlay"/>
</svg>