<?xml version="1.0" encoding="UTF-8"?>
<svg xmlns="http://www.w3.org/2000/svg" viewBox="0 0 574.04 574">
  <g fill="CurrentColor">
    <path d="M452.54,42.66l9.07,8.31c8.99-6.82,23.69-28.42,34.99-29,10.69-.55,29.62,10.84,37.12,18.4s19.42,27.57,18.26,37.99-23.64,24.56-28.83,33.92l11.49,12.69c3.75.57,8.88-9.13,13.14-9.93l2.23.34,23.51,23.53.51,2.38c-.07,1.37-.87,2.44-1.57,3.54-1.82,2.84-21.92,22.93-24.91,25.01-2.16,1.51-3.96,2.66-6.77,1.83-1.6-.47-23.1-21.91-23.54-23.52-1.77-6.4,10.88-10.83,8.4-15.27l-12.04-11.95c-13.31,12.86-19.29,29.76-17.35,48.29.55,5.24,5.9,16.3,4.36,19.57-72.05,74.25-143.55,149.45-218.65,220.73-27.53,26.13-58.08,55.73-87.93,78.83-1.94,1.5-8.25,6.67-9.99,7-4.57.88-8.64-1.6-12.96-1.97-20.89-1.78-35.68,6.67-49.4,21.46l12.47,11.53c1.4,0,7.8-7.59,10.15-8.91,1.74-.98,2.13-1.17,4.03-.39,1.6.65,23.67,22.33,24.12,23.97.67,2.42-.57,3.94-1.86,5.77-2.69,3.83-20.57,21.62-24.46,24.46-1.46,1.07-4.69,3.43-6.46,2.55l-23.48-23.54c-3.9-4.52,8.87-12.49,8.45-14.42l-12.6-12.45c-11.65,7.11-24.92,28.58-39.71,26.81-8.07-.97-27.04-19.36-33.06-25.87-7.49-8.09-17.25-17.58-15.22-29.23,1.6-9.23,26.7-31.05,26.7-33.19l-12.6-12.41c-2.41-.42-9.57,11.59-14.32,8.43L.3,434.42c-1.1-2.43,1.07-5.42,2.54-7.45,3.08-4.26,18.07-18.97,22.5-22.44,2.35-1.84,4.52-3.81,7.74-2.86,3.91,1.16,18.34,19.59,23.18,22.82,2.69,5.79-6.25,11.62-9.46,15.46,2.67,1.82,10.84,13.07,13.83,11.35,3.69-5.78,8.9-9.88,12.53-15.92,5.3-8.8,8.15-19.05,7.6-29.42-.62-11.65-6.08-11.67,1.99-22.91,18.5-25.76,47.31-54.89,69.37-78.42,74.86-79.87,154.38-155.31,232.84-231.54,3.42-1.91,10.03,2.43,14.28,3.41,20.02,4.65,37.5-1.85,52.77-14.67l-.04-2.67-12.25-12.14c-3.88,3.81-7.61,8.34-13,9.95l-24.72-24.25c-.61-.92-.61-1.68-.32-2.72,1.04-3.68,25.89-28.86,29.31-29.72,1.27-.32,2.23-.42,3.52-.04,1.62.48,23.57,22.18,24.17,23.76,1.51,4.01-7.18,10.79-9.41,13.65l3.28,5Z"/>
  </g>
</svg>