<?xml version="1.0" encoding="UTF-8"?>
<svg xmlns="http://www.w3.org/2000/svg" viewBox="0 0 19.99 20">
  <defs>
    <style>
      .objectsBold {
        fill: CurrentColor;
      }
    </style>
  </defs>
  <g>
    <path class="objectsBold" d="M16.67,11.38l-13.33.05c-2.19,0-3.34,1.15-3.34,3.33v1.9c0,2.19,1.15,3.34,3.33,3.34l13.33-.05c2.18,0,3.33-1.15,3.33-3.33v-1.9c0-2.19-1.14-3.34-3.32-3.34Z"/>
    <path class="objectsBold" d="M4.29,8.58c2.37,0,4.29-1.92,4.29-4.29S6.66,0,4.29,0,0,1.92,0,4.29s1.92,4.29,4.29,4.29Z"/>
    <path class="objectsBold" d="M19.85,7.17l-3.47-6.64c-.17-.33-.51-.54-.89-.54h-.02c-.38,0-.72.23-.88.57l-3.17,6.64c-.15.31-.13.67.06.96.18.29.5.47.85.47h6.64c.35,0,.67-.18.86-.48.18-.3.19-.67.03-.98Z"/>
  </g>
</svg>