<?xml version="1.0" encoding="UTF-8"?>
<svg id="Layer_2" data-name="Layer 2" xmlns="http://www.w3.org/2000/svg" viewBox="0 0 510.31 204.77">
  <defs>
    <style>
      .oferSesh-1 {
        fill: CurrentColor;
      }

      .oferSesh-1, .oferSesh-2, .oferSesh-3 {
        stroke-width: 0px;
      }

      .oferSesh-2 {
        fill: CurrentColor;
      }

      .oferSesh-3 {
        fill: none;
      }
    </style>
  </defs>
  <g id="Layer_1-2" data-name="Layer 1">
    <g>
      <path class="oferSesh-1" d="M376.21,176.91c2.73-2.37,5.76-2.29,8.5-.55,2.8,1.78,3.54,5.53,1.84,8.4-1.94,3.29-5.52,4.49-8.72,2.93-3.11-1.52-4.52-5.1-3.19-8.26.33-.78.82-1.5,1.23-2.25.12-.09.23-.18.35-.27ZM376.02,181.96c0,2.65,2.05,4.79,4.54,4.74,2.65-.06,4.81-2.32,4.82-5.04.01-2.57-2.04-4.96-4.22-4.93-2.83.04-5.14,2.39-5.14,5.23Z"/>
      <path class="oferSesh-1" d="M360.04,67.26c-.77.26-1.53.71-2.3.73-5.03.15-10.06.28-15.1.27-8.44-.02-16.88-.2-25.32-.2-2.1,0-4.2.4-6.31.62-.08.16-.16.32-.24.48.6.85,1.23,1.68,1.77,2.56.22.36.25.84.37,1.26-.46-.04-1.02.08-1.36-.14-.74-.49-1.47-1.08-2.03-1.76-1.72-2.08-.93-4.18,1.77-4.66,1.78-.31,3.6-.57,5.4-.56,12.57.03,25.13.14,37.7.23,1.49.01,2.99.09,4.48.19.37.02.72.25,1.08.39.02.19.05.39.07.58Z"/>
      <path class="oferSesh-1" d="M367.35,106.81c.01,4.5-3.7,8.25-8.17,8.27-4.64.02-8.42-3.71-8.44-8.32-.02-4.43,3.66-8.3,8.09-8.15,4.92.16,8.39,3.31,8.52,8.19ZM359.53,100.71c-3.49-.02-6.3,2.68-6.35,6.1-.05,3.21,2.62,5.95,5.8,5.97,3.36.02,6.1-2.65,6.13-5.97.03-3.11-2.69-6.08-5.58-6.09Z"/>
      <path class="oferSesh-1" d="M346.63,41.41c-.85.21-1.34.44-1.83.44-10.38.1-20.77.18-31.15.24-.68,0-1.37-.08-2.02-.25-.36-.1-.64-.47-.95-.72.34-.22.66-.57,1.03-.63.89-.15,1.8-.23,2.71-.24,9.53-.12,19.05-.22,28.58-.3,1.22-.01,2.43.11,3.64,1.46Z"/>
      <path class="oferSesh-1" d="M287.23,42.47c.01-2.68,1.4-4.12,3.97-4.11,2.72.02,4.67,1.78,4.69,4.24.02,2.29-1.98,3.89-4.82,3.87-2.59-.01-3.85-1.33-3.84-4.01ZM289.54,42.55c-.08,1.01.39,1.67,1.61,1.68,1.46.01,2.42-.61,2.44-1.58.02-1.1-1.06-2.4-2-2.4-1.31,0-2.04.76-2.05,2.29Z"/>
      <path class="oferSesh-1" d="M218.81,188.37c-3.55-.04-6.45-2.98-6.44-6.55.01-3.57,3.08-6.87,6.48-6.71,4.11.2,6.65,2.3,6.8,6.41.14,3.69-3.18,6.88-6.84,6.84ZM214.24,181.89c-.01,2.68,1.95,4.79,4.47,4.81,2.61.02,4.85-2.26,4.89-4.97.04-2.59-1.95-4.98-4.15-5-2.8-.03-5.19,2.34-5.21,5.16Z"/>
      <path class="oferSesh-1" d="M325.4,182.11c0-3.57,3.06-6.88,6.46-6.73,4.09.18,6.65,2.26,6.82,6.39.15,3.69-3.16,6.89-6.82,6.86-3.55-.02-6.46-2.96-6.46-6.53ZM327.27,182.22c0,2.66,2.04,4.79,4.53,4.75,2.64-.05,4.81-2.31,4.83-5.03.01-2.57-2.03-4.97-4.22-4.94-2.83.04-5.15,2.39-5.14,5.22Z"/>
      <path class="oferSesh-1" d="M261.94,181.87c-.01-3.58,3.02-6.89,6.43-6.75,4.05.16,6.65,2.19,6.85,6.36.18,3.67-3.14,6.9-6.8,6.89-3.55,0-6.48-2.94-6.49-6.5ZM273.17,181.61c0-2.52-1.98-4.85-4.13-4.89-2.84-.05-5.25,2.38-5.23,5.27.01,2.59,1.97,4.66,4.45,4.7,2.66.04,4.92-2.3,4.91-5.08Z"/>
      <g>
        <path class="oferSesh-1" d="M160.43,171.61c.13-1.16.17-2.2.36-3.21.93-4.91,4.08-8.04,8.36-10.23,3.54-1.81,7.47-2.1,11.26-2.94,4.12-.91,7.83-2.54,10.53-5.95.05-.06.16-.06.58-.2.12.89.36,1.73.33,2.56-.14,4.61-1.12,9.07-2.46,13.46-1.72,5.64-4.91,10.18-10.1,13.16-3.83,2.2-7.94,3.27-12.38,2.79-.22-.02-.45,0-1.1,0,1.18,1.28,2.08,2.45,3.17,3.39,1.11.95,1.27,1.97.89,3.27-.85,2.96-2.74,4.7-5.39,4.74-.56,0-1.3-.23-1.67-.63-1.99-2.17-3.96-4.37-5.79-6.67-.61-.77-1.27-1.11-2.14-1.43-1.68-.62-3.41-1.27-4.9-2.24-2.37-1.54-2.1-3.79.44-5.02.36-.17.73-.33,1.07-.48-1.11-3.03-2.19-6.01-3.27-8.97-1.66-.28-3.43-.41-5.11-.89-7.25-2.07-11.78-7-14.28-13.95-1.85-5.14-1.32-10.28.23-15.37,1.53-5.02,3.18-9.99,4.79-14.99.08-.25.22-.48.51-1.07,6.89,5.52,10.46,12.67,12.1,21.07,1.47-10.12,4.67-19.61,9.56-28.16-2.48-4.03-5.2-7.75-7.18-11.83-5.31-10.89-4.67-21.44,2.99-31.12,2.84-3.59,6.07-6.85,9.13-10.26.32-.36.66-.71,1.02-1.1-6.72-5.42-9.73-12.98-12.45-20.72-.34-.98-.52-2.02-.9-2.98-.33-.81-.73-1.65-1.29-2.31-3.24-3.78-5.25-8-5.07-13.11.28-7.83,7.48-15.33,15.29-15.58,1.57-.05,2.61-.49,3.77-1.4,2.08-1.64,4.62-2.29,7.19-2.64,5.45-.75,10.78-.37,15.8,2.09,5.14,2.52,7.78,6.93,7.41,12.21-.03.36-.02.76-.16,1.07-1.1,2.31-.57,4.58-.18,6.97.87,5.32,1.43,10.68,2.12,16.03.03.21.08.42.13.65,1.21-2.24,2.24-4.51,3.6-6.57,4.08-6.15,9.75-9.45,17.26-8.59,2.27.26,4.44,1.44,6.66,2.17.43.14.98.4,1.32.26,5.98-2.59,12-2.39,18.07-.42,8.49,2.75,13.81,8.88,17.59,16.6,1.69,3.45,2.82,7.08,2.79,10.98,0,.9-.03,1.87-.38,2.67-.4.94-.27,1.45.42,2.2,7,7.65,6.2,18.42-1.84,25.49-2.68,2.35-5.68,4.19-9.2,5.43.72.4,1.33.66,1.85,1.04,1.7,1.24,2.32,1.83.29,3.69-1.61,1.48-3.73,2.58-5.8,3.37-7.2,2.73-14.52,2.09-21.81.23-4.14-1.06-8.12-2.54-11.85-4.8.6,2.07,1.3,4.02,1.71,6.02.77,3.77.07,7.49-.59,11.21-.4,2.22-.66,4.47-1.03,6.7-.08.48-.3,1.21-.62,1.31-.37.12-1.08-.19-1.37-.54-1.34-1.59-2.68-3.19-3.84-4.91-1.97-2.93-3.85-5.93-5.7-8.95-2.67-4.37-4.18-9.04-3.37-14.32-2.88.74-5.54.54-8.2-.26-.29-.09-.72-.01-.98.15-12.8,7.86-21.91,18.84-27.54,32.73-.05.11-.02.25-.04.6,3.25-3.76,7.26-5.47,12.02-5.24,2.26.11,4.5.54,6.74.86,3.85.56,7.69,1.48,11.56,1.61,3.4.12,6.82-.63,10.24-1.01.41-.05.82-.14,1.42.08-.49.67-.97,1.35-1.48,2-3.91,5-7.72,10.14-12.9,13.93-6.39,4.68-13.43,6.34-20.83,2.84-3.08-1.46-5.65-4.02-8.41-6.14-.36-.28-.5-.85-.74-1.28-.23.12-.45.24-.68.35-.67,3.52-1.34,7.03-2.02,10.66,1.17-.24,2.04-.5,2.92-.57,2.3-.19,3.47,1.39,2.47,3.47-.62,1.29-1.53,2.46-2.36,3.64-.5.7-1.14,1.3-1.67,1.98-1.05,1.36-1.61,2.79-1.39,4.63.59,5.03,1.64,9.92,3.46,14.64.21.55.46,1.08.71,1.62.05.11.17.19.37.41ZM159.27,143.69l-.26-.46c-.98.28-1.98.49-2.93.84-1.66.62-2.61,0-2.46-1.73.11-1.26.32-2.52.5-3.77,2.02-13.55,7.39-25.62,16.14-36.15,4.08-4.92,8.77-9.17,14.27-12.48,2.46-1.48,4.96-2.5,7.96-1.92,1.39.26,2.88-.03,4.32-.04.9-.01,1.22-.53,1.4-1.33.48-2.16,1.04-4.31,1.51-6.47.09-.39.04-.91-.15-1.24-1.36-2.33-3.88-2.76-6.14-3.6-.21-.08-.6.16-.84.33-2.75,2.01-4.82,4.46-4.87,8.06-.01,1.15-.54,1.8-1.38,2.43-4.12,3.11-8.43,6.02-12.28,9.44-13.31,11.86-21.83,26.49-24.71,44.2-1.48,9.08-.98,18.09,1.56,26.94.74,2.56,1.77,5.04,2.67,7.56.73,2.04.55,2.43-1.37,3.39-.58.29-1.09.73-1.63,1.1-.02.17-.04.33-.07.5,1.37.7,2.7,1.52,4.13,2.08,2.03.79,3.97,1.52,5.24,3.55,1.1,1.75,2.64,3.22,3.93,4.86.6.76,1.18.75,1.78.13.62-.63,1.23-1.3,1.74-2.02.64-.91.38-1.63-.43-2.45-1.64-1.68-3.25-3.43-4.63-5.33-5.19-7.16-7.56-15.36-8.7-24.02-.38-2.91.57-5.17,2.27-7.36,1.24-1.6,2.29-3.34,3.43-5.02ZM225.57,32.53c.01-.15.03-.29.04-.44-.96-.74-1.9-1.51-2.88-2.22-5.97-4.37-13.92-4.19-19.69.41-2.85,2.28-4.67,5.3-6.04,8.59-4.22,10.18-4.04,20.32.46,30.38,1.03,2.3,2.14,4.57,3.15,6.72,1.33-1.48,2.58-2.84,3.8-4.23.86-.99,1.92-1.89,2.48-3.04,2.7-5.47,3.15-11.02.72-16.81-1.13-2.68-2.01-5.58-2.34-8.46-.76-6.55,3.24-10.88,9.24-11.1,2.74-.1,5.5.45,8.25.6.93.05,1.88-.26,2.82-.4ZM251.79,92.54c-.61-.23-1.05-.45-1.51-.57-2.41-.62-4.79-1.4-7.24-1.79-5.69-.91-10.23-3.67-13.99-7.94-3.21-3.65-6.86-6.73-11.59-8.28-5.67-1.86-10.81-1.46-15.01,3.32-.51.58-.81,1.05-.3,1.75,1.41,1.93,2.65,4.01,4.25,5.75,1.98,2.15,4.09,4.25,6.44,5.98,3.74,2.74,8.15,4.09,12.61,5.17,6.42,1.56,12.86,2.21,19.32.16,2.46-.78,4.87-1.65,7.01-3.57ZM164.82,59.21c-.29.23-.44.32-.55.44-3.35,3.82-6.8,7.55-10.01,11.48-6.8,8.33-8.13,17.6-4.14,27.54,1.23,3.07,2.97,5.93,4.47,8.89.12-.05.23-.1.35-.16,0-.22.02-.44,0-.66-.78-5.93-.27-11.76,1.22-17.53.11-.42-.15-1.01-.4-1.43-1.37-2.32-2.52-4.72-2.45-7.5,0-.38.35-.75.53-1.12.27.29.65.54.8.89.8,1.84,1.54,3.71,2.3,5.56.1,0,.2,0,.3,0,2.08-7.43,4.17-14.85,6.25-22.28.17.02.33.03.5.05.05.49.21,1,.13,1.46-.45,2.63-.94,5.26-1.46,7.87-.38,1.91-.82,3.81-1.15,5.36,1.21-1.07,2.54-2.3,3.92-3.46.32-.27.82-.31,1.24-.46-.07.41-.02.89-.23,1.22-.7,1.1-1.43,2.21-2.27,3.21-2.13,2.54-4.64,4.79-5.09,8.42-.29,2.34-1.01,4.62-1.53,6.93,1.07-.62,1.82-1.42,2.68-2.04.81-.58,1.54-1.69,3.25-.87-2.05,2.15-3.92,4.1-5.77,6.07-.26.27-.6.62-.6.94-.01,3.9.04,7.79.07,11.69.18.02.37.04.55.07,2.98-6.58,6.07-13.12,8.88-19.77.99-2.35,1.67-4.95,1.84-7.49.21-3.13.03-6.35-.5-9.45-.8-4.62-2.05-9.16-3.14-13.87ZM158.25,6.66c-.07-.17-.14-.34-.22-.51-1.86.75-3.8,1.34-5.55,2.29-4.26,2.33-7.04,5.86-7.64,10.76-.7,5.77,2.1,10.13,6.08,13.89,3.2,3.02,7.07,5.04,10.92,7.07,5.53,2.92,10.98,5.91,13.83,11.94,0,.02.08,0,.39.02-.15-1.68.02-3.45-.52-4.97-1.27-3.57-3.27-6.78-5.9-9.53-3.07-3.21-6.28-6.29-9.27-9.58-3.03-3.33-5.08-7.18-4.96-11.87.09-3.41,1.01-6.6,2.83-9.51ZM219.48,45.23c-.64,1.03-1.36,2.01-1.89,3.09-3.17,6.44-3.75,13.24-2.93,20.28.2,1.72.79,2.46,2.53,2.88,5.47,1.35,9.68,4.73,13.45,8.79,1.92,2.06,1.24,2.24,3.83.31,1.89-1.41,3.4-3.11,3.68-5.62.3-2.73-.84-4.92-2.63-6.74-2.28-2.32-4.75-4.47-7.19-6.63-4.93-4.34-8.62-9.31-8.85-16.37ZM189.29,21.24c-5.58,6.43-12.66,9.82-20.89,11.73.4.5,1,.78,1.43,1.23,3.75,3.91,6.83,8.22,7.99,13.66.06.27.24.61.47.75,3.6,2.06,7.21,4.1,10.95,6.21.74-3.2,2.37-6.29,2.09-9.85-.4-4.93-.67-9.86-1.08-14.78-.24-2.93-.63-5.84-.97-8.93ZM173.46,127.91c2.21.11,4.48.31,6.76.3.71,0,1.48-.47,2.11-.89.93-.63,1.73-1.46,2.66-2.11.37-.26.93-.24,1.4-.35-.19.46-.31.95-.58,1.36-.28.43-.69.79-1.04,1.17.05.09.1.18.15.27,2.87-.95,5.74-1.9,8.6-2.86.06.18.12.36.18.53-4.21,3.23-9.1,4.74-14.52,5.24,1.32,1.38,2.9,2.34,3.56,4.37-.56-.17-.89-.18-1.11-.35-1.68-1.22-3.34-2.47-5.01-3.7-.27-.2-.54-.5-.84-.55-3.12-.49-6.25-.94-9.61-1.43,1.08,1.64,2.93,2.54,2.91,4.82-.52-.19-.97-.22-1.22-.46-1.15-1.14-2.25-2.35-3.37-3.52-.23-.24-.51-.67-.73-.65-1.39.14-2.76.38-4.49.64,1.29,1,2.17,1.81,3.16,2.42,2.66,1.62,5.2,3.66,8.09,4.62,5.75,1.91,11.33.59,16.04-3.06,3.46-2.67,6.43-5.97,9.6-9.01.88-.84,1.69-1.77,2.57-2.7-2.27.26-4.37.59-6.48.72-4.95.31-9.71-.98-14.53-1.8-8.84-1.5-12.68.46-18.45,7.36,3.58-1.57,7.14-1.4,10.72-1.07.37.03.81-.26,1.17-.48,1.35-.81,2.67-1.67,4.03-2.47.22-.13.57-.02.87-.03-.09.31-.09.68-.28.92-.7.88-1.46,1.72-2.33,2.73ZM238.05,80.3c.06.11.13.21.19.32,1.56-.23,3.14-.37,4.68-.7,4.76-1.02,8.57-3.47,10.85-7.87,2.66-5.13,1.86-10.19-.79-15.07-3.03-5.59-7.43-9.91-12.75-13.32-3.65-2.33-7.56-3.91-12-3.73-4.8.19-7.59,4.07-5.86,8.16,2.25-3.48,5.57-4.3,9.37-3.7,5.23.83,9.38,3.62,12.59,7.69,3.41,4.32,5.21,9.22,3.96,14.84-.6,2.71-2.44,4.42-5.11,4.76-.87.11-1.77-.07-2.78-.12.66,3.31-.04,6.24-2.36,8.73ZM147.27,163.88c.09-.06.18-.12.27-.18-.16-.89-.34-1.77-.48-2.66-.86-5.27-.97-10.63-2.32-15.85-1.25-4.83-2.02-9.79-4.55-14.17-1.57-2.73-3.32-5.35-5.11-8.22-1.39,5.32-2.67,10.29-3.98,15.24-1.62,6.12-1.38,12.01,2.05,17.56,2.88,4.65,7.01,7.54,12.35,8.98-.09-.22-.1-.32-.16-.37-.36-.35-.74-.67-1.09-1.02-4.2-4.14-7.55-8.79-8.83-14.7-.09-.41-.51-.75-.79-1.11-1.04-1.33-2.11-2.65-3.12-4.01-.13-.18.03-.57.06-.87.32.05.73,0,.95.18.79.62,1.51,1.32,2.39,2.11-.13-4.86.22-9.44,1.38-13.93.17.01.34.03.51.04v8.6c1.07-.65,2.1-1.28,3.13-1.91.12.11.25.22.37.33-.14.43-.18.91-.42,1.27-.66.97-1.35,1.93-2.12,2.82-.64.74-1,1.51-.77,2.47.59,2.46,1.13,4.93,1.85,7.35.33,1.11,1.04,2.1,1.58,3.14.38-2.85.58-5.55,2.73-8.02.04.68.11.98.08,1.27-.22,1.98-.5,3.95-.68,5.93-.11,1.23-.55,2.77,0,3.67,1.32,2.18,3.12,4.07,4.73,6.07ZM177.36,170.37c1.08.31,2,.53,2.88.84.32.12.57.46.85.69-.34.23-.68.63-1.03.65-.8.05-1.71.11-2.41-.2-2.29-1-4.4-.47-6.61.28-2.56.87-5.01,1.88-7.01,3.75-.3.28-.66.94-.53,1.15.3.52.81,1.08,1.36,1.26.65.22,1.43.09,2.16.08,7.79-.04,14.02-2.96,17.99-9.89,2.37-4.14,3.36-8.77,4.52-13.33.22-.87.41-1.75.67-2.88-3.56,2.77-5.73,3.9-9.28,4.72-1.98.46-4.01.75-5.99,1.21-6.41,1.5-10.98,5-12.51,11.73-.19.84-.51,1.65-.63,2.49-.11.79-.02,1.61-.02,2.31,2.02-1.35,3.77-2.6,5.62-3.69.65-.38.91-.78,1.14-1.47.66-1.91,1.45-3.77,2.27-5.62.17-.39.66-.64,1.01-.95.09.08.18.17.27.25-.51,2.16-1.03,4.32-1.56,6.59,3.41-.81,6.32-2.23,8.86-4.47,1.1-.97,1.96-1.9,1.78-3.52-.07-.68.23-1.42.47-2.1.12-.34.48-.59.95-1.14.2,1.2.34,2.01.53,3.11,1.44-1.8,2.71-3.39,3.98-4.97.13.1.25.2.38.31-1.73,5.44-5.62,9.23-10.12,12.8ZM243.89,43.32c.32-3.65-2.28-8.88-5.43-10.73-1.78-1.05-3.76-1.55-5.75-.93-1.93.61-3.84,1.39-5.59,2.38-1.79,1.01-3.54,1.41-5.58,1.11-2.45-.36-4.96-.73-7.42-.62-3.74.16-6.34,2.66-6.59,6.36-.14,2.16.18,4.44.75,6.54,1.13,4.13,3.26,7.97,3.37,12.4.16-.42.2-.81.26-1.21.77-5.04,2.19-9.84,5.49-13.86,1.29-1.57,2.87-2.9,4.28-4.36,1.32-1.36,2.95-2.09,4.77-2.42,3.7-.67,7.25.02,10.59,1.56,2.36,1.09,4.58,2.5,6.84,3.76ZM151.15,37.22c1.64,6.38,8.3,17.68,12.32,20.66.23-.2.46-.4.7-.61,1.23-1.07,1.31-1,1.8.57.27.87.67,2.19,1.28,2.37,3.25.94,6.38,2.71,10.28,1.85-.82-2.17-1.56-4.37-2.46-6.5-2-4.73-5.36-8.21-9.88-10.64-4.77-2.56-9.51-5.21-14.04-7.69ZM233.45,82.77c.33.47.39.59.48.68,3.29,3.12,7.57,3.9,11.73,4.97.25.06.54-.01.8-.08,5.39-1.42,9.91-4.26,13.37-8.61,5.7-7.17,3.88-16.68-4.05-22.44,0,.04-.04.09-.02.13.16.42.33.84.49,1.26,1.62,4.11,1.97,8.28.48,12.49-3.11,8.77-12.04,12.54-20.74,11.62-.75-.08-1.52-.01-2.55-.01ZM201.48,81.63c-.13.02-.26.05-.39.07-.33,2.55-.69,5.11-.97,7.66-.4,3.62-.17,7.23,1.51,10.49,2.8,5.43,5.85,10.73,8.8,16.08.11.19.35.3.38.33.25-2.56.44-5.13.77-7.68.5-3.84.98-7.71-.29-11.45-.83-2.46-1.83-4.93-3.19-7.12-1.42-2.29-3.37-4.25-5.08-6.36-.53-.66-1.03-1.35-1.54-2.03ZM158.26,12.55c3.33-2.43,6.95-3.64,10.87-3.84,5.68-.29,10.88,1.01,14.6,5.65,1.35,1.68,2.16,3.79,3.2,5.66,1.58-1.36,2.69-4.22,2.45-6.81-.43-4.72-3.35-7.55-7.48-9.14-5.13-1.97-10.48-2.17-15.74-.63-5.67,1.67-6.98,3.53-7.89,9.11ZM177.78,50.8c.23,2.28.35,4.27.64,6.23.47,3.14,1.25,6.18,3.13,8.86,3.73,5.32,9.77,6.38,15.28,8.63-.95-2.1-1.94-4.04-2.71-6.06-.77-2.02-1.24-4.16-1.99-6.19-.39-1.07-.93-2.16-1.68-3-2.66-3-6.14-4.88-9.59-6.8-.93-.52-1.88-1.01-3.08-1.65ZM224.57,28.63c2.66,2.8,2.68,2.84,5.82,1.25,2.84-1.43,5.66-1.48,8.49-.1,5.04,2.44,8.2,8.72,7.17,14.31-.14.78.05,1.2.59,1.75,1.86,1.85,3.91,3.6,5.36,5.75,1.67,2.48,4.6,2.86,6.61,5.16,0-.76.02-1.07,0-1.38-.35-4.35-1.63-8.42-3.53-12.33-5.95-12.23-17.51-17.74-30.51-14.41ZM235.91,64.79c1.08,1.32,2.27,2.42,3.01,3.78.73,1.35,1.7,1.46,2.91,1.27,2.59-.42,3.91-1.85,4.16-4.45.5-5.21-1.48-9.54-4.96-13.19-2.88-3.03-6.38-5.1-10.71-5.3-3.28-.15-5.52,1.31-6.67,4.3-.1.27-.18.65-.07.88,1.2,2.51,2.96,4.58,5.16,6.57,0-.51,0-.78,0-1.05.02-3.74,3.1-6.12,6.72-5.19,3.04.77,5.74,4.16,5.82,7.31.08,2.98-1.7,4.88-4.67,5.03-.21,0-.41.04-.7.07ZM184.9,22.44c-.33-.91-.58-1.58-.83-2.26-1.27-3.39-3.22-6.19-6.65-7.71-3.96-1.76-8.09-2.05-12.23-.94-2.25.6-4.38,1.66-6.52,2.6-.72.32-1.13.97-.42,1.75,1.09,1.19,2.2,2.37,3.21,3.47.99-.49,1.64-.94,2.37-1.14,3.53-1.01,7.1-1.13,10.54.27,3.12,1.26,5.89,3.02,6.74,6.81,1.36-1.02,2.58-1.94,3.79-2.85ZM181.87,74.93c-1.65,5.14-3.25,10.13-4.79,14.91,2.73-1.62,5.73-3.4,8.72-5.17-1.16-4.58,1.22-7.67,4.62-10.47-.95-.19-2.04-.52-2.68-.13-2,1.22-3.99,1.61-5.87.86ZM163.05,20.12c-.11.14-.22.28-.33.42.25.1.55.15.75.32,3.29,2.74,6.82,5.1,10.87,6.6,1.14.42,4.52-.28,4.76-1.21.36-1.42-.88-2.24-1.71-3.16-.12-.13-.28-.23-.42-.35-4.18-3.47-8.95-3.62-13.92-2.62ZM235.48,62.8c2.09.07,3.28-.8,3.39-2.47.15-2.29-1.6-4.87-3.79-5.58-1.7-.55-3.41.19-3.93,1.69-.8,2.33,1.89,6.28,4.33,6.36ZM169.45,96.11c2.02-1.55,3.89-3.11,4.77-5.71,1.73-5.14,3.77-10.17,5.63-15.27.16-.43.13-1.07-.09-1.46-.44-.76-1.07-1.42-1.75-2.27-1.2,8.86-4.58,16.86-8.55,24.71ZM176.7,63.44c-2.7.78-5.12,1.61-7.06,3.48-.21.2-.33.67-.27.96.53,2.28,1.11,4.55,1.73,7,3.36-3.06,5.14-6.74,5.6-11.44ZM158.24,18.4c0,.41-.03.55,0,.68.1.39.19.8.33,1.17,1.54,4,4.45,6.99,7.35,9.98.14.15.41.29.58.26,1.75-.29,3.49-.61,5.24-.93-5.35-2.77-9.68-6.45-13.51-11.17ZM163.58,102.19c.16.09.32.17.48.26.92-1.45,2.05-2.81,2.73-4.37,1.37-3.15,2.5-6.39,3.7-9.61,1.9-5.07,3.77-10.14,5.65-15.21-.13-.07-.25-.13-.38-.2-1.24,1.48-2.33,3.16-4.63,3.18,1.23,9.78-3.4,17.79-7.56,25.94ZM186.13,72.93c-2.47-2.28-5.03-4.64-7.72-7.12.84,1.96,1.47,4.03,2.56,5.81,1.12,1.84,3.51,2.16,5.17,1.3ZM211.43,61.34c-.23,3.56-1.55,6.72-3.85,9.55,1.67-.17,3.19-.32,4.56-.45-.24-3.1-.48-6.11-.71-9.09ZM170.62,63.46c-.99-.37-1.88-.7-2.96-1.11.35,1.07.61,1.86.89,2.73.73-.57,1.33-1.04,2.07-1.62Z"/>
        <path class="oferSesh-1" d="M238.72,96.49c-1.59-.21-3.19-.31-4.75-.64-6.46-1.39-11.49-5.16-15.86-9.89-1.37-1.48-2.49-3.2-3.61-4.88-.25-.38-.05-1.06-.05-1.6.51.2,1.15.26,1.5.61,1.98,1.99,3.86,4.07,5.84,6.07,4.44,4.49,9.92,7.16,15.87,9.03.45.14.86.43,1.28.65-.07.22-.13.44-.2.66Z"/>
      </g>
      <path class="oferSesh-1" d="M380.83,178.22c2.27.07,3.75,1.53,3.65,3.62-.08,1.91-1.88,3.53-3.82,3.43-1.92-.09-3.55-1.8-3.49-3.63.07-1.94,1.71-3.47,3.65-3.41ZM382.61,181.96c.02-1.18-.86-2.2-1.68-2.2-.93,0-1.75.89-1.76,1.89,0,1.02.79,1.86,1.78,1.81,1.08-.06,1.62-.67,1.66-1.5Z"/>
      <path class="oferSesh-1" d="M359.12,108.4c-1.19.03-2.14-.84-2.15-1.96,0-1.03.83-1.92,1.85-1.98,1.1-.06,2.12.89,2.15,2,.02,1.05-.8,1.92-1.84,1.95Z"/>
      <path class="oferSesh-1" d="M219.02,178.21c2.27.05,3.76,1.5,3.69,3.59-.07,1.92-1.84,3.54-3.78,3.46-1.92-.08-3.56-1.75-3.52-3.6.04-1.93,1.68-3.49,3.62-3.45ZM219.23,183.48c.89-.07,1.54-.56,1.6-1.66.06-.93-.78-2.01-1.59-2.07-.91-.06-1.78.8-1.84,1.82-.06,1.02.69,1.87,1.83,1.91Z"/>
      <path class="oferSesh-1" d="M332.05,178.49c2.27.05,3.76,1.5,3.68,3.59-.07,1.92-1.84,3.54-3.79,3.46-1.92-.08-3.56-1.76-3.52-3.6.04-1.93,1.68-3.49,3.62-3.45ZM333.86,182.22c.01-1.18-.87-2.19-1.69-2.18-.94.02-1.75.9-1.76,1.9,0,1.02.8,1.86,1.79,1.8,1.08-.06,1.61-.68,1.65-1.52Z"/>
      <path class="oferSesh-1" d="M268.59,178.21c2.27.05,3.76,1.51,3.68,3.59-.07,1.92-1.85,3.54-3.79,3.46-1.92-.08-3.56-1.76-3.51-3.61.04-1.93,1.69-3.49,3.62-3.44ZM270.4,181.95c.01-1.18-.87-2.19-1.69-2.18-.94.02-1.75.9-1.76,1.9,0,1.02.8,1.86,1.79,1.8,1.08-.06,1.61-.68,1.65-1.52Z"/>
      <g>
        <g>
          <path class="oferSesh-2" d="M10.48,119.29c-6.61,0-9.92-5.88-9.92-17.63,0-7.95,1.53-15.29,4.59-22.01,3.31-7.34,7.63-11,12.96-11,2.06,0,4.01.74,5.84,2.23.33.36.49.73.49,1.11,0,.89-.3,1.33-.9,1.33-.15,0-.57-.19-1.28-.57-1.65-.91-3.32-1.36-5.03-1.36-2.23,0-4.46,1.45-6.68,4.36-2.23,2.91-4.03,6.64-5.41,11.21-1.38,4.56-2.06,9.07-2.06,13.53,0,8.6,1.59,13.81,4.78,15.62.76.42,1.78.62,3.07.62s2.63-.32,4.05-.95c3.89-1.79,7.16-5.58,9.81-11.36,1.67-3.64,2.93-7.52,3.8-11.63.87-4.11,1.3-8.09,1.3-11.94s-.72-7.24-2.15-10.17c-1.03-2.06-2.37-3.33-4.02-3.8-.83-.22-1.63-.4-2.38-.54-.75-.14-1.39-.31-1.92-.49-.53-.18-.79-.45-.79-.82,0-.69.46-1.1,1.38-1.22,7.26,0,11.34,4.75,12.23,14.26.16,1.61.24,3.35.24,5.22,0,3.98-.54,8.1-1.62,12.35-1.08,4.25-2.61,8.17-4.59,11.78-1.98,3.6-4.33,6.48-7.04,8.64-2.71,2.16-5.64,3.23-8.79,3.23Z"/>
          <path class="oferSesh-1" d="M20.05,63.82c7.26,0,11.34,4.75,12.23,14.26.16,1.61.24,3.35.24,5.22,0,3.98-.54,8.1-1.62,12.35-1.08,4.25-2.61,8.17-4.59,11.78-1.98,3.6-4.33,6.48-7.04,8.64-2.71,2.16-5.64,3.23-8.79,3.23-6.61,0-9.92-5.88-9.92-17.63,0-7.95,1.53-15.29,4.59-22.01,3.31-7.34,7.63-11,12.96-11,2.06,0,4.01.74,5.84,2.23.33.36.49.73.49,1.11,0,.89-.3,1.33-.9,1.33-.15,0-.57-.19-1.28-.57-1.65-.91-3.32-1.36-5.03-1.36-2.23,0-4.46,1.45-6.68,4.36-2.23,2.91-4.03,6.64-5.41,11.21s-2.06,9.07-2.06,13.53c0,8.6,1.59,13.81,4.78,15.62.76.42,1.78.62,3.07.62s2.63-.32,4.05-.95c3.89-1.79,7.16-5.58,9.81-11.36,1.67-3.64,2.93-7.52,3.8-11.63.87-4.11,1.3-8.09,1.3-11.94s-.72-7.24-2.15-10.17c-1.03-2.06-2.37-3.33-4.02-3.8-.83-.22-1.63-.4-2.38-.54-.75-.14-1.39-.31-1.92-.49-.53-.18-.79-.45-.79-.82,0-.69.46-1.1,1.38-1.22M20.05,63.25s-.05,0-.08,0c-1.63.22-1.88,1.21-1.88,1.78,0,.35.15,1,1.17,1.35.55.19,1.22.36,1.99.51.74.14,1.53.32,2.34.54,1.47.42,2.7,1.6,3.66,3.51,1.38,2.84,2.09,6.18,2.09,9.92s-.43,7.77-1.29,11.82c-.86,4.05-2.12,7.92-3.76,11.51-2.57,5.62-5.78,9.35-9.53,11.08-1.33.6-2.61.9-3.81.9s-2.13-.19-2.8-.55c-2.97-1.69-4.49-6.78-4.49-15.12,0-4.38.69-8.87,2.04-13.37,1.35-4.47,3.14-8.18,5.31-11.03,2.11-2.75,4.2-4.14,6.23-4.14,1.6,0,3.2.43,4.75,1.29,1.1.59,1.36.64,1.55.64.44,0,1.46-.19,1.46-1.9,0-.52-.21-1.03-.63-1.49-.02-.02-.04-.04-.06-.06-1.93-1.56-4.01-2.35-6.2-2.35-5.54,0-10.08,3.81-13.48,11.34-3.08,6.76-4.64,14.25-4.64,22.24,0,12.08,3.53,18.2,10.48,18.2,3.27,0,6.34-1.13,9.14-3.36,2.76-2.19,5.17-5.16,7.18-8.81,2-3.63,3.56-7.64,4.64-11.91,1.08-4.27,1.63-8.48,1.63-12.49,0-1.88-.08-3.65-.25-5.27-.91-9.8-5.22-14.77-12.79-14.77h0Z"/>
        </g>
        <g>
          <path class="oferSesh-2" d="M39.01,92.64l-3.69.16c-.74-.05-1.11-.39-1.11-1.01,0-.96,1.05-1.47,3.15-1.52.67-.02,1.41-.03,2.23-.03h1.47c1.01-4.18,1.83-7.14,2.45-8.86,1.25-3.51,2.77-6.2,4.55-8.05,1.78-1.86,4.22-2.78,7.3-2.78s4.62.55,4.62,1.66c0,.6-.37,1.14-1.11,1.63-2.54-.18-4.02-.27-4.46-.27-2.7,0-4.97,1.6-6.81,4.79-1.84,3.2-3.11,7.16-3.82,11.89,1.2.04,1.98.05,2.36.05l1.22-.03,2.2-.03h.6c.18,0,.41.02.68.05,1.03,0,1.55.35,1.55,1.06,0,.91-.89,1.39-2.66,1.47-.49.02-1.01.03-1.58.03h-2.01c-.76,0-1.74-.02-2.93-.05-.71,3.89-1.28,7.34-1.73,10.34-.44,3-.77,5.12-.98,6.36-.21,1.24-.43,2.75-.65,4.54-.23,1.78-.58,4.21-1.07,7.29-1.29,7.93-3.87,13.49-7.74,16.68-2.41,1.96-5.6,2.93-9.56,2.93-2.81,0-5.38-.67-7.72-2.01-.92-.54-1.64-1.08-2.15-1.6-.51-.53-.76-.94-.76-1.25s.16-.59.49-.84c.33-.25.7-.38,1.11-.38l.33.08c2.06,1.48,3.63,2.41,4.7,2.77,1.07.36,2.47.54,4.21.54s3.29-.29,4.66-.87c1.37-.58,2.56-1.37,3.59-2.36,1.02-1,1.91-2.17,2.65-3.52.74-1.35,1.37-2.79,1.89-4.32.52-1.53.95-3.12,1.3-4.75.35-1.64.66-3.26.92-4.85.26-1.59.5-3.12.71-4.59.21-1.47.44-2.8.69-3.99.4-2.7.78-5.42,1.14-8.18.36-2.75.78-5.46,1.25-8.12-.58-.04-1.07-.05-1.47-.05Z"/>
          <path class="oferSesh-1" d="M55.34,70.56c3.08,0,4.62.55,4.62,1.66,0,.6-.37,1.14-1.11,1.63-2.54-.18-4.02-.27-4.46-.27-2.7,0-4.97,1.6-6.81,4.79-1.84,3.2-3.11,7.16-3.82,11.89,1.2.04,1.98.05,2.36.05l1.22-.03,2.2-.03h.6c.18,0,.41.02.68.05,1.03,0,1.55.35,1.55,1.06,0,.91-.89,1.39-2.66,1.47-.49.02-1.01.03-1.58.03h-2.01c-.76,0-1.74-.02-2.93-.05-.71,3.89-1.28,7.34-1.73,10.34-.44,3-.77,5.12-.98,6.36-.21,1.24-.43,2.75-.65,4.54-.23,1.78-.58,4.21-1.07,7.29-1.29,7.93-3.87,13.49-7.74,16.68-2.41,1.96-5.6,2.93-9.56,2.93-2.81,0-5.38-.67-7.72-2.01-.92-.54-1.64-1.08-2.15-1.6-.51-.53-.76-.94-.76-1.25s.16-.59.49-.84c.33-.25.7-.38,1.11-.38l.33.08c2.06,1.48,3.63,2.41,4.7,2.77,1.07.36,2.47.54,4.21.54s3.29-.29,4.66-.87c1.37-.58,2.56-1.37,3.59-2.36,1.02-1,1.91-2.17,2.65-3.52.74-1.35,1.37-2.79,1.89-4.32.52-1.53.95-3.12,1.3-4.75.35-1.64.66-3.26.92-4.85.26-1.59.5-3.12.71-4.59s.44-2.8.69-3.99c.4-2.7.78-5.42,1.14-8.18.36-2.75.78-5.46,1.25-8.12-.58-.04-1.07-.05-1.47-.05l-3.69.16c-.74-.05-1.11-.39-1.11-1.01,0-.96,1.05-1.47,3.15-1.52.67-.02,1.41-.03,2.23-.03h1.47c1.01-4.18,1.83-7.14,2.45-8.86,1.25-3.51,2.77-6.2,4.55-8.05,1.78-1.86,4.22-2.78,7.3-2.78M55.34,69.99c-3.23,0-5.82,1-7.7,2.96-1.83,1.91-3.41,4.68-4.68,8.26-.6,1.67-1.39,4.52-2.36,8.48h-1.02c-.82,0-1.57,0-2.24.03-2.46.06-3.7.77-3.7,2.09,0,.44.16,1.46,1.64,1.57.01,0,.03,0,.04,0,0,0,.02,0,.03,0l3.69-.16c.21,0,.48,0,.77.02-.42,2.45-.81,4.97-1.14,7.52-.36,2.74-.74,5.48-1.14,8.17-.25,1.16-.48,2.52-.69,4-.21,1.47-.45,3.01-.7,4.58-.26,1.59-.57,3.22-.92,4.82-.35,1.61-.78,3.19-1.29,4.69-.5,1.49-1.12,2.91-1.85,4.23-.71,1.29-1.57,2.43-2.55,3.39-.97.94-2.12,1.7-3.41,2.25-1.29.55-2.78.82-4.44.82s-3.02-.17-4.03-.51c-1.01-.34-2.54-1.25-4.55-2.69-.06-.04-.12-.07-.19-.09l-.33-.08s-.09-.02-.14-.02c-.54,0-1.04.17-1.46.5-.59.46-.71.95-.71,1.29,0,.47.29.99.92,1.64.54.56,1.31,1.13,2.27,1.7,2.42,1.39,5.11,2.09,8,2.09,4.08,0,7.42-1.03,9.92-3.06,3.97-3.27,6.64-9,7.94-17.03.49-3.05.85-5.51,1.08-7.31.22-1.77.44-3.29.65-4.51.21-1.24.54-3.38.98-6.37.42-2.84.97-6.15,1.64-9.84.97.03,1.8.04,2.46.04h2.01c.57,0,1.1,0,1.6-.03,2.65-.11,3.21-1.17,3.21-2.03,0-.49-.2-1.61-2.08-1.63-.28-.04-.52-.05-.72-.05h-.6l-2.21.03-1.23.03c-.29,0-.86-.01-1.69-.04.71-4.36,1.94-8.08,3.65-11.05,1.74-3.03,3.81-4.51,6.31-4.51.41,0,1.9.09,4.42.27.01,0,.03,0,.04,0,.11,0,.22-.03.31-.09.91-.6,1.37-1.31,1.37-2.1,0-2.22-3.9-2.22-5.19-2.22h0Z"/>
        </g>
        <g>
          <path class="oferSesh-2" d="M66.5,113.51c.63,0,.95.34.95,1.01,0,.78-.95,1.66-2.85,2.64-1.9.98-3.49,1.47-4.75,1.47s-2.22-.21-2.85-.62c-.63-.42-1.15-1-1.55-1.74-.78-1.45-1.17-3.2-1.17-5.24,0-3.62.54-7.04,1.63-10.24,1.09-3.21,2.54-5.86,4.35-7.97,1.81-2.11,3.77-3.17,5.87-3.17,1.12,0,2.01.47,2.65,1.4.64.93.96,2.03.96,3.3,0,2.37-.62,4.38-1.86,6.03-1.24,1.65-2.77,3-4.58,4.05-1.81,1.05-3.89,2.05-6.25,2.99l-.11,3.99c0,3.12.94,4.67,2.83,4.67,1.01,0,2.08-.29,3.19-.88,1.11-.59,1.92-1.01,2.4-1.28.49-.26.87-.39,1.14-.39ZM67.18,94.44c0-1.45-.61-2.17-1.82-2.17-1.09,0-2.36.98-3.83,2.93-1.47,1.96-2.68,4.54-3.64,7.74-.24.78-.37,1.37-.41,1.77.72-.4,1.47-.78,2.23-1.14.76-.36,1.5-.74,2.23-1.14,1.67-.92,2.96-2.01,3.87-3.25.91-1.24,1.37-2.82,1.37-4.74Z"/>
          <path class="oferSesh-1" d="M66.12,89.63c1.12,0,2.01.47,2.65,1.4.64.93.96,2.03.96,3.3,0,2.37-.62,4.38-1.86,6.03-1.24,1.65-2.77,3-4.58,4.05-1.81,1.05-3.89,2.05-6.25,2.99l-.11,3.99c0,3.12.94,4.67,2.83,4.67,1.01,0,2.08-.29,3.19-.88,1.11-.59,1.92-1.01,2.4-1.28.49-.26.87-.39,1.14-.39.63,0,.95.34.95,1.01,0,.78-.95,1.66-2.85,2.64-1.9.98-3.49,1.47-4.75,1.47s-2.22-.21-2.85-.62-1.15-1-1.55-1.74c-.78-1.45-1.17-3.2-1.17-5.24,0-3.62.54-7.04,1.63-10.24,1.09-3.21,2.54-5.86,4.35-7.97,1.81-2.11,3.77-3.17,5.87-3.17M57.48,104.71c.72-.4,1.47-.78,2.23-1.14.76-.36,1.5-.74,2.23-1.14,1.67-.92,2.96-2.01,3.87-3.25.91-1.24,1.37-2.82,1.37-4.74,0-1.45-.61-2.17-1.82-2.17-1.09,0-2.36.98-3.83,2.93-1.47,1.96-2.68,4.54-3.64,7.74-.24.78-.37,1.37-.41,1.77M66.12,89.06c-2.26,0-4.38,1.13-6.3,3.36-1.85,2.16-3.35,4.9-4.45,8.16-1.1,3.25-1.66,6.76-1.66,10.42,0,2.13.42,3.99,1.24,5.51.44.82,1.03,1.48,1.74,1.94.74.48,1.77.72,3.16.72s3.01-.5,5.01-1.53c2.16-1.11,3.16-2.11,3.16-3.14s-.57-1.57-1.52-1.57c-.37,0-.82.15-1.41.46-.49.26-1.29.69-2.4,1.28-1.03.54-2.01.82-2.93.82-.56,0-2.26,0-2.26-4.11l.1-3.61c2.23-.91,4.24-1.88,5.98-2.88,1.87-1.08,3.46-2.5,4.75-4.2,1.31-1.74,1.97-3.88,1.97-6.37,0-1.38-.36-2.6-1.06-3.62-.75-1.09-1.8-1.64-3.12-1.64h0ZM58.28,103.64c.05-.17.1-.35.15-.54.94-3.13,2.13-5.67,3.55-7.57,1.68-2.24,2.76-2.71,3.38-2.71.65,0,1.25.19,1.25,1.61,0,1.79-.42,3.27-1.26,4.4-.86,1.17-2.1,2.21-3.69,3.09-.71.39-1.45.77-2.2,1.12-.4.19-.8.39-1.19.59h0Z"/>
        </g>
        <g>
          <path class="oferSesh-2" d="M72.7,117.96l1.25-6.63c.65-3.39,1.1-5.79,1.33-7.21.24-1.42.5-2.99.8-4.7.3-1.71.91-4.17,1.83-7.38-.04-.09-.05-.17-.05-.24v-.27c0-.87.33-1.49,1-1.87.2-.13.41-.19.63-.19.78,0,1.17.56,1.17,1.68,0,.65-.26,1.82-.79,3.52-.53,1.69-.93,3.27-1.22,4.71.25-.42.57-.94.94-1.58.37-.63.96-1.56,1.77-2.77.81-1.21,1.82-2.37,3.04-3.46,1.22-1.1,2.47-1.64,3.75-1.64s2.25.34,2.92,1.03c.25.24.38.53.38.9s-.16.69-.49.98c-.33.29-.66.43-1.01.43s-.68-.09-1-.29c-.33-.19-.69-.28-1.09-.28s-1.03.33-1.9.98c-3.46,2.52-6.31,7.51-8.56,14.97-.6,1.99-.96,3.36-1.09,4.12-.13.75-.24,1.36-.33,1.83-.54,2.92-1.38,4.37-2.5,4.37-.53,0-.79-.34-.79-1.01Z"/>
          <path class="oferSesh-1" d="M79.49,89.47c.78,0,1.17.56,1.17,1.68,0,.65-.26,1.82-.79,3.52-.53,1.69-.93,3.27-1.22,4.71.25-.42.57-.94.94-1.58.37-.63.96-1.56,1.77-2.77.81-1.21,1.82-2.37,3.04-3.46,1.22-1.1,2.47-1.64,3.75-1.64s2.25.34,2.92,1.03c.25.24.38.53.38.9s-.16.69-.49.98c-.33.29-.66.43-1.01.43s-.68-.09-1-.29c-.33-.19-.69-.28-1.09-.28s-1.03.33-1.9.98c-3.46,2.52-6.31,7.51-8.56,14.97-.6,1.99-.96,3.36-1.09,4.12-.13.75-.24,1.36-.33,1.83-.54,2.92-1.38,4.37-2.5,4.37-.53,0-.79-.34-.79-1.01l1.25-6.63c.65-3.39,1.1-5.79,1.33-7.21.24-1.42.5-2.99.8-4.7.3-1.71.91-4.17,1.83-7.38-.04-.09-.05-.17-.05-.24v-.27c0-.87.33-1.49,1-1.87.2-.13.41-.19.63-.19M79.49,88.9c-.33,0-.64.09-.93.28-.82.47-1.27,1.28-1.27,2.35v.27c0,.08,0,.17.03.25-.9,3.13-1.5,5.58-1.8,7.27-.3,1.71-.57,3.28-.8,4.7-.23,1.41-.68,3.83-1.33,7.2l-1.25,6.63s0,.07,0,.11c0,1.46,1.04,1.57,1.36,1.57,1.45,0,2.45-1.58,3.06-4.84.09-.47.2-1.09.33-1.84.12-.73.48-2.09,1.07-4.05,2.2-7.31,5.01-12.24,8.35-14.67,1.1-.83,1.5-.87,1.57-.87.3,0,.56.07.8.21.41.24.85.36,1.29.36.49,0,.95-.19,1.38-.58.56-.5.68-1.04.68-1.4,0-.52-.19-.97-.56-1.31-.76-.78-1.88-1.18-3.31-1.18s-2.8.6-4.13,1.79c-1.25,1.12-2.31,2.33-3.14,3.57-.29.44-.56.84-.79,1.21.1-.36.21-.72.33-1.09.55-1.76.81-2.97.81-3.69,0-2.03-1.21-2.25-1.74-2.25h0Z"/>
        </g>
        <g>
          <path class="oferSesh-2" d="M100.05,78.9c-.69,0-1.03-.33-1.03-1.01,0-.4.22-.81.65-1.22,1.14-.91,1.96-1.84,2.45-2.8.49-.96.73-2.27.73-3.94l-.11-.82c-.71.54-1.33.82-1.87.82s-1.12-.24-1.74-.73c-.6-.51-.9-1.11-.9-1.82s.38-1.43,1.15-2.17c.77-.74,1.57-1.11,2.4-1.11l1.49.3c1.07,0,1.76,1.24,2.06,3.72.07.58.11,1.17.11,1.77,0,1.47-.41,3.01-1.24,4.62-.82,1.61-1.92,2.97-3.27,4.08-.27.22-.57.33-.9.33Z"/>
          <path class="oferSesh-1" d="M101.79,64.09l1.49.3c1.07,0,1.76,1.24,2.06,3.72.07.58.11,1.17.11,1.77,0,1.47-.41,3.01-1.24,4.62-.82,1.61-1.92,2.97-3.27,4.08-.27.22-.57.33-.9.33-.69,0-1.03-.33-1.03-1.01,0-.4.22-.81.65-1.22,1.14-.91,1.96-1.84,2.45-2.8.49-.96.73-2.27.73-3.94l-.11-.82c-.71.54-1.33.82-1.87.82s-1.12-.24-1.74-.73c-.6-.51-.9-1.11-.9-1.82s.38-1.43,1.15-2.17c.77-.74,1.57-1.11,2.4-1.11M101.79,63.52c-.98,0-1.92.43-2.8,1.27-.88.85-1.33,1.72-1.33,2.58s.37,1.64,1.1,2.25c.73.58,1.43.87,2.11.87.45,0,.91-.13,1.41-.4-.02,1.49-.24,2.67-.67,3.52-.45.88-1.22,1.76-2.29,2.61-.59.56-.87,1.11-.87,1.67,0,.98.6,1.57,1.6,1.57.46,0,.88-.15,1.25-.45,1.42-1.15,2.57-2.59,3.42-4.26.86-1.68,1.3-3.33,1.3-4.88,0-.62-.04-1.24-.11-1.84-.13-1.03-.51-4.16-2.57-4.22l-1.44-.29s-.07-.01-.11-.01h0Z"/>
        </g>
        <g>
          <path class="oferSesh-2" d="M114.54,92.1c-1.81,0-2.72,1.05-2.72,3.15,0,1.39.33,2.83.98,4.32.65,1.49,1.2,2.67,1.66,3.56,1.76,3.5,2.63,6.17,2.63,8.03s-.56,3.44-1.68,4.74c-1.12,1.3-2.74,2.08-4.86,2.34h-.35c-2.05,0-3.53-1.26-4.46-3.78-.04-.09-.06-.17-.06-.24v-.27c0-.38.12-.69.35-.94.24-.25.49-.39.76-.45h.3c.36,0,.66.15.88.43.23.29.44.61.64.96.2.35.42.68.65.96.24.29.64.43,1.22.43,1.23,0,2.21-.38,2.95-1.15.73-.77,1.1-1.63,1.1-2.57s-.14-1.82-.41-2.64c-.45-1.39-1.23-3.13-2.34-5.22-1.85-3.42-2.77-6.09-2.77-7.99s.48-3.46,1.44-4.67c.96-1.21,2.32-1.82,4.08-1.82,1.09,0,2.02.23,2.8.68,1.47.85,2.2,1.81,2.2,2.87s-.44,1.59-1.33,1.59c-.33,0-.59-.12-.8-.37-.21-.24-.43-.51-.67-.8-.63-.78-1.37-1.17-2.2-1.17Z"/>
          <path class="oferSesh-1" d="M114.54,89.3c1.09,0,2.02.23,2.8.68,1.47.85,2.2,1.81,2.2,2.87s-.44,1.59-1.33,1.59c-.33,0-.59-.12-.8-.37-.21-.24-.43-.51-.67-.8-.63-.78-1.37-1.17-2.2-1.17-1.81,0-2.72,1.05-2.72,3.15,0,1.39.33,2.83.98,4.32.65,1.49,1.2,2.67,1.66,3.56,1.76,3.5,2.63,6.17,2.63,8.03s-.56,3.44-1.68,4.74c-1.12,1.3-2.74,2.08-4.86,2.34h-.35c-2.05,0-3.53-1.26-4.46-3.78-.04-.09-.06-.17-.06-.24v-.27c0-.38.12-.69.35-.94.24-.25.49-.39.76-.45h.3c.36,0,.66.15.88.43.23.29.44.61.64.96.2.35.42.68.65.96.24.29.64.43,1.22.43,1.23,0,2.21-.38,2.95-1.15.73-.77,1.1-1.63,1.1-2.57s-.14-1.82-.41-2.64c-.45-1.39-1.23-3.13-2.34-5.22-1.85-3.42-2.77-6.09-2.77-7.99s.48-3.46,1.44-4.67c.96-1.21,2.32-1.82,4.08-1.82M114.54,88.73c-1.93,0-3.45.68-4.52,2.04-1.04,1.31-1.56,3-1.56,5.03s.93,4.72,2.84,8.26c1.08,2.04,1.86,3.77,2.3,5.12.25.76.38,1.58.38,2.46,0,.8-.31,1.51-.94,2.18-.63.66-1.46.98-2.54.98-.27,0-.63-.04-.78-.23-.21-.26-.41-.56-.6-.89-.21-.37-.44-.72-.68-1.03-.34-.43-.8-.65-1.33-.65h-.3s-.07,0-.11.01c-.39.08-.74.28-1.06.61-.34.35-.51.8-.51,1.33v.27c0,.15.03.3.1.46,1,2.74,2.68,4.13,4.98,4.13h.35s.05,0,.07,0c2.25-.27,4.01-1.12,5.23-2.53,1.21-1.4,1.82-3.12,1.82-5.11s-.88-4.67-2.7-8.28c-.45-.88-1-2.06-1.64-3.53-.62-1.41-.93-2.78-.93-4.09,0-2.29,1.15-2.58,2.15-2.58.66,0,1.23.31,1.76.96.24.29.46.56.67.81.31.37.74.57,1.23.57.57,0,1.9-.21,1.9-2.16,0-1.27-.84-2.4-2.48-3.36-.86-.5-1.9-.76-3.08-.76h0Z"/>
        </g>
      </g>
      <g>
        <g>
          <path class="oferSesh-2" d="M443.78,75.18c4.33,0,7.19,2.34,8.58,7.01.15.24.22.52.22.86s-.16.65-.48.94c-.32.29-.64.43-.96.43-.56,0-.9-.34-1-1.03-.25-1.63-.94-3.02-2.06-4.16-1.12-1.14-2.55-1.71-4.29-1.71s-3.05.61-3.94,1.82c-.89,1.21-1.33,2.64-1.33,4.29s.22,3.34.67,5.08c.44,1.74,1,3.48,1.67,5.22.67,1.74,1.39,3.48,2.16,5.22.77,1.74,1.49,3.49,2.16,5.24,1.56,4.08,2.34,7.74,2.34,10.99s-.9,6.23-2.69,8.92c-2.3,3.53-5.92,5.3-10.87,5.3-3.79,0-7.06-.94-9.82-2.83-2.76-1.88-4.14-4.58-4.14-8.1s1.05-6.55,3.15-9.1c.76-.92,1.69-1.87,2.8-2.85.36-.31.71-.46,1.03-.46.72,0,1.09.3,1.09.9,0,.31-.08.59-.25.84-1.85,1.7-3.07,3.12-3.67,4.24-1,1.96-1.49,3.84-1.49,5.65s.32,3.26.95,4.35c.63,1.09,1.48,1.99,2.53,2.72,2.06,1.45,4.75,2.17,8.05,2.17s5.98-1.3,8.03-3.91c1.76-2.23,2.63-4.95,2.63-8.16s-1.5-8.32-4.51-15.31c-3.01-6.99-4.51-11.85-4.51-14.57s.65-5.07,1.96-7.04c1.3-1.96,3.31-2.95,6-2.95Z"/>
          <path class="oferSesh-1" d="M443.78,75.18c4.33,0,7.19,2.34,8.58,7.01.15.24.22.52.22.86s-.16.65-.48.94c-.32.29-.64.43-.96.43-.56,0-.9-.34-1-1.03-.25-1.63-.94-3.02-2.06-4.16-1.12-1.14-2.55-1.71-4.29-1.71s-3.05.61-3.94,1.82c-.89,1.21-1.33,2.64-1.33,4.29s.22,3.34.67,5.08c.44,1.74,1,3.48,1.67,5.22.67,1.74,1.39,3.48,2.16,5.22.77,1.74,1.49,3.49,2.16,5.24,1.56,4.08,2.34,7.74,2.34,10.99s-.9,6.23-2.69,8.92c-2.3,3.53-5.92,5.3-10.87,5.3-3.79,0-7.06-.94-9.82-2.83-2.76-1.88-4.14-4.58-4.14-8.1s1.05-6.55,3.15-9.1c.76-.92,1.69-1.87,2.8-2.85.36-.31.71-.46,1.03-.46.72,0,1.09.3,1.09.9,0,.31-.08.59-.25.84-1.85,1.7-3.07,3.12-3.67,4.24-1,1.96-1.49,3.84-1.49,5.65s.32,3.26.95,4.35c.63,1.09,1.48,1.99,2.53,2.72,2.06,1.45,4.75,2.17,8.05,2.17s5.98-1.3,8.03-3.91c1.76-2.23,2.63-4.95,2.63-8.16s-1.5-8.32-4.51-15.31c-3.01-6.99-4.51-11.85-4.51-14.57s.65-5.07,1.96-7.04c1.3-1.96,3.31-2.95,6-2.95M443.78,74.61c-2.89,0-5.07,1.08-6.48,3.2-1.36,2.05-2.05,4.52-2.05,7.35s1.49,7.67,4.56,14.8c2.96,6.89,4.46,11.96,4.46,15.08s-.85,5.7-2.51,7.81c-1.95,2.49-4.43,3.7-7.58,3.7s-5.77-.7-7.73-2.07c-.98-.68-1.77-1.53-2.36-2.54-.58-.99-.87-2.36-.87-4.06s.48-3.53,1.43-5.39c.56-1.05,1.75-2.43,3.55-4.08.04-.03.07-.07.09-.11.22-.35.34-.73.34-1.15,0-.92-.62-1.46-1.65-1.46-.46,0-.93.2-1.4.6-1.13,1-2.09,1.98-2.87,2.92-2.18,2.65-3.28,5.83-3.28,9.46s1.48,6.58,4.39,8.56c2.84,1.94,6.26,2.92,10.14,2.92,5.13,0,8.94-1.87,11.34-5.56,1.85-2.78,2.78-5.88,2.78-9.23s-.8-7.07-2.37-11.19c-.67-1.76-1.4-3.53-2.17-5.27-.76-1.72-1.48-3.46-2.15-5.19-.66-1.72-1.22-3.45-1.65-5.15-.43-1.68-.65-3.35-.65-4.94s.41-2.85,1.22-3.96c.78-1.07,1.92-1.59,3.48-1.59s2.87.5,3.89,1.54c1.03,1.05,1.67,2.34,1.91,3.85.22,1.37,1.17,1.51,1.57,1.51.47,0,.92-.2,1.35-.58.44-.4.66-.86.66-1.36,0-.41-.09-.77-.26-1.08-1.48-4.88-4.54-7.35-9.11-7.35h0Z"/>
        </g>
        <g>
          <path class="oferSesh-2" d="M465.59,124.4c.63,0,.95.34.95,1.01,0,.78-.95,1.66-2.85,2.64-1.9.98-3.49,1.47-4.75,1.47s-2.22-.21-2.85-.62-1.15-1-1.55-1.74c-.78-1.45-1.17-3.2-1.17-5.24,0-3.62.54-7.04,1.63-10.24,1.09-3.21,2.54-5.86,4.35-7.97,1.81-2.11,3.77-3.17,5.87-3.17,1.12,0,2.01.47,2.65,1.4.64.93.96,2.03.96,3.3,0,2.37-.62,4.38-1.86,6.03-1.24,1.65-2.77,3-4.58,4.05-1.81,1.05-3.89,2.05-6.25,2.99l-.11,3.99c0,3.12.94,4.67,2.83,4.67,1.01,0,2.08-.29,3.19-.88,1.11-.59,1.92-1.01,2.4-1.28.49-.26.87-.39,1.14-.39ZM466.27,105.33c0-1.45-.61-2.17-1.82-2.17-1.09,0-2.36.98-3.83,2.93-1.47,1.96-2.68,4.54-3.64,7.74-.24.78-.37,1.37-.41,1.77.72-.4,1.47-.78,2.23-1.14.76-.36,1.5-.74,2.23-1.14,1.67-.92,2.96-2.01,3.87-3.25.91-1.24,1.37-2.82,1.37-4.74Z"/>
          <path class="oferSesh-1" d="M465.21,100.52c1.12,0,2.01.47,2.65,1.4.64.93.96,2.03.96,3.3,0,2.37-.62,4.38-1.86,6.03-1.24,1.65-2.77,3-4.58,4.05-1.81,1.05-3.89,2.05-6.25,2.99l-.11,3.99c0,3.12.94,4.67,2.83,4.67,1.01,0,2.08-.29,3.19-.88,1.11-.59,1.92-1.01,2.4-1.28.49-.26.87-.39,1.14-.39.63,0,.95.34.95,1.01,0,.78-.95,1.66-2.85,2.64-1.9.98-3.49,1.47-4.75,1.47s-2.22-.21-2.85-.62c-.63-.42-1.15-1-1.55-1.74-.78-1.45-1.17-3.2-1.17-5.24,0-3.62.54-7.04,1.63-10.24,1.09-3.21,2.54-5.86,4.35-7.97,1.81-2.11,3.77-3.17,5.87-3.17M456.57,115.6c.72-.4,1.47-.78,2.23-1.14.76-.36,1.5-.74,2.23-1.14,1.67-.92,2.96-2.01,3.87-3.25.91-1.24,1.37-2.82,1.37-4.74,0-1.45-.61-2.17-1.82-2.17-1.09,0-2.36.98-3.83,2.93-1.47,1.96-2.68,4.54-3.64,7.74-.24.78-.37,1.37-.41,1.77M465.21,99.95c-2.26,0-4.38,1.13-6.3,3.36-1.85,2.16-3.35,4.9-4.45,8.16-1.1,3.25-1.66,6.76-1.66,10.42,0,2.13.42,3.99,1.24,5.51.44.82,1.03,1.48,1.74,1.94.74.48,1.77.72,3.16.72s3.01-.5,5.01-1.53c2.16-1.11,3.16-2.11,3.16-3.14s-.57-1.57-1.52-1.57c-.38,0-.82.15-1.41.46-.49.26-1.29.69-2.4,1.28-1.03.54-2.01.82-2.93.82-.56,0-2.26,0-2.26-4.11l.1-3.61c2.23-.91,4.24-1.88,5.98-2.88,1.87-1.08,3.46-2.5,4.75-4.2,1.31-1.74,1.97-3.88,1.97-6.37,0-1.38-.36-2.6-1.06-3.62-.75-1.09-1.8-1.64-3.12-1.64h0ZM457.37,114.53c.05-.17.1-.35.15-.54.94-3.13,2.13-5.67,3.55-7.57,1.68-2.24,2.76-2.71,3.38-2.71.65,0,1.25.19,1.25,1.61,0,1.79-.42,3.27-1.26,4.4-.86,1.17-2.1,2.21-3.69,3.09-.71.39-1.45.77-2.2,1.12-.4.19-.8.39-1.19.59h0Z"/>
        </g>
        <g>
          <path class="oferSesh-2" d="M480.07,102.99c-1.81,0-2.72,1.05-2.72,3.15,0,1.39.33,2.83.98,4.32.65,1.49,1.2,2.67,1.66,3.56,1.76,3.5,2.63,6.17,2.63,8.03s-.56,3.44-1.68,4.74c-1.12,1.3-2.74,2.08-4.86,2.34h-.35c-2.05,0-3.53-1.26-4.46-3.78-.04-.09-.06-.17-.06-.24v-.27c0-.38.12-.69.35-.94.24-.25.49-.39.76-.45h.3c.36,0,.66.15.88.43.23.29.44.61.64.96.2.35.42.68.65.96.24.29.64.43,1.22.43,1.23,0,2.21-.38,2.95-1.15.73-.77,1.1-1.63,1.1-2.57s-.14-1.82-.41-2.64c-.45-1.39-1.23-3.13-2.34-5.22-1.85-3.42-2.77-6.09-2.77-7.99s.48-3.46,1.44-4.67c.96-1.21,2.32-1.82,4.08-1.82,1.09,0,2.02.23,2.8.68,1.47.85,2.2,1.81,2.2,2.87s-.44,1.59-1.33,1.59c-.33,0-.59-.12-.8-.37-.21-.24-.43-.51-.67-.8-.63-.78-1.37-1.17-2.2-1.17Z"/>
          <path class="oferSesh-1" d="M480.07,100.2c1.09,0,2.02.23,2.8.68,1.47.85,2.2,1.81,2.2,2.87s-.44,1.59-1.33,1.59c-.33,0-.59-.12-.8-.37-.21-.24-.43-.51-.67-.8-.63-.78-1.37-1.17-2.2-1.17-1.81,0-2.72,1.05-2.72,3.15,0,1.39.33,2.83.98,4.32.65,1.49,1.2,2.67,1.66,3.56,1.76,3.5,2.63,6.17,2.63,8.03s-.56,3.44-1.68,4.74c-1.12,1.3-2.74,2.08-4.86,2.34h-.35c-2.05,0-3.53-1.26-4.46-3.78-.04-.09-.06-.17-.06-.24v-.27c0-.38.12-.69.35-.94.24-.25.49-.39.76-.45h.3c.36,0,.66.15.88.43.23.29.44.61.64.96.2.35.42.68.65.96.24.29.64.43,1.22.43,1.23,0,2.21-.38,2.95-1.15.73-.77,1.1-1.63,1.1-2.57s-.14-1.82-.41-2.64c-.45-1.39-1.23-3.13-2.34-5.22-1.85-3.42-2.77-6.09-2.77-7.99s.48-3.46,1.44-4.67c.96-1.21,2.32-1.82,4.08-1.82M480.07,99.63c-1.93,0-3.45.68-4.52,2.04-1.04,1.31-1.56,3-1.56,5.03s.93,4.72,2.84,8.26c1.08,2.04,1.86,3.77,2.3,5.12.25.76.38,1.58.38,2.46,0,.8-.31,1.51-.94,2.18-.63.66-1.46.98-2.54.98-.27,0-.63-.04-.78-.23-.21-.26-.41-.56-.6-.89-.21-.37-.44-.72-.68-1.03-.34-.43-.8-.65-1.33-.65h-.3s-.07,0-.11.01c-.39.08-.74.28-1.06.61-.34.35-.51.8-.51,1.33v.27c0,.15.03.3.1.46,1,2.74,2.68,4.13,4.98,4.13h.35s.04,0,.07,0c2.25-.27,4.01-1.12,5.23-2.53,1.21-1.4,1.82-3.12,1.82-5.11s-.88-4.67-2.7-8.28c-.45-.88-1-2.06-1.64-3.53-.62-1.41-.93-2.78-.93-4.09,0-2.29,1.15-2.58,2.15-2.58.66,0,1.23.31,1.76.96.24.29.46.56.67.81.31.37.74.57,1.23.57.57,0,1.9-.21,1.9-2.16,0-1.27-.84-2.4-2.48-3.36-.86-.5-1.9-.76-3.08-.76h0Z"/>
        </g>
        <g>
          <path class="oferSesh-2" d="M492,128.12c0,.85-.69,1.28-2.06,1.28-.63,0-.95-.31-.95-.92s1.81-9.24,5.43-25.86c2.7-12.73,4.41-21.33,5.14-25.78l.22-.73c.16-.54.49-.82.98-.82.92,0,1.51.46,1.77,1.39-.15.69-.34,1.65-.58,2.88-.24,1.23-.53,2.64-.85,4.21-.33,1.58-.68,3.28-1.06,5.11-.38,1.83-.77,3.69-1.17,5.57-.4,1.88-1,4.76-1.82,8.64-.82,3.88-1.51,7.13-2.09,9.75,3.79-7.79,7.36-11.68,10.73-11.68,1.38,0,2.4.54,3.07,1.62.67,1.08,1.01,2.27,1.01,3.57s-.24,3.12-.71,5.46l-.92,4.67c-1.01,5.13-1.52,8.19-1.52,9.18l.08,2.12c0,.47-.16.85-.47,1.14-.32.29-.74.43-1.26.43s-.91-.19-1.15-.56c-.24-.37-.37-.73-.37-1.07s.03-.65.08-.92l3.23-18.07c.11-.58.16-1.25.16-2.01,0-1.87-.52-2.8-1.55-2.8-1.96,0-4.62,2.93-7.99,8.77-1.9,3.31-3.07,5.61-3.51,6.89-.43,1.28-.86,2.74-1.28,4.4-.42,1.66-.62,2.72-.62,3.19l.05.95Z"/>
          <path class="oferSesh-1" d="M500.75,75.28c.92,0,1.51.46,1.77,1.39-.15.69-.34,1.65-.58,2.88-.24,1.23-.53,2.64-.85,4.21-.33,1.58-.68,3.28-1.06,5.11-.38,1.83-.77,3.69-1.17,5.57-.4,1.88-1,4.76-1.82,8.64-.82,3.88-1.51,7.13-2.09,9.75,3.79-7.79,7.36-11.68,10.73-11.68,1.38,0,2.4.54,3.07,1.62.67,1.08,1.01,2.27,1.01,3.57s-.24,3.12-.71,5.46l-.92,4.67c-1.01,5.13-1.52,8.19-1.52,9.18l.08,2.12c0,.47-.16.85-.47,1.14-.32.29-.74.43-1.26.43s-.91-.19-1.15-.56c-.24-.37-.37-.73-.37-1.07s.03-.65.08-.92l3.23-18.07c.11-.58.16-1.25.16-2.01,0-1.87-.52-2.8-1.55-2.8-1.96,0-4.62,2.93-7.99,8.77-1.9,3.31-3.07,5.61-3.51,6.89-.43,1.28-.86,2.74-1.28,4.4-.42,1.66-.62,2.72-.62,3.19l.05.95c0,.85-.69,1.28-2.06,1.28-.63,0-.95-.31-.95-.92s1.81-9.24,5.43-25.86c2.7-12.73,4.41-21.33,5.14-25.78l.22-.73c.16-.54.49-.82.98-.82M500.75,74.72c-.43,0-1.21.16-1.52,1.22l-.22.73s-.01.05-.02.07c-.72,4.44-2.45,13.11-5.13,25.76-5.45,24.99-5.45,25.71-5.45,25.98,0,.93.57,1.49,1.52,1.49,2.29,0,2.63-1.16,2.63-1.84l-.05-.98c0-.26.11-1.03.61-3.02.41-1.64.84-3.11,1.26-4.36.42-1.24,1.58-3.52,3.46-6.79,4.04-7.02,6.31-8.49,7.49-8.49.24,0,.98,0,.98,2.23,0,.73-.05,1.37-.15,1.91l-3.23,18.07c-.06.3-.09.65-.09,1.02,0,.45.15.92.46,1.39.25.37.73.81,1.63.81.67,0,1.22-.2,1.65-.58.44-.4.66-.93.66-1.56l-.08-2.14c0-.93.51-3.99,1.51-9.05l.92-4.67c.48-2.36.72-4.23.72-5.57,0-1.41-.37-2.71-1.09-3.87-.78-1.25-1.97-1.88-3.55-1.88-3.03,0-6.09,2.72-9.29,8.29.37-1.72.77-3.62,1.21-5.68.82-3.88,1.42-6.75,1.82-8.64.4-1.88.79-3.74,1.17-5.57l1.06-5.11c.33-1.58.61-2.98.86-4.22.24-1.23.44-2.19.58-2.87.02-.09.02-.18,0-.27-.32-1.16-1.14-1.8-2.31-1.8h0Z"/>
        </g>
      </g>
      <g>
        <path class="oferSesh-3" d="M285.33,34.32c.67-.44,1.15-.75,1.63-1.06-.13-.03-.26-.06-.39-.09.32-4.52.64-9.04.96-13.48-1.05.54-1.8,1.66-2.22,3.04-.93,3.06-.57,6.18-.34,9.29.05.73.22,1.45.36,2.3Z"/>
        <path class="oferSesh-3" d="M315.29,57.79c4.96-.92,9.8-1.85,14.64-2.71,3.08-.55,3.27-.73,3.05-3.93,0-.04-.04-.08-.18-.37-6.17,1.34-12.41,1.61-18.71.35.44,2.43.85,4.71,1.21,6.66Z"/>
        <path class="oferSesh-3" d="M286.92,65.65c.81,1.91,1.4,2.1,3.44,1.69-1.09-3.66-2.18-7.32-3.27-10.98-2.35.68-2.78,1.23-2.17,3.55.52,1.96,1.21,3.88,2,5.74Z"/>
        <path class="oferSesh-3" d="M309.36,85.25c1.2-1.44,2.33-2.94,3.42-4.47.44-.62.31-1.17-.42-1.67-2.39-1.63-4.71-3.35-7.08-5.02-.71-.5-1.45-.94-2.18-1.4,1.65,4.11,1.65,8.12,0,12.35.67.08,1.13.27,1.45.14,1.26-.51,2.36-.14,3.52.34.35.14,1.05.02,1.28-.25Z"/>
        <path class="oferSesh-3" d="M308.13,92.92c1.19-1.75.45-4.31-1.04-5.23-.25,1.31-.36,2.73-.8,4.03-.42,1.24-1.34,2.41-3.23,1.96-.87-.21-1.79-.19-3.02-.31,1.26,1.09,2.21,2,3.25,2.77.31.23,1.07.28,1.34.07,1.24-1.02,2.61-1.99,3.49-3.29Z"/>
        <path class="oferSesh-3" d="M332.77,56.85c-1.24.23-2.51.34-3.76.56-3.2.55-6.39,1.13-9.59,1.7-.01.22-.03.43-.05.65,1.27.39,2.56,1.17,3.81,1.1,6.14-.33,12.27-.86,18.41-1.36,1.31-.11,2.18-.88,2.5-2.15.76-3.11,1.15-6.24.39-9.41-.42-1.77-.87-2.25-2.69-2.26-5.62-.02-11.24,0-16.85.11-1.52.03-3.06.38-4.53.77-1.63.44-2.15,1.32-2.21,3.02,2.58,0,5.16.12,7.73-.04,2.21-.13,4.39-.57,6.59-.86,1.72-.22,2.6.42,2.73,2.16.09,1.16.05,2.36-.11,3.51-.19,1.32-1.02,2.23-2.37,2.48Z"/>
        <path class="oferSesh-3" d="M286.11,74.42c.12.03.25.06.37.08,1.06-1.41,2.12-2.83,3.12-4.16-1.43-.57-2.77-1.1-4.23-1.68.24,1.89.49,3.82.73,5.76Z"/>
        <path class="oferSesh-3" d="M278.88,109.36c1.5,1.79,1.96,1.8,3.76,0-.73-1.01-1.44-1.94-2.09-2.91-.46-.69-.84-1.14-1.67-.39-.74.68-1.71,1.2-.81,2.38.24.32.54.6.8.91Z"/>
        <path class="oferSesh-3" d="M275.37,48.25c-.28-.43-1.07-.97-1.38-.85-.95.38-.54,1.24-.17,1.82,1.01,1.59,2.1,3.11,3.17,4.68.48-.28.83-.49,1.26-.74-1-1.73-1.88-3.37-2.88-4.92Z"/>
        <path class="oferSesh-3" d="M279.02,112.76c.74,2.08,2.96,2.3,5.03.12-.31-.47-.57-.87-.7-1.07-1.55.34-2.95.65-4.32.95Z"/>
        <path class="oferSesh-3" d="M285.89,111.5c1.74,1.57,4.76,1.78,6.54.46,1.02-.76,1.51-1.65.77-2.89-3.65,2.65-6.51,2.27-7.75-1.01-.8,1.31-.66,2.46.44,3.45Z"/>
        <path class="oferSesh-3" d="M301.5,104.53c1.81.03,3.63-1.46,4.18-3.46.33-1.18-.19-1.94-1.29-2.53-.78,2.6-2.43,3.93-5.13,3.88.21,1.34.87,2.09,2.24,2.11Z"/>
        <path class="oferSesh-3" d="M284.9,102.03c-.93.81-1.7,1.48-2.48,2.14-.3.26-.64.48-.98.73.81.97,1.46,1.76,2.11,2.55q1.79-1.6,1.35-5.42Z"/>
        <path class="oferSesh-3" d="M284.45,76.2c-1.14-2.92-1.05-5.93-.88-8.99.07-1.27-.2-2.57-.38-3.85-.23-1.69-.58-3.38-.75-5.08-.13-1.29-1.93-3.3-3.2-3.2-.5.04-1.12.47-1.41.9-.73,1.11-.24,2.19.43,3.15,1.78,2.55,2.26,5.37,1.9,8.42-.25,2.11-.52,4.25-.42,6.36.11,2.37.58,4.74,2.3,6.72.82-1.23,1.55-2.27,2.2-3.35.18-.3.33-.79.21-1.09Z"/>
        <path class="oferSesh-3" d="M287.99,91.12c-.55-.92-1.08-1.79-1.57-2.62-.85.48-1.62.92-2.4,1.36,1.04,1.21,1.75,1.44,3.97,1.26Z"/>
        <path class="oferSesh-3" d="M287.05,83.32c1.43-2.41,2.63-4.99,4.31-7.2,1.61-2.13.84-4.17.57-6.33-.51.62-.8,1.33-1.21,1.95-1.76,2.63-3.57,5.23-5.35,7.85-1.73,2.54-2.5,5.27-1.24,8.51.98-1.59,1.97-3.17,2.93-4.77Z"/>
        <path class="oferSesh-3" d="M285.93,39.22c-.08,4.97.18,9.95.31,15.18.84-.4,1.29-.62,1.73-.83,6.16-2.9,12.45-5.44,19.04-7.19,2.62-.69,4.62-.17,5.62,1.77.83,1.62,2,1.46,3.33,1.4.48-3.83,1.71-5.24,5.51-5.79,6.86-1,13.76-.62,20.65-.3,2.93.14,4.1,1.36,4.84,4.24.85,3.33.22,6.58-.41,9.82-.52,2.7-1.77,3.86-4.56,4.28-1.79.27-3.59.5-5.4.64-4.29.35-8.59.82-12.88.9-2.57.05-4.99-.83-6.2-3.44-1.43.06-2.19.62-2.13,2.15.05,1.24-.87,1.78-1.97,2.07-4.24,1.13-8.48,2.28-12.72,3.43-.35.1-.69.26-.87.33,4.28,2.66,8.64,5.19,12.79,8,8.26,5.6,15.33,12.38,19.76,21.49,2.68,5.5,5.09,11.13,7.6,16.71,1.77,3.91,4.11,7.37,7.78,9.75.86.56,1.81,1.17,2.79,1.32,5.92.92,11.37-.67,16.38-3.66,5.12-3.06,9.36-7.19,12.84-12.01,3.5-4.86,5.43-10.26,4.41-16.35-.53-3.17-1.25-6.31-2.08-9.41-1.57-5.87-3.14-11.75-3.65-17.82-.5-5.96-.68-11.95-1.06-17.93-.19-2.98-.32-5.99-.86-8.92-.83-4.53-3.61-6.75-8.36-7.14-2.63-.21-5.33.29-8,.58-5.99.65-11.97,1.4-17.97,2.03-6.18.65-12.36,1.22-18.55,1.8-7.11.66-14.22.59-21.34-.05-4.02-.36-8.04-.73-12.07-.91-3.12-.15-4.28.8-4.33,3.88Z"/>
        <path class="oferSesh-3" d="M292.7,101.28c.89-.77,1.62-1.39,2.12-1.82-1-1.07-1.94-2.06-2.97-3.16.29,1.67.55,3.25.85,4.98Z"/>
        <path class="oferSesh-3" d="M287.22,93.42c-.32,5.13-.15,10.14.6,15.16,1.63.1,3.06.12,4.03-1.25-1.52-3.77-1.61-7.72-1.82-11.64-.13-2.43.48-2.66-2.8-2.27Z"/>
        <path class="oferSesh-3" d="M300.63,100.19c1.84-.86,1.9-1.74.33-2.94-.07-.05-.14-.12-.21-.17-4.57-3.42-8.4-7.56-11.82-12.27-1.59,2.21-1.62,2.23-.96,3.13,3.29,4.46,6.88,8.64,11.25,12.09.33.26,1.04.34,1.41.17Z"/>
        <path class="oferSesh-3" d="M296.88,104.69c.24-.11.46-.5.5-.79.13-.87.17-1.76.25-2.7-.39-.27-.82-.56-1.15-.78-1.11,1.2-2.15,2.31-3.32,3.57.06.42.15,1.08.28,2.04,1.28-.49,2.38-.87,3.44-1.34Z"/>
        <path class="oferSesh-3" d="M324.66,33.25h0s0,0,0,0Z"/>
        <path class="oferSesh-3" d="M273.85,115.14c.48-.09.96-.2,1.12-.24.37-2.74.7-5.19,1.02-7.59-3.1.62-3.84,1.51-3.7,4.7.03.72.19,1.43.27,2.15.08.8.52,1.11,1.29.97Z"/>
        <path class="oferSesh-3" d="M331.63,32.57c.14,0,.27-.01.41-.03,5.59-.55,11.19-1.1,16.79-1.63.15-.01.22-.09.34-.12l-17.79,1.79c.08,0,.17,0,.25,0Z"/>
        <path class="oferSesh-3" d="M294.11,53.32c1.39,4.21,2.74,8.3,4.13,12.51.89-.25,1.77-.5,2.53-.72-1.39-4.35-2.73-8.55-4.1-12.84-.87.36-1.73.71-2.57,1.05Z"/>
        <path class="oferSesh-3" d="M292.69,84.65c1.55-.16,2.7-.28,3.65-.38.91-5.23,2.46-10.36-.49-15.37-.72.17-1.45.35-2.3.56.2.64.38,1.15.52,1.66.78,2.89.51,5.71-.34,8.55-.46,1.56-.68,3.19-1.05,4.96Z"/>
        <path class="oferSesh-3" d="M301.04,84.63c1.55-4.15,1.13-8.15-.04-12.2-.4-1.39-1.14-2.13-2.64-2.67,2.36,4.95,1.19,9.75-.07,14.62,1.06.1,1.91.17,2.75.25Z"/>
        <path class="oferSesh-3" d="M289.08,55.44c1.34,3.97,2.62,7.77,3.93,11.65,1.06-.24,1.97-.44,2.73-.61-1.1-4.24-2.16-8.35-3.24-12.53-1.09.48-2.16.94-3.42,1.49Z"/>
        <path class="oferSesh-3" d="M298.61,51.54c1.52,4.43,2.98,8.69,4.46,13.02.77-.22,1.63-.46,2.58-.73-1.17-4.59-2.32-9.04-3.48-13.58-1.28.46-2.46.89-3.56,1.29Z"/>
        <path class="oferSesh-3" d="M290.82,81.34c-1.42,1.88-1.42,1.98-.13,2.78.04-.87.08-1.71.13-2.78Z"/>
        <path class="oferSesh-3" d="M313.64,61.74c-.38-2.17-.65-4.1-1.08-5.99-.48-2.11-1.04-4.21-1.69-6.27-.28-.87-.9-1.64-2.05-1.31-1.69.48-3.37,1-4.96,1.47,1.51,4.59,2.96,9,4.47,13.59,1.67-.47,3.5-.98,5.31-1.49Z"/>
        <path class="oferSesh-3" d="M301.15,91.62c.25-.06.54.04.81.07,2.17.23,2.43.07,2.91-2.1.17-.77.23-1.57.4-2.75-4.25-.34-8.31-.66-12.38-.99-.14.27-.28.54-.43.81.87.72,1.82,1.36,2.58,2.18,1.67,1.78,3.35,3.42,6.11,2.78Z"/>
        <path class="oferSesh-3" d="M214.17,197.15c7.24,2.96,15.12-1.35,17.01-5.75-.37-.03-.73-.07-1.08-.07-4.72-.07-9.44-.08-14.15-.22-4.01-.12-7.15-1.82-8.6-5.72-.78-2.09-1.13-4.33-1.61-6.22-2.73,6.57,1.09,14.99,8.43,17.98Z"/>
        <path class="oferSesh-3" d="M320.45,191.07c-.17-1.93-.49-3.73-.43-5.52.09-2.49-1.27-3.83-3.24-4.83-11.13-5.61-22.45-5.56-33.95-1.21-1.81.68-2.66,1.77-2.64,3.73.02,1.86-.2,3.73-.31,5.6.96.09,1.58.04,2.12.22,1.79.59,3.27.05,4.67-1.07,5.91-4.76,12.56-5.41,19.64-3.42,3.68,1.04,6.78,3.19,9.89,5.32,1.21.83,2.51,1.43,4.27,1.18Z"/>
        <path class="oferSesh-3" d="M232.9,193.15c-3.27,4.76-7.97,7.18-13.76,7.15-7.15-.03-13.15-4.3-15.58-10.9-2.4-6.49-.47-13.73,4.83-18.44,1.13-1,2.05-2.24,3.31-3.65-6.15,2.75-11.64,10.19-10.52,19.38,1.02,8.37,7.83,14.85,16.78,15.77,7.69.79,16.51-4.34,18.74-10.96-1.78-.52-2.75.13-3.79,1.64Z"/>
        <path class="oferSesh-3" d="M267.84,198.07c4.58-.55,8.26-2.54,10.89-6.62h-23.93c2.49,4.36,8.2,7.21,13.04,6.62Z"/>
        <path class="oferSesh-3" d="M249.8,166.92c-.3-.08-.63-.02-.95-.02-6.71-.03-13.41-.06-20.12-.09-.71,0-1.42,0-2.22,0,.05.49.09.88.11,1.12,4.06,0,7.91,0,11.75,0,3.81,0,7.61.03,11.42,0,.32,0,.64-.36.96-.56-.32-.15-.62-.36-.95-.44Z"/>
        <path class="oferSesh-3" d="M280.77,192.48c-6.51,10.41-21.67,10.45-28.26.09-.65-1.02-1.32-1.37-2.42-1.06,1.54,5.16,8.35,11.08,17.03,11.05,7.01-.02,15.36-5.32,16.78-10.85-1.07.27-2.21-.69-3.12.77Z"/>
        <path class="oferSesh-3" d="M253.06,175.88h7.2v-8.89h-7.2v8.89Z"/>
        <path class="oferSesh-3" d="M250.58,173.83h-23.67v2.07h23.67v-2.07Z"/>
        <path class="oferSesh-3" d="M250.53,169.94h-23.69v2.15h23.69v-2.15Z"/>
        <path class="oferSesh-3" d="M224.37,164.61c5.53.16,11.06-.11,16.6-.16.71,0,1.04-.22,1.43-.89.97-1.68,2.14-3.24,3.28-4.81.23-.31.68-.46,1.3-.87-.19,2.66-1.78,4.4-2.57,6.48h6.11c1.07-2.26,1.95-4.52,4.2-5.87.04,2.17-1.15,3.93-1.99,5.91,2.08,0,4.03.04,5.97-.03.36-.01.82-.41,1.04-.75.84-1.29,1.55-2.65,2.41-3.92.26-.38.82-.56,1.24-.83.14.12.28.25.42.37-.61,1.69-1.22,3.38-1.84,5.12h6.21c.76-1.47,1.39-2.87,2.19-4.17.24-.39.92-.52,1.4-.76.14.56.51,1.17.39,1.66-.27,1.07-.79,2.09-1.25,3.23h18.87c-.87-1.36-1.38-2.79-2.38-3.59-1.75-1.4-3.7-2.66-5.75-3.54-9.32-3.99-19.07-5.98-29.23-5.88-5.29.05-10.24,1.26-14.73,4.12-1.76,1.12-3.44,2.39-5.29,3.33-1.59.81-3.32,1.48-5.07,1.77-2.13.35-4.34.29-6.51.31-3.6.04-7.2.01-11.2.01,1.07.74,1.89,1.53,2.87,1.93,3.81,1.53,7.88,1.72,11.89,1.83Z"/>
        <path class="oferSesh-3" d="M321.12,33.42c-.64-1.17-1.22-2.14-1.7-3.15-1.71-3.61-2.52-7.33-.65-11.12.98-1.98,2.15-3.88,3.37-5.73,1.78-2.68,4.31-4.4,7.45-5.11,3.17-.72,6.39-1.24,9.56-1.95,1.43-.32,2.75-.13,3.92.61,7.71,4.83,13.66,10.76,12.8,20.86-.06.74,0,1.5,0,2.32,2.37-.21,4.56-.41,6.9-.63-.12-2.4-.19-4.71-.37-7-.33-4.25-.75-8.47-2.1-12.57-1.26-3.83-3.75-6.26-7.72-6.74-3.35-.41-6.79-.65-10.15-.44-8.17.51-16.13,2.34-24,4.52-7.83,2.16-15.5,4.77-22.79,8.4-3.2,1.59-5.32,3.92-5.57,7.6-.22,3.15-.34,6.31-.51,9.53,10.56.33,20.93,1.73,31.57.59Z"/>
        <path class="oferSesh-3" d="M344.64,194.76c-6.66,7.48-18.39,7.4-24.96-.13-.92-1.06-1.82-1.82-3.53-1.68,4.07,6.55,9.8,9.8,17.3,9.54,6.61-.23,11.58-3.51,15.36-8.97-1.83-.52-2.99-.09-4.17,1.24Z"/>
        <path class="oferSesh-3" d="M388.35,167.08c.34,1.63.96,2.95,2.3,4.12,4.64,4.05,6.36,9.34,5.37,15.31-1.16,6.99-5.47,11.51-12.25,13.26-6.55,1.68-12.3-.19-16.84-5.27-.83-.93-1.6-1.37-2.88-1.06,2.39,5.24,10.52,10.62,19.78,8.75,8.69-1.76,15.35-10.03,15.29-18.89-.06-8.34-5.78-14.71-10.78-16.21Z"/>
        <path class="oferSesh-3" d="M276.82,118.5c1.07-1.1,1.22-2.38.48-3.79-.69,2.74-3.04,2.39-5.48,2.72.45.69.69,1.43,1.19,1.73,1.4.84,2.64.55,3.82-.66Z"/>
        <path class="oferSesh-3" d="M342.67,193.5c-.02-.17-.04-.35-.06-.52-6.83,0-13.67,0-20.5,0-.12,0-.23.07-.36.12,4.15,6.39,16.57,6.6,20.93.4Z"/>
        <path class="oferSesh-3" d="M384.91,193.3c-4.67.03-9.35.02-14.02.03-.47,0-.94.04-1.51.07,4.58,5.84,14.23,6.29,19.99.98,6.14-5.66,6.19-14.82,1.07-20.05.09.54.13.8.17,1.06.7,4.07,1.34,8.15.72,12.3-.57,3.83-2.59,5.58-6.42,5.61Z"/>
        <path class="oferSesh-3" d="M388.84,186.94c.4-6.9-1.2-13.48-3.13-20h-9.49v9.97c-.11.09-.23.18-.35.27-2.61.11-5.23.33-7.84.32-9.48-.05-18.96-.15-28.44-.28-2.32-.03-2.75-.56-2.75-2.87,0-2.43,0-4.85,0-7.33h-74.28c0,1.02,0,1.92,0,2.82,0,2.13,0,4.26.01,6.39,0,1.41-.73,1.85-2.07,1.85-6.99,0-13.97.08-20.96.05-4.17-.02-8.35-.1-12.51-.32-2.68-.14-2.67-.27-2.67-2.99,0-2.66,0-5.33,0-8.12-.27-.02-.71-.07-1.15-.08-2.08-.07-4.18-.04-6.25-.23-1.02-.09-1.64.16-2.27.96-2.28,2.88-4.82,5.64-5.67,9.33-1.44,6.27,1.5,12.32,9.44,12.48,5.39.1,10.79-.17,16.19-.18,13.84-.04,27.69-.02,41.53-.03h1.16c.22-2.3.47-4.37.59-6.44.16-2.77,1.79-4.29,4.18-5.28,4.66-1.93,9.49-2.95,14.52-3.26,7.38-.44,14.33,1.01,20.89,4.4,3.06,1.58,4.83,3.97,4.93,7.5.05,1.7.26,3.4.4,5.2,1.3-.06,2.56-.16,3.82-.17,10.43-.08,20.87-.17,31.3-.2,8.98-.03,17.96,0,26.95.04,2.54,0,3.78-1.13,3.93-3.8Z"/>
        <path class="oferSesh-3" d="M257.82,123.76c1.34.66,3.17.32,4.3-.77.88-.84,1.18-1.84.69-3.08-2.01,1.42-4.06,2.2-6.48,1.3-.41,1.56.55,2.08,1.49,2.55Z"/>
        <path class="oferSesh-3" d="M252.91,120.41c.21-.04.46-.42.49-.66.13-1.39.2-2.78.3-4.31-.97.18-1.89.26-2.73.56-.47.17-1.08.67-1.13,1.09-.15,1.19-.05,2.4-.05,3.83,1.12-.17,2.14-.29,3.13-.5Z"/>
        <path class="oferSesh-3" d="M230.18,129.46c5.34.96,10.72,1.13,16.12.56,7.77-.82,15.41-2.28,22.95-4.31,11.44-3.09,22.32-7.49,32.41-13.75,7.39-4.58,14.13-9.99,20.65-15.71,1.31-1.15,2.61-2.32,3.92-3.48-3.32-4.61-7.22-8.4-11.62-11.85-.82,2.76-2.04,5.09-4.47,6.6.88,1.91,1.03,3.8.38,5.75-.64,1.94-1.98,3.29-3.62,4.37,1.35,2.73.95,4.96-1.28,7.35-1.78,1.91-4.18,2.25-7.01,1.06-.65.34-1.23.7-1.84.97-.62.26-1.27.43-1.91.64.77,3.1.64,4.24-.91,5.58-2.66,2.31-5.61,2.15-8.67.69-1.34,1.81-3.06,2.71-5.37,2.25-.95,5.04-3.55,6.38-8.42,4.51-2.43,2.02-2.97,2.16-6.63,1.73-.78,1.83-2.05,3.14-4.08,3.62-1.99.47-3.7-.13-5.25-1.31-2.69,3.53-7.96,3.2-10.25-.55-.73-1.2-.73-2.41-.08-3.61.29-.53.7-1,1.15-1.63-10.05,3.05-20.32,5.21-28.29,12.6,1.5-.36,2.96-.8,4.4-1.3,2.52-.88,5.06-1.26,7.74-.77Z"/>
        <path class="oferSesh-3" d="M249.61,124.58c2.03.75,3.47.06,4.12-2.05-4.59.88-5.48.69-6.48-1.38-.6,1.41.24,2.64,2.37,3.43Z"/>
        <path class="oferSesh-3" d="M261.52,118.78c-.55-2.18-1.01-4.05-1.49-5.98-.39.13-1,.22-1.46.53-.48.32-1.16.86-1.14,1.29.06,1.78.35,3.54.57,5.5,1.4-.54,2.58-.99,3.53-1.35Z"/>
        <path class="oferSesh-3" d="M267.74,115.65c.4-.25.93-.67.96-1.06.12-1.24.05-2.5.05-3.75-3.2.55-3.79,1.77-2.52,5.35.51-.17,1.07-.26,1.51-.54Z"/>
        <path class="oferSesh-3" d="M268.82,119.89c1.17-.46,1.47-1.7,1-3.12-1.82.99-3.66,1.72-5.64.33-.24.42-.45.81-.8,1.45.8.67,1.47,1.65,2.32,1.84.97.21,2.16-.11,3.13-.5Z"/>
        <path class="oferSesh-3" d="M374.08,170.06h-23.31v1.72h23.31v-1.72Z"/>
        <path class="oferSesh-3" d="M374.31,167.05h-23.86c.04.53.07.92.11,1.4,1.24-.08,2.41-.21,3.57-.22,6.35-.03,12.7-.03,19.04-.01.89,0,1.42-.17,1.13-1.17Z"/>
        <path class="oferSesh-3" d="M384.93,164.44c.11-.12.22-.24.33-.36-2.07-3.33-3.96-6.79-6.26-9.95-2.98-4.08-7.59-5-12.27-5.5-6.93-.75-13.86-.45-20.79-.07-2.31.13-4.61.33-6.91.59-3.97.45-7.06,2.43-9.36,5.67-2.06,2.92-3.51,6.14-4.86,9.48h18.97c-.79-1.75-1.59-3.37-2.23-5.05-.17-.43.16-1.05.26-1.59.46.28,1.07.45,1.34.85,1.1,1.66,2.07,3.41,3.14,5.09.21.33.62.73.95.74,2.07.07,4.14.03,6.36.03-1.05-2.37-2.65-4.38-2.37-7.1.54.24,1.01.55,1.28.98,1.06,1.74,2.05,3.52,3.09,5.27.19.32.48.8.73.81,2.06.07,4.12.04,6.35.04-.3-.62-.52-1.01-.68-1.42-.59-1.47-1.22-2.92-1.68-4.42-.13-.44.25-1.04.39-1.57.43.31,1.04.52,1.27.94,1.13,2.1,2.15,4.26,3.23,6.45h4.63c-.72-2.02-1.42-3.92-2.04-5.85-.12-.36.06-.82.11-1.23.39.21.95.33,1.14.66,1.02,1.76,2.04,3.53,2.88,5.38.39.86.8,1.13,1.7,1.11,1.95-.05,3.9.01,5.85.02,1.82,0,3.65,0,5.47,0Z"/>
        <path class="oferSesh-3" d="M339.1,175.42h9.38v-8.34h-9.38v8.34Z"/>
        <path class="oferSesh-3" d="M246.47,144.93c7.33-.78,14.23-3.2,21.08-5.75,8.1-3.01,16.33-5.51,24.92-6.64,10.62-1.4,21.01-.11,31.18,2.93,6.91,2.06,13.93,3.18,21.08,3.67,6.08.42,11.73-.99,16.62-4.76,2.47-1.91,4.85-3.96,7.19-6.03,6.67-5.9,11.96-12.99,17.17-20.14,1.17-1.61,1.17-1.72-.24-3.54-1.67,4.68-4.62,8.4-8.05,11.82-5.06,5.05-10.7,9.16-17.81,10.72-2.49.55-5.18,1.12-7.62.71-6.82-1.12-10.95-5.83-13.85-11.74-1.88-3.82-3.54-7.75-5.39-11.58-1.67-3.46-3.47-6.85-5.15-10.16-5.31,4.62-10.24,9.23-15.52,13.43-8.25,6.55-17.42,11.61-27.23,15.44-10.64,4.16-21.64,6.95-32.92,8.66-6.75,1.03-13.53,1.36-20.3.06-2.5-.48-4.97-.91-7.49.06-1.94.75-4,1.17-5.96,1.86-2.21.78-4.67,1.34-5.16,4.47,3.16,1.56,6.29,3.49,9.67,4.7,7.72,2.75,15.76,2.66,23.8,1.81Z"/>
        <path class="oferSesh-3" d="M350.52,175.35h23.52v-1.58h-23.38c-.04.45-.08.96-.14,1.58Z"/>
        <path class="oferSesh-3" d="M210.77,158.24c4.67.06,9.34.1,14.01.16,2.86.04,5.39-.76,7.7-2.55,5.53-4.28,11.79-6.72,18.84-6.91,9.21-.26,18.2,1.07,26.83,4.26,2.77,1.02,5.12,1.13,7.96.1,8.03-2.9,16.44-4.06,24.95-4.35,5.99-.2,11.96.14,17.8,1.74.4.11,1.04-.15,1.4-.45,2.32-1.94,4.94-3.23,7.94-3.59,3.11-.37,6.22-.71,9.34-.85,7.2-.34,14.42-.72,21.6.35,4.45.66,8.58,2.06,11.5,5.76,2.54,3.22,4.56,6.76,5.78,10.71.4,1.29,1.22,1.77,2.53,1.45,1.75-.42,3.08-1.89,3.26-3.9.46-5.15.95-10.3,1.23-15.46.4-7.39.31-14.78-1.04-22.1-.9-4.88-2.51-9.5-4.87-14.13-5.56,9.88-12.63,18.09-21.05,25.26-6.48,5.52-13.75,8.66-22.29,8-4.95-.38-9.88-1.3-14.75-2.29-4.73-.96-9.33-2.53-14.06-3.47-8.02-1.58-16.12-1.75-24.23-.5-8.3,1.28-16.26,3.74-24.08,6.7-10.86,4.11-21.99,6.5-33.68,5.64-6.04-.44-11.83-1.68-17.1-4.84-1.41-.85-2.88-1.61-4.4-2.46-2.21,5.78-2.52,11.61-2.18,17.54.43.08.74.18,1.05.18Z"/>
        <path class="oferSesh-3" d="M285.55,156.23c3.11,1.84,5.91,3.89,5.93,8.17.67,0,1.16,0,1.66,0,8.66,0,17.32-.08,25.98.03,2,.03,3.02-.34,3.81-2.42,1.25-3.31,3.1-6.39,4.68-9.54-8.07-2.52-34.8-.2-42.05,3.76Z"/>
        <path class="oferSesh-1" d="M392.62,166.65c-.34-.26-.68-.52-1.03-.78,2.69-2.99,2.78-2.98,3.17-6.49,1.36-12.1,2.17-24.23.31-36.35-1.09-7.1-3.82-13.59-8.16-19.33-.76-1-.89-1.76-.57-2.91.37-1.34.72-2.8.56-4.14-.48-3.95-.86-7.96-1.91-11.77-2.97-10.86-4.71-21.86-4.84-33.13-.05-4.07-.34-8.16-.87-12.2-.63-4.77-3.17-8.16-8.12-9.23-2.14-.46-4.31-.75-6.55-1.13.01-.24.01-.64.05-1.04.53-5.88.04-11.69-1.45-17.4-1.06-4.07-2.84-7.8-7.21-9.22-2.47-.81-5.11-1.53-7.67-1.52-4.83.04-9.71.34-14.48,1.06-12.33,1.87-24.24,5.32-35.69,10.29-2.99,1.3-5.96,2.7-8.27,5.13-.22.23-.62.36-.96.4-3.51.45-5.54,2.57-6.33,5.86-1.09,4.57-.56,9.09.74,13.56.14.49.2,1.05.13,1.55-.78,5.55-.08,11.03.77,16.49.13.8.01,1.16-.63,1.31-.7-.65-1.25-1.39-1.99-1.76-.93-.48-1.37-1.19-1.83-2.05-.95-1.8-1.9-3.62-3.04-5.3-1.27-1.86-3.5-1.89-4.69-.22-.77,1.09-.72,2.28-.09,3.34.99,1.67,2.16,3.23,3.22,4.85.22.34.55.85.44,1.13-.73,1.79-.16,3.3.86,4.72,1.55,2.17,1.83,4.58,1.45,7.14-.16,1.08-.34,2.15-.42,3.24-.32,4.3.45,8.31,3.32,11.72.24.28.47.76.4,1.07-.68,2.71.73,5.04,1.49,7.41.36,1.11,1.86,1.86,2.98,2.89-.17,1.26-.48,2.91-.57,4.57-.05,1.01-.29,1.57-1.29,2.02-1.13.51-2.08,1.42-3.13,2.13-1.36.91-2.73,1.79-4.11,2.66-.14.09-.35.05-.53.06-2.81.17-5.14,1.08-6.07,3.89-1.05,0-2-.1-2.92.02-1.22.16-2.57.43-3.03,1.74-.42,1.19-1.27,1.47-2.23,1.77-1.02-1.59-1.45-1.77-3.55-1.36-1.67.32-2.81,1.23-2.94,2.75-1.54-.13-2.91-.34-4.28-.34-1.5,0-2.73.59-3.31,2.13-.09.25-.38.51-.63.59-1.55.48-3.1.99-4.69,1.33-6.45,1.38-12.78,3.07-18.62,6.25-5.23,2.85-9.78,6.48-12.66,11.81-3.89,7.2-4.76,14.94-3.8,22.97.3,2.52.82,4.88,3.79,5.92-.71.37-1.19.6-1.65.86-7.08,4.12-11,10.29-11.1,18.45-.1,7.76,3.47,13.81,10.15,17.82,10.53,6.31,24.92,1.82,30.24-9.36.43-.9.91-1.18,1.84-1.15,1.72.07,3.45.08,5.17,0,.92-.04,1.38.26,1.73,1.11,1.27,3.03,3.29,5.52,5.8,7.62,10.38,8.66,27.26,4.67,32.97-7.79.24-.53.46-1.2.9-1.48,1.78-1.15,3.54-2.46,5.5-3.19,6.43-2.41,12.58-1.43,18.35,2.13.74.46,1.42,1.27,1.77,2.07,3.01,6.73,7.98,11.11,15.25,12.49,9.21,1.74,17.78-2.14,22.79-10.06.45-.71.92-.98,1.74-.96,1.77.05,3.55.13,5.31-.02,2.04-.17,3.65.2,4.37,2.36.07.2.26.37.4.55,6,7.79,14.78,10.5,24.26,7.18,7.89-2.76,12.76-8.45,14.08-16.7,1.32-8.25-1.79-14.93-8.37-20.02ZM290.07,23.3c.25-3.68,2.37-6.01,5.57-7.6,7.3-3.63,14.96-6.23,22.79-8.4,7.88-2.18,15.83-4.01,24-4.52,3.37-.21,6.8.03,10.15.44,3.96.49,6.46,2.91,7.72,6.74,1.34,4.1,1.76,8.32,2.1,12.57.18,2.29.25,4.6.37,7-2.34.21-4.53.41-6.9.63,0-.82-.05-1.58,0-2.32.86-10.1-5.1-16.03-12.8-20.86-1.18-.74-2.49-.93-3.92-.61-3.17.71-6.39,1.24-9.56,1.95-3.13.71-5.67,2.42-7.45,5.11-1.22,1.85-2.39,3.75-3.37,5.73-1.87,3.79-1.06,7.51.65,11.12.48,1.02,1.07,1.98,1.7,3.15-10.63,1.14-21.01-.26-31.57-.59.17-3.22.29-6.38.51-9.53ZM353.46,30.35c-.39.04-.78.08-.94.1h0s-3.35.33-3.35.33c-.13.03-.19.11-.34.12-5.6.53-11.19,1.08-16.79,1.63-.14.01-.27.02-.41.03-.08,0-.17,0-.25,0l-6.72.68s0,0,0,0h-.13s-.01-.01-.01-.01c-.63.02-1.11-.33-1.5-1.09-1.3-2.59-2.79-5.14-2.78-8.14,0-1.23.17-2.58.68-3.68.89-1.92,2.04-3.73,3.19-5.51,1.69-2.6,4.37-3.73,7.24-4.45,2.41-.6,4.85-1.11,7.27-1.65,1.34-.3,2.64-.2,3.74.69,2.36,1.9,4.81,3.7,7.01,5.77,4.42,4.15,4.9,9.46,4.07,15.17ZM290.26,35.34c4.03.19,8.05.55,12.07.91,7.11.63,14.23.71,21.34.05,6.18-.58,12.37-1.15,18.55-1.8,5.99-.63,11.98-1.38,17.97-2.03,2.66-.29,5.36-.79,8-.58,4.75.38,7.53,2.61,8.36,7.14.54,2.93.67,5.94.86,8.92.39,5.97.56,11.96,1.06,17.93.51,6.07,2.08,11.95,3.65,17.82.83,3.1,1.55,6.25,2.08,9.41,1.02,6.08-.91,11.49-4.41,16.35-3.48,4.82-7.72,8.95-12.84,12.01-5.01,2.99-10.46,4.59-16.38,3.66-.98-.15-1.93-.76-2.79-1.32-3.67-2.38-6.01-5.83-7.78-9.75-2.52-5.58-4.93-11.21-7.6-16.71-4.43-9.11-11.5-15.9-19.76-21.49-4.15-2.81-8.51-5.33-12.79-8,.18-.07.52-.23.87-.33,4.24-1.15,8.48-2.3,12.72-3.43,1.1-.29,2.02-.83,1.97-2.07-.06-1.53.69-2.09,2.13-2.15,1.21,2.61,3.63,3.49,6.2,3.44,4.3-.08,8.59-.54,12.88-.9,1.8-.15,3.61-.37,5.4-.64,2.78-.42,4.03-1.58,4.56-4.28.63-3.25,1.27-6.49.41-9.82-.74-2.88-1.91-4.11-4.84-4.24-6.88-.32-13.79-.7-20.65.3-3.8.55-5.04,1.96-5.51,5.79-1.33.06-2.5.22-3.33-1.4-.99-1.93-2.99-2.46-5.62-1.77-6.59,1.75-12.88,4.3-19.04,7.19-.45.21-.89.43-1.73.83-.12-5.23-.39-10.21-.31-15.18.05-3.08,1.21-4.03,4.33-3.88ZM296.48,100.42c.33.22.76.52,1.15.78-.08.93-.12,1.82-.25,2.7-.04.29-.26.69-.5.79-1.06.47-2.16.85-3.44,1.34-.13-.96-.23-1.62-.28-2.04,1.17-1.26,2.21-2.37,3.32-3.57ZM292.7,101.28c-.3-1.74-.57-3.31-.85-4.98,1.03,1.1,1.97,2.09,2.97,3.16-.5.43-1.23,1.06-2.12,1.82ZM287.97,87.94c-.67-.9-.64-.93.96-3.13,3.42,4.71,7.25,8.86,11.82,12.27.07.05.14.12.21.17,1.58,1.2,1.51,2.08-.33,2.94-.37.17-1.08.09-1.41-.17-4.37-3.44-7.97-7.63-11.25-12.09ZM291.84,107.33c-.97,1.37-2.4,1.35-4.03,1.25-.75-5.02-.92-10.03-.6-15.16,3.28-.39,2.67-.16,2.8,2.27.22,3.92.3,7.87,1.82,11.64ZM290.82,81.34c-.05,1.08-.09,1.92-.13,2.78-1.29-.81-1.29-.9.13-2.78ZM305.64,63.83c-.95.27-1.81.51-2.58.73-1.48-4.33-2.94-8.59-4.46-13.02,1.1-.4,2.28-.82,3.56-1.29,1.16,4.54,2.3,8.99,3.48,13.58ZM303.86,49.63c1.58-.47,3.26-.99,4.96-1.47,1.15-.33,1.78.45,2.05,1.31.66,2.06,1.22,4.16,1.69,6.27.43,1.89.7,3.82,1.08,5.99-1.8.5-3.64,1.02-5.31,1.49-1.51-4.58-2.96-9-4.47-13.59ZM300.78,65.11c-.76.22-1.65.47-2.53.72-1.39-4.21-2.74-8.3-4.13-12.51.84-.34,1.7-.7,2.57-1.05,1.37,4.29,2.71,8.5,4.1,12.84ZM298.36,69.77c1.49.54,2.23,1.28,2.64,2.67,1.18,4.05,1.59,8.05.04,12.2-.84-.08-1.69-.15-2.75-.25,1.26-4.86,2.43-9.67.07-14.62ZM294.07,71.14c-.14-.52-.32-1.02-.52-1.66.85-.21,1.58-.38,2.3-.56,2.94,5.01,1.4,10.14.49,15.37-.95.1-2.1.22-3.65.38.37-1.77.59-3.4,1.05-4.96.84-2.84,1.11-5.67.34-8.55ZM295.74,66.48c-.76.17-1.66.37-2.73.61-1.31-3.88-2.59-7.68-3.93-11.65,1.26-.55,2.33-1.02,3.42-1.49,1.08,4.18,2.14,8.29,3.24,12.53ZM292.88,85.86c4.07.32,8.13.65,12.38.99-.17,1.18-.22,1.98-.4,2.75-.48,2.16-.74,2.33-2.91,2.1-.27-.03-.56-.13-.81-.07-2.76.65-4.44-1-6.11-2.78-.77-.82-1.72-1.46-2.58-2.18.14-.27.28-.54.43-.81ZM304.4,98.53c1.1.59,1.62,1.35,1.29,2.53-.55,2-2.37,3.49-4.18,3.46-1.37-.02-2.02-.78-2.24-2.11,2.7.05,4.35-1.28,5.13-3.88ZM304.64,96.21c-.27.22-1.03.16-1.34-.07-1.05-.77-2-1.68-3.25-2.77,1.23.12,2.15.1,3.02.31,1.89.45,2.81-.72,3.23-1.96.44-1.3.55-2.72.8-4.03,1.5.92,2.23,3.48,1.04,5.23-.88,1.29-2.25,2.27-3.49,3.29ZM308.08,85.5c-1.16-.48-2.26-.85-3.52-.34-.32.13-.78-.06-1.45-.14,1.66-4.23,1.65-8.23,0-12.35.73.47,1.48.91,2.18,1.4,2.36,1.67,4.69,3.39,7.08,5.02.73.5.86,1.05.42,1.67-1.09,1.53-2.22,3.03-3.42,4.47-.22.27-.93.4-1.28.25ZM332.52,48.69c-2.2.28-4.39.73-6.59.86-2.57.15-5.16.04-7.73.04.06-1.71.58-2.59,2.21-3.02,1.48-.4,3.02-.74,4.53-.77,5.62-.12,11.23-.14,16.85-.11,1.81,0,2.27.48,2.69,2.26.75,3.17.37,6.3-.39,9.41-.31,1.28-1.18,2.05-2.5,2.15-6.13.49-12.26,1.03-18.41,1.36-1.25.07-2.54-.71-3.81-1.1.02-.22.03-.43.05-.65,3.2-.57,6.39-1.15,9.59-1.7,1.25-.22,2.52-.32,3.76-.56,1.35-.25,2.18-1.16,2.37-2.48.16-1.15.2-2.35.11-3.51-.13-1.74-1.01-2.38-2.73-2.16ZM332.79,50.78c.15.29.18.33.18.37.22,3.19.04,3.38-3.05,3.93-4.85.86-9.68,1.79-14.64,2.71-.35-1.95-.77-4.24-1.21-6.66,6.3,1.26,12.54.99,18.71-.35ZM285.32,22.73c.42-1.38,1.16-2.5,2.22-3.04-.32,4.44-.64,8.96-.96,13.48.13.03.26.06.39.09-.48.31-.96.62-1.63,1.06-.14-.85-.31-1.58-.36-2.3-.23-3.11-.58-6.22.34-9.29ZM287.09,56.36c1.09,3.66,2.18,7.33,3.27,10.98-2.03.4-2.62.21-3.44-1.69-.79-1.86-1.49-3.79-2-5.74-.61-2.31-.17-2.87,2.17-3.55ZM289.61,70.35c-1,1.33-2.06,2.75-3.12,4.16-.12-.03-.25-.06-.37-.08-.25-1.94-.49-3.87-.73-5.76,1.46.58,2.79,1.11,4.23,1.68ZM273.82,49.23c-.37-.59-.78-1.44.17-1.82.31-.13,1.11.42,1.38.85,1,1.55,1.88,3.18,2.88,4.92-.43.26-.78.46-1.26.74-1.07-1.57-2.17-3.1-3.17-4.68ZM282.04,80.63c-1.72-1.99-2.18-4.35-2.3-6.72-.1-2.11.17-4.25.42-6.36.36-3.05-.13-5.86-1.9-8.42-.67-.97-1.16-2.04-.43-3.15.28-.43.91-.86,1.41-.9,1.28-.1,3.07,1.91,3.2,3.2.17,1.7.52,3.38.75,5.08.17,1.28.45,2.58.38,3.85-.17,3.05-.26,6.07.88,8.99.12.3-.03.79-.21,1.09-.66,1.08-1.39,2.12-2.2,3.35ZM285.37,79.58c1.78-2.62,3.59-5.22,5.35-7.85.42-.62.7-1.33,1.21-1.95.27,2.16,1.05,4.19-.57,6.33-1.68,2.22-2.88,4.8-4.31,7.2-.95,1.6-1.95,3.18-2.93,4.77-1.26-3.24-.49-5.96,1.24-8.51ZM284.02,89.86c.77-.44,1.55-.88,2.4-1.36.5.83,1.02,1.7,1.57,2.62-2.22.18-2.93-.05-3.97-1.26ZM293.2,109.07c.73,1.24.24,2.14-.77,2.89-1.78,1.32-4.8,1.11-6.54-.46-1.1-.99-1.24-2.14-.44-3.45,1.24,3.28,4.1,3.66,7.75,1.01ZM282.42,104.17c.78-.66,1.55-1.34,2.48-2.14q.44,3.82-1.35,5.42c-.65-.79-1.31-1.58-2.11-2.55.34-.25.67-.48.98-.73ZM284.05,112.88c-2.06,2.17-4.29,1.96-5.03-.12,1.37-.3,2.77-.61,4.32-.95.13.2.4.6.7,1.07ZM278.88,106.06c.83-.75,1.21-.3,1.67.39.65.97,1.36,1.9,2.09,2.91-1.8,1.8-2.26,1.79-3.76,0-.26-.31-.56-.59-.8-.91-.9-1.19.06-1.71.81-2.38ZM275.99,107.32c-.32,2.4-.65,4.85-1.02,7.59-.16.03-.64.15-1.12.24-.77.14-1.21-.17-1.29-.97-.08-.72-.23-1.43-.27-2.15-.14-3.19.59-4.08,3.7-4.7ZM277.3,114.71c.75,1.4.59,2.69-.48,3.79-1.18,1.21-2.42,1.5-3.82.66-.5-.3-.73-1.04-1.19-1.73,2.44-.32,4.79.02,5.48-2.72ZM268.75,110.84c0,1.25.08,2.51-.05,3.75-.04.39-.56.81-.96,1.06-.45.27-1,.37-1.51.54-1.27-3.58-.68-4.8,2.52-5.35ZM264.18,117.11c1.98,1.39,3.83.65,5.64-.33.47,1.42.17,2.66-1,3.12-.98.39-2.16.71-3.13.5-.85-.19-1.52-1.17-2.32-1.84.35-.63.57-1.02.8-1.45ZM258.57,113.34c.46-.31,1.07-.4,1.46-.53.48,1.93.95,3.79,1.49,5.98-.94.36-2.12.81-3.53,1.35-.23-1.96-.51-3.73-.57-5.5-.01-.42.67-.97,1.14-1.29ZM256.33,121.21c2.42.9,4.47.12,6.48-1.3.49,1.24.19,2.24-.69,3.08-1.13,1.09-2.95,1.43-4.3.77-.94-.46-1.91-.99-1.49-2.55ZM249.83,117.07c.05-.42.67-.92,1.13-1.09.84-.3,1.76-.37,2.73-.56-.1,1.53-.17,2.93-.3,4.31-.02.24-.28.62-.49.66-1,.21-2.01.33-3.13.5,0-1.43-.1-2.65.05-3.83ZM247.25,121.15c1,2.06,1.9,2.26,6.48,1.38-.65,2.12-2.09,2.81-4.12,2.05-2.12-.79-2.97-2.02-2.37-3.43ZM246.33,118.94c-.45.63-.87,1.1-1.15,1.63-.65,1.2-.65,2.42.08,3.61,2.28,3.75,7.56,4.08,10.25.55,1.55,1.18,3.26,1.78,5.25,1.31,2.03-.48,3.29-1.79,4.08-3.62,3.65.43,4.2.28,6.63-1.73,4.87,1.87,7.47.53,8.42-4.51,2.31.46,4.03-.44,5.37-2.25,3.07,1.45,6.01,1.62,8.67-.69,1.55-1.35,1.68-2.49.91-5.58.64-.21,1.3-.38,1.91-.64.62-.26,1.2-.62,1.84-.97,2.83,1.2,5.23.85,7.01-1.06,2.23-2.38,2.63-4.61,1.28-7.35,1.64-1.08,2.98-2.43,3.62-4.37.65-1.95.5-3.83-.38-5.75,2.43-1.51,3.65-3.84,4.47-6.6,4.4,3.45,8.31,7.24,11.62,11.85-1.3,1.16-2.6,2.32-3.92,3.48-6.52,5.72-13.27,11.13-20.65,15.71-10.1,6.26-20.98,10.67-32.41,13.75-7.53,2.03-15.18,3.49-22.95,4.31-5.4.57-10.78.4-16.12-.56-2.68-.48-5.22-.1-7.74.77-1.44.5-2.9.94-4.4,1.3,7.97-7.38,18.24-9.54,28.29-12.6ZM218.16,133.95c1.96-.69,4.02-1.11,5.96-1.86,2.53-.97,5-.54,7.49-.06,6.77,1.3,13.55.97,20.3-.06,11.28-1.71,22.28-4.5,32.92-8.66,9.82-3.84,18.98-8.89,27.23-15.44,5.28-4.19,10.21-8.81,15.52-13.43,1.68,3.31,3.48,6.7,5.15,10.16,1.85,3.83,3.52,7.76,5.39,11.58,2.9,5.91,7.03,10.61,13.85,11.74,2.44.4,5.14-.17,7.62-.71,7.11-1.56,12.76-5.67,17.81-10.72,3.42-3.42,6.38-7.14,8.05-11.82,1.41,1.82,1.42,1.92.24,3.54-5.21,7.15-10.5,14.24-17.17,20.14-2.34,2.07-4.71,4.12-7.19,6.03-4.89,3.77-10.54,5.18-16.62,4.76-7.14-.49-14.17-1.61-21.08-3.67-10.17-3.04-20.56-4.33-31.18-2.93-8.6,1.14-16.82,3.63-24.92,6.64-6.85,2.55-13.75,4.98-21.08,5.75-8.04.85-16.08.94-23.8-1.81-3.38-1.21-6.51-3.13-9.67-4.7.49-3.14,2.95-3.7,5.16-4.47ZM211.9,140.51c1.52.84,2.98,1.61,4.4,2.46,5.27,3.16,11.06,4.4,17.1,4.84,11.69.86,22.82-1.53,33.68-5.64,7.82-2.96,15.78-5.43,24.08-6.7,8.11-1.25,16.21-1.08,24.23.5,4.73.93,9.33,2.5,14.06,3.47,4.87.99,9.8,1.91,14.75,2.29,8.53.66,15.8-2.49,22.29-8,8.41-7.16,15.49-15.37,21.05-25.26,2.36,4.62,3.98,9.25,4.87,14.13,1.35,7.32,1.44,14.71,1.04,22.1-.28,5.16-.76,10.31-1.23,15.46-.18,2.01-1.51,3.49-3.26,3.9-1.31.31-2.13-.16-2.53-1.45-1.22-3.95-3.24-7.48-5.78-10.71-2.92-3.7-7.06-5.1-11.5-5.76-7.18-1.07-14.4-.68-21.6-.35-3.12.15-6.24.48-9.34.85-3,.36-5.62,1.65-7.94,3.59-.36.3-1,.56-1.4.45-5.84-1.59-11.81-1.93-17.8-1.74-8.51.28-16.92,1.45-24.95,4.35-2.84,1.03-5.19.92-7.96-.1-8.63-3.19-17.62-4.52-26.83-4.26-7.05.2-13.31,2.64-18.84,6.91-2.31,1.79-4.84,2.58-7.7,2.55-4.67-.06-9.34-.1-14.01-.16-.31,0-.62-.1-1.05-.18-.33-5.94-.03-11.77,2.18-17.54ZM350.77,171.78v-1.72h23.31v1.72h-23.31ZM374.03,173.77v1.58h-23.52c.06-.62.1-1.13.14-1.58h23.38ZM373.18,168.22c-6.35-.02-12.7-.01-19.04.01-1.16,0-2.32.14-3.57.22-.04-.49-.07-.87-.11-1.4h23.86c.28,1.01-.24,1.17-1.13,1.17ZM373.61,164.42c-.89.02-1.31-.25-1.7-1.11-.84-1.85-1.85-3.62-2.88-5.38-.19-.33-.75-.44-1.14-.66-.04.41-.23.87-.11,1.23.63,1.92,1.33,3.82,2.04,5.85h-4.63c-1.09-2.19-2.11-4.35-3.23-6.45-.22-.42-.83-.63-1.27-.94-.15.53-.53,1.13-.39,1.57.46,1.51,1.1,2.96,1.68,4.42.16.41.38.8.68,1.42-2.24,0-4.3.03-6.35-.04-.26,0-.55-.49-.73-.81-1.04-1.75-2.03-3.53-3.09-5.27-.26-.43-.74-.74-1.28-.98-.28,2.71,1.32,4.72,2.37,7.1-2.22,0-4.3.03-6.36-.03-.33-.01-.75-.41-.95-.74-1.07-1.68-2.04-3.43-3.14-5.09-.27-.4-.88-.58-1.34-.85-.1.53-.43,1.15-.26,1.59.64,1.68,1.44,3.3,2.23,5.05h-18.97c1.35-3.34,2.8-6.56,4.86-9.48,2.29-3.24,5.39-5.21,9.36-5.67,2.29-.26,4.6-.46,6.91-.59,6.93-.38,13.87-.67,20.79.07,4.69.5,9.3,1.43,12.27,5.5,2.31,3.16,4.19,6.62,6.26,9.95-.11.12-.22.24-.33.36-1.82,0-3.65,0-5.47,0-1.95,0-3.9-.07-5.85-.02ZM348.48,167.08v8.34h-9.38v-8.34h9.38ZM322.92,162c-.79,2.08-1.81,2.45-3.81,2.42-8.66-.11-17.32-.04-25.98-.03-.49,0-.99,0-1.66,0-.02-4.27-2.82-6.33-5.93-8.17,7.26-3.97,33.98-6.28,42.05-3.76-1.58,3.15-3.44,6.23-4.68,9.54ZM209.61,160.85c4,0,7.6.03,11.2-.01,2.18-.03,4.38.04,6.51-.31,1.74-.29,3.48-.96,5.07-1.77,1.85-.94,3.53-2.21,5.29-3.33,4.49-2.86,9.44-4.06,14.73-4.12,10.16-.1,19.91,1.89,29.23,5.88,2.05.88,4,2.14,5.75,3.54,1.01.8,1.51,2.23,2.38,3.59h-18.87c.46-1.14.98-2.16,1.25-3.23.12-.49-.24-1.11-.39-1.66-.48.25-1.16.37-1.4.76-.8,1.3-1.44,2.7-2.19,4.17h-6.21c.63-1.74,1.23-3.43,1.84-5.12-.14-.12-.28-.25-.42-.37-.42.27-.98.45-1.24.83-.86,1.27-1.57,2.64-2.41,3.92-.22.34-.68.73-1.04.75-1.94.07-3.89.03-5.97.03.85-1.98,2.03-3.74,1.99-5.91-2.25,1.35-3.13,3.61-4.2,5.87h-6.11c.79-2.08,2.38-3.82,2.57-6.48-.63.41-1.08.56-1.3.87-1.14,1.57-2.31,3.14-3.28,4.81-.39.67-.72.88-1.43.89-5.53.05-11.07.32-16.6.16-4.01-.11-8.09-.3-11.89-1.83-.98-.39-1.79-1.19-2.87-1.93ZM260.26,166.99v8.89h-7.2v-8.89h7.2ZM226.91,173.83h23.67v2.07h-23.67v-2.07ZM226.85,172.09v-2.15h23.69v2.15h-23.69ZM249.8,167.93c-3.81.03-7.61,0-11.42,0-3.85,0-7.69,0-11.75,0-.02-.24-.06-.62-.11-1.12.8,0,1.51,0,2.22,0,6.71.03,13.41.06,20.12.09.32,0,.65-.06.95.02.33.08.64.29.95.44-.32.2-.64.56-.96.56ZM217.95,202.47c-8.94-.92-15.75-7.4-16.78-15.77-1.12-9.19,4.36-16.63,10.52-19.38-1.27,1.41-2.19,2.65-3.31,3.65-5.3,4.7-7.23,11.94-4.83,18.44,2.44,6.6,8.43,10.87,15.58,10.9,5.79.02,10.49-2.4,13.76-7.15,1.04-1.51,2.01-2.16,3.79-1.64-2.22,6.61-11.05,11.75-18.74,10.96ZM215.95,191.1c4.71.14,9.43.15,14.15.22.35,0,.71.05,1.08.07-1.89,4.4-9.77,8.71-17.01,5.75-7.34-3-11.16-11.41-8.43-17.98.47,1.89.83,4.13,1.61,6.22,1.45,3.9,4.59,5.6,8.6,5.72ZM267.11,202.56c-8.68.03-15.49-5.88-17.03-11.05,1.1-.32,1.77.03,2.42,1.06,6.59,10.36,21.75,10.32,28.26-.09.91-1.46,2.06-.5,3.12-.77-1.42,5.53-9.77,10.82-16.78,10.85ZM254.81,191.45h23.93c-2.63,4.08-6.32,6.07-10.89,6.62-4.84.58-10.55-2.26-13.04-6.62ZM306.3,184.57c-7.08-1.99-13.72-1.34-19.64,3.42-1.39,1.12-2.87,1.66-4.67,1.07-.54-.18-1.16-.13-2.12-.22.11-1.88.33-3.74.31-5.6-.02-1.96.83-3.04,2.64-3.73,11.5-4.35,22.82-4.39,33.95,1.21,1.97.99,3.33,2.34,3.24,4.83-.06,1.79.27,3.59.43,5.52-1.76.25-3.05-.34-4.27-1.18-3.1-2.13-6.2-4.28-9.89-5.32ZM333.45,202.49c-7.5.26-13.23-2.99-17.3-9.54,1.72-.14,2.61.62,3.53,1.68,6.57,7.53,18.3,7.61,24.96.13,1.18-1.33,2.34-1.76,4.17-1.24-3.78,5.46-8.75,8.74-15.36,8.97ZM321.74,193.1c.13-.04.24-.12.36-.12,6.83,0,13.67,0,20.5,0,.02.17.04.35.06.52-4.35,6.2-16.77,5.99-20.93-.4ZM357.96,190.71c-10.43.03-20.87.12-31.3.2-1.26,0-2.52.11-3.82.17-.14-1.8-.35-3.49-.4-5.2-.11-3.54-1.87-5.92-4.93-7.5-6.56-3.39-13.51-4.85-20.89-4.4-5.03.3-9.86,1.33-14.52,3.26-2.4.99-4.02,2.51-4.18,5.28-.12,2.07-.38,4.13-.59,6.44h-1.16c-13.84,0-27.69,0-41.53.03-5.4.01-10.8.29-16.19.18-7.94-.15-10.88-6.2-9.44-12.48.85-3.7,3.4-6.45,5.67-9.33.64-.81,1.25-1.05,2.27-.96,2.07.18,4.17.16,6.25.23.44.01.88.06,1.15.08,0,2.79,0,5.45,0,8.12,0,2.72,0,2.85,2.67,2.99,4.17.22,8.34.3,12.51.32,6.99.03,13.97-.06,20.96-.05,1.34,0,2.07-.44,2.07-1.85-.01-2.13,0-4.26-.01-6.39,0-.9,0-1.81,0-2.82h74.28c0,2.48,0,4.9,0,7.33,0,2.31.42,2.83,2.75,2.87,9.48.13,18.96.24,28.44.28,2.61.01,5.23-.21,7.84-.32.12-.09.23-.18.35-.27v-9.97h9.49c1.94,6.53,3.53,13.11,3.13,20-.15,2.67-1.4,3.81-3.93,3.8-8.98-.03-17.96-.07-26.95-.04ZM390.6,175.39c-.04-.26-.09-.53-.17-1.06,5.12,5.24,5.07,14.39-1.07,20.05-5.76,5.31-15.4,4.87-19.99-.98.57-.03,1.04-.07,1.51-.07,4.67-.01,9.35,0,14.02-.03,3.83-.02,5.85-1.78,6.42-5.61.62-4.15-.03-8.23-.72-12.3ZM383.85,202.17c-9.26,1.88-17.39-3.51-19.78-8.75,1.28-.31,2.05.13,2.88,1.06,4.54,5.08,10.29,6.96,16.84,5.27,6.78-1.74,11.09-6.27,12.25-13.26.99-5.97-.74-11.26-5.37-15.31-1.34-1.17-1.97-2.49-2.3-4.12,5,1.5,10.72,7.87,10.78,16.21.06,8.85-6.6,17.13-15.29,18.89Z"/>
        <path class="oferSesh-1" d="M350.27,30.1c-.02-1.59.16-3.19,0-4.76-.43-4.16-3.11-6.9-6.25-9.65.12,1.11.27,1.92.27,2.73.02,2.01-1.1,3.86-2.61,4.4-1,.36-2.16.47-2.7-.49-.36-.64-.06-1.66,0-2.51.02-.24.25-.46.55-.99-1.61-.08-3.01-.16-4.64-.25.27.54.41.81.54,1.08.88,1.72.38,3.78-1.12,4.68-1.46.87-3.25.41-4.4-1.18-.37-.51-.67-1.09-.87-1.68-.36-1.05-.62-2.14-.98-3.42-2.14,2.9-4.02,5.85-3.22,9.42.46,2.04,1.9,3.85,2.9,5.77,1.25-.05,2.51-.09,3.76-.14l17.79-1.79c.6-.15.98-.44.97-1.21Z"/>
        <path class="oferSesh-1" d="M324.53,33.27h.13s-.09-.03-.14-.03v.03Z"/>
      </g>
    </g>
  </g>
</svg>