<?xml version="1.0" encoding="UTF-8"?>
<svg fill="currentColor" xmlns="http://www.w3.org/2000/svg" viewBox="0 0 243 246.27">
  <g>
    <path d="M226.37,6.37c-26.88-10.34-60.9-8.97-82.94,10.6-12.99,11.54-19.94,27.25-17.46,44.8,1.65,11.71,6.49,21.1,13.67,30.3l-8.78,21.84h-19.03s-7.82-20.28-7.82-20.28c-.88-4.24,3.86-6.82,5.67-9.89,9.97-16.9,10.98-35.9,1.55-53.23C93.99-1.19,48.01-5.88,17.15,6.2,11.55,8.4.86,12.78.03,19.16c-.55,4.2,6.7,17.57,8.37,23.18,3.36,11.29,4.64,23.4,9.45,34.55,9.82,22.71,32.79,35.49,57.4,30.41,2.67-.55,13.05-5.69,14.71-3.31.7,1,3.52,9.76,2.89,10.4-11.87-.67-21.66,3.27-27.84,13.66-6.72,11.29-1.12,38.48-.17,51.85.97,13.65-.04,37.93,5.1,49.9,2.71,6.3,11.4,13.42,18.04,14.96,9.05,2.1,52.02,1.75,62.26.52,13.01-1.56,21.73-13.04,23.65-25.35,4.03-25.91,2.7-55.62,5.87-81.95-2.89-14.34-13.91-24.01-28.92-23.58l2.48-10.02c2.5-2.61,10.51,2.18,14.12,2.93,22.36,4.63,44.94-5.13,55.57-25.24,6.97-13.18,8.26-27.54,12.57-41.43,6.15-19.83,16.67-24.3-9.22-34.26Z"/>
  </g>
</svg>