<?xml version="1.0" encoding="UTF-8"?>
<svg fill="CurrentColor" xmlns="http://www.w3.org/2000/svg" viewBox="0 0 124.78 125.17">
  <g>
    <g>
      <path d="M106.06,108.35c-15.43,15.08-40.87,20.19-61.43,14.63-4.33-1.17-15.56-7.72-16.71-7.85-4.97-.54-14.67,5.79-20.11,2.66-4.33-3.45,2.66-16.04,2.16-20.6-.13-1.22-3.45-5.37-4.28-7.28C-14.67,42.46,22.21-7.55,73.66.95c50.13,8.28,68.15,72.45,32.4,107.4ZM16.42,108.7c13.69-6.45,21.21,3.68,32.93,6.57,47.96,11.81,86.03-42.99,56.89-83.89C71.85-16.91-4.14,18.93,9.85,75.76c1.51,6.12,7.78,14.61,8.51,19.51.73,4.93-1.53,8.77-1.94,13.43Z"/>
      <path d="M62.07,29.99c9.68-.48,10.04,11.14,13.76,13.79,4.34,3.09,15.19-.92,17.36,9.65,2.12,10.33-7.21,11.08-8.61,15.99-1.31,4.58,4.06,12.89-1.64,18.29-8.34,7.9-14.58-1.31-20.18-1.79-4.8-.42-11.45,9.5-20.29,2.23-6.63-5.46-.82-13.9-2.21-18.73-1.56-5.43-11.54-5.55-8.59-16.99,2.21-8.56,12.11-6.04,16.76-8.23,3.67-1.73,4.07-13.74,13.65-14.22ZM76.41,81.7c.62-6.68-3.23-11.37,1-17.5,1.38-2,9.84-7.54,6.03-10.03-3.01-1.96-9.78.9-14.87-5.13-1.43-1.69-4.41-9.88-6.64-9.34-1.09.26-5.21,9.32-7.27,11.02-4.44,3.66-10.11,1.62-14.24,4.5-.99,3.31,7.78,7.82,8.78,12.18,1.11,4.84-1.47,9.45-.78,14.29,5.22.01,9.2-5.29,14.47-5.07,4.61.2,8.68,5.21,13.52,5.07Z"/>
    </g>
  </g>
</svg>