<?xml version="1.0" encoding="UTF-8"?>
<svg fill="CurrentColor" xmlns="http://www.w3.org/2000/svg" viewBox="0 0 111.99 122.12">
  <g>
    <path d="M33.95,112.27h75.5c2.01,0,6.09,8.03-4.01,8.99-31.77-1.93-66.63,2.62-98.03.05-2.46-.2-4.96-.45-7-1.99-3.74-13.05,19.23-3.72,24.06-8.03l20.53-49.55-.1-1.41c-2.75-.37-5.39-1.49-7.91-2.59-7.02-3.09-27.58-10.54-30.88-16.12C-.81,29.94,15.27,14.19,24.63,8.45c40.21-24.63,89.01,7.94,82.2,54.2-1.11,7.52-4.16,17.27-13.4,17.68-7.89.35-28.59-12.4-37.22-14.92l-2.27.3-19.99,46.56Z"/>
  </g>
</svg>