<?xml version="1.0" encoding="UTF-8"?>
<svg id="Layer_2" data-name="Layer 2" xmlns="http://www.w3.org/2000/svg" viewBox="0 0 546.03 129.35"><metadata><c2pa:manifest xmlns:c2pa="http://c2pa.org/manifest">AAA0RGp1bWIAAAAeanVtZGMycGEAEQAQgAAAqgA4m3EDYzJwYQAAADQeanVtYgAAAEdqdW1kYzJtYQARABCAAACqADibcQN1cm46dXVpZDpkYmFlZmU1Ni1iNWFmLTQ1YTItYTNjYi00MTBkOWUxZTA0MmMAAAABtGp1bWIAAAApanVtZGMyYXMAEQAQgAAAqgA4m3EDYzJwYS5hc3NlcnRpb25zAAAAANdqdW1iAAAAJmp1bWRjYm9yABEAEIAAAKoAOJtxA2MycGEuYWN0aW9ucwAAAACpY2JvcqFnYWN0aW9uc4GjZmFjdGlvbmtjMnBhLmVkaXRlZG1zb2Z0d2FyZUFnZW50bUFkb2JlIEZpcmVmbHlxZGlnaXRhbFNvdXJjZVR5cGV4U2h0dHA6Ly9jdi5pcHRjLm9yZy9uZXdzY29kZXMvZGlnaXRhbHNvdXJjZXR5cGUvY29tcG9zaXRlV2l0aFRyYWluZWRBbGdvcml0aG1pY01lZGlhAAAArGp1bWIAAAAoanVtZGNib3IAEQAQgAAAqgA4m3EDYzJwYS5oYXNoLmRhdGEAAAAAfGNib3KlamV4Y2x1c2lvbnOBomVzdGFydBjLZmxlbmd0aBlFsGRuYW1lbmp1bWJmIG1hbmlmZXN0Y2FsZ2ZzaGEyNTZkaGFzaFggLDR4epnN7nvz8briu/fSsYNq98otei6qR4wG3Xjm/P1jcGFkSQAAAAAAAAAAAAAAAgtqdW1iAAAAJGp1bWRjMmNsABEAEIAAAKoAOJtxA2MycGEuY2xhaW0AAAAB32Nib3KoaGRjOnRpdGxlb0dlbmVyYXRlZCBJbWFnZWlkYzpmb3JtYXRtaW1hZ2Uvc3ZnK3htbGppbnN0YW5jZUlEeCx4bXA6aWlkOjQzNzBiODE4LWM4ZTUtNGM5MS1hN2Y0LWNjMDZlZWNkNWYyNm9jbGFpbV9nZW5lcmF0b3J4NkFkb2JlX0lsbHVzdHJhdG9yLzI5LjMgYWRvYmVfYzJwYS8wLjcuNiBjMnBhLXJzLzAuMjUuMnRjbGFpbV9nZW5lcmF0b3JfaW5mb4G/ZG5hbWVxQWRvYmUgSWxsdXN0cmF0b3JndmVyc2lvbmQyOS4z/2lzaWduYXR1cmV4GXNlbGYjanVtYmY9YzJwYS5zaWduYXR1cmVqYXNzZXJ0aW9uc4KiY3VybHgnc2VsZiNqdW1iZj1jMnBhLmFzc2VydGlvbnMvYzJwYS5hY3Rpb25zZGhhc2hYIEppwb3/qN5BMHi+JO3M+DE6wdFklTRWcaANawazN9SvomN1cmx4KXNlbGYjanVtYmY9YzJwYS5hc3NlcnRpb25zL2MycGEuaGFzaC5kYXRhZGhhc2hYIDflEUyZFZYvr4jxnZssyaESBiViPaDbsxAjIgra+DsuY2FsZ2ZzaGEyNTYAADAQanVtYgAAAChqdW1kYzJjcwARABCAAACqADibcQNjMnBhLnNpZ25hdHVyZQAAAC/gY2JvctKEWQzvogE4JBghglkGPTCCBjkwggQhoAMCAQICEBWN/yesI9K4JUtOYzceHZ4wDQYJKoZIhvcNAQELBQAwdTELMAkGA1UEBhMCVVMxIzAhBgNVBAoTGkFkb2JlIFN5c3RlbXMgSW5jb3Jwb3JhdGVkMR0wGwYDVQQLExRBZG9iZSBUcnVzdCBTZXJ2aWNlczEiMCAGA1UEAxMZQWRvYmUgUHJvZHVjdCBTZXJ2aWNlcyBHMzAeFw0yNDEwMTUwMDAwMDBaFw0yNTEwMTUyMzU5NTlaMIGrMRMwEQYDVQQDDApBZG9iZSBDMlBBMSgwJgYDVQQLDB9Db250ZW50IEF1dGhlbnRpY2l0eSBJbml0aWF0aXZlMRMwEQYDVQQKDApBZG9iZSBJbmMuMREwDwYDVQQHDAhTYW4gSm9zZTETMBEGA1UECAwKQ2FsaWZvcm5pYTELMAkGA1UEBhMCVVMxIDAeBgkqhkiG9w0BCQEWEWNhaS1vcHNAYWRvYmUuY29tMIIBIjANBgkqhkiG9w0BAQEFAAOCAQ8AMIIBCgKCAQEAwxDBgdB9PXLpMXPw5oNgYkFWDPP1aSfth9TZPINOtOQlhp1v4h+hMxZWFjkZ3RJRuoSBrsSSYBaEfiDMKisi/sOxuFHKBV//l1rv3SrjrixANXIlqjGdIYydaMaFa/5ovFz/m4+SUz0ccYzqw+vSAzuRySGnpgm8Gmj+SEJcL/GIHzqU9bUy3NsizY2oY28yj32rbkOqeADSM51OqIJKloEBFFexzMunzpU+K2sLqheoR8FJMaR0fGXa/gqRzhkiBFhwUhLPS9s6+TCnz09UZMlXbdG/iFKj3UPFUDjqh0wtFgcz24DrUlaWeiltKHouymBHuirzvmOG0VtSPepxOQIDAQABo4IBjDCCAYgwDAYDVR0TAQH/BAIwADAOBgNVHQ8BAf8EBAMCB4AwHgYDVR0lBBcwFQYJKoZIhvcvAQEMBggrBgEFBQcDBDCBjgYDVR0gBIGGMIGDMIGABgkqhkiG9y8BAgMwczBxBggrBgEFBQcCAjBlDGNZb3UgYXJlIG5vdCBwZXJtaXR0ZWQgdG8gdXNlIHRoaXMgTGljZW5zZSBDZXJ0aWZpY2F0ZSBleGNlcHQgYXMgcGVybWl0dGVkIGJ5IHRoZSBsaWNlbnNlIGFncmVlbWVudC4wXQYDVR0fBFYwVDBSoFCgToZMaHR0cDovL3BraS1jcmwuc3ltYXV0aC5jb20vY2FfN2E1YzNhMGM3MzExNzQwNmFkZDE5MzEyYmMxYmMyM2YvTGF0ZXN0Q1JMLmNybDA3BggrBgEFBQcBAQQrMCkwJwYIKwYBBQUHMAGGG2h0dHA6Ly9wa2ktb2NzcC5zeW1hdXRoLmNvbTAfBgNVHSMEGDAWgBRXKXoyTcz+5DVOwB8kc85zU6vfajANBgkqhkiG9w0BAQsFAAOCAgEAqrl6FLQ+c9LYaf0igyTgErNL9XmmieiT3ohKFevJ3BN7kWkZD1znbVw3XnX5tgQaKq+AiSCldNxYEKqU+Rq9Lr26GGglBSA0s/Ds2kw+2LlnTmojAHCH3CvVRbhGHHrashmnfgwmF1TSkaWk7NxEhbt9wQoiEMkLSQeM4S4Cu+176FzEdy+zzkDkRWqeSOQO/qG2WRto/vIq30ECf6v6FtazJI1CWIqhBK5oJioSNbLsCVJhar3Uca9D11ujeZW4k2jPCsnzriTmFqVftd3k2SXUQg7wQcQcXfKBItWZt8ztn0IYoZzJa1x9l9dvXKAJvNsDoz4uDerS8z9rzLsEQvzL1yPbTp4+/6mTTAWsoaDtmkZgm3X+sffPX3XzMFmfzIHiYfUja5nKK2bs4P71tit/1U/FD2xdlpzZSupRqCMGz+UTeXI8IrN5ZR/+F8rSsmRAStjnggz/wDucwcDlJbY4/RKq3BrAi4LamLMIfwo/dbL55TDlIOd7HCfmSgabc1WO0Kji3LW/VZnP9VG8WiUG+WqtN1OQIAZmFUOWdXQGLag+I1OaZ1BXJDNsJiXcg2TGNBSEPo44Akfn9MzFGKyB5UurMN4NH0qlamhrhKiV0+b73Fjx330P/frxBmzx5NpAQhNKksx+F4z1S8Ay1o2TBIkkeAFbDzy8f/FxuytZBqUwggahMIIEiaADAgECAhAMqLZUe4nm0gaJdc2Lm4niMA0GCSqGSIb3DQEBCwUAMGwxCzAJBgNVBAYTAlVTMSMwIQYDVQQKExpBZG9iZSBTeXN0ZW1zIEluY29ycG9yYXRlZDEdMBsGA1UECxMUQWRvYmUgVHJ1c3QgU2VydmljZXMxGTAXBgNVBAMTEEFkb2JlIFJvb3QgQ0EgRzIwHhcNMTYxMTI5MDAwMDAwWhcNNDExMTI4MjM1OTU5WjB1MQswCQYDVQQGEwJVUzEjMCEGA1UEChMaQWRvYmUgU3lzdGVtcyBJbmNvcnBvcmF0ZWQxHTAbBgNVBAsTFEFkb2JlIFRydXN0IFNlcnZpY2VzMSIwIAYDVQQDExlBZG9iZSBQcm9kdWN0IFNlcnZpY2VzIEczMIICIjANBgkqhkiG9w0BAQEFAAOCAg8AMIICCgKCAgEAtx8uvb0Js1xIbP4Mg65sAepReCWkgD6Jp7GyiGTa9ol2gfn5HfOV/HiYjZiOz+TuHFU+DXNad86xEqgVeGVMlvIHGe/EHcKBxvEDXdlTXB5zIEkfl0/SGn7J6vTX8MNybfSi95eQDUOZ9fjCaq+PBFjS5ZfeNmzi/yR+MsA0jKKoWarSRCFFFBpUFQWfAgLyXOyxOnXQOQudjxNj6Wu0X0IB13+IH11WcKcWEWXM4j4jh6hLy29Cd3EoVG3oxcVenMF/EMgD2tXjx4NUbTNB1/g9+MR6Nw5Mhp5k/g3atNExAxhtugC+T3SDShSEJfs2quiiRUHtX3RhOcK1s1OJgT5s2s9xGy5/uxVpcAIaK2KiDJXW3xxN8nXPmk1NSVu/mxtfapr4TvSJbhrU7UA3qhQY9n4On2sbH1X1Tw+7LTek8KCA5ZDghOERPiIp/Jt893qov1bE5rJkagcVg0Wqjh89NhCaBA8VyRt3ovlGyCKdNV2UL3bn5vdFsTk7qqmp9makz1/SuVXYxIf6L6+8RXOatXWaPkmucuLE1TPOeP7S1N5JToFCs80l2D2EtxoQXGCR48K/cTUR5zV/fQ+hdIOzoo0nFn77Y8Ydd2k7/x9BE78pmoeMnw6VXYfXCuWEgj6p7jpbLoxQMoWMCVzlg72WVNhJFlSw4aD8fc6ezeECAwEAAaOCATQwggEwMBIGA1UdEwEB/wQIMAYBAf8CAQAwNQYDVR0fBC4wLDAqoCigJoYkaHR0cDovL2NybC5hZG9iZS5jb20vYWRvYmVyb290ZzIuY3JsMA4GA1UdDwEB/wQEAwIBBjAUBgNVHSUEDTALBgkqhkiG9y8BAQcwVwYDVR0gBFAwTjBMBgkqhkiG9y8BAgMwPzA9BggrBgEFBQcCARYxaHR0cHM6Ly93d3cuYWRvYmUuY29tL21pc2MvcGtpL3Byb2Rfc3ZjZV9jcHMuaHRtbDAkBgNVHREEHTAbpBkwFzEVMBMGA1UEAxMMU1lNQy00MDk2LTMzMB0GA1UdDgQWBBRXKXoyTcz+5DVOwB8kc85zU6vfajAfBgNVHSMEGDAWgBSmHOFtVCRMqI9Icr9uqYzV5Owx1DANBgkqhkiG9w0BAQsFAAOCAgEAcc7lB4ym3C3cyOA7ZV4AkoGV65UgJK+faThdyXzxuNqlTQBlOyXBGFyevlm33BsGO1mDJfozuyLyT2+7IVxWFvW5yYMV+5S1NeChMXIZnCzWNXnuiIQSdmPD82TEVCkneQpFET4NDwSxo8/ykfw6Hx8fhuKz0wjhjkWMXmK3dNZXIuYVcbynHLyJOzA+vWU3sH2T0jPtFp7FN39GZne4YG0aVMlnHhtHhxaXVCiv2RVoR4w1QtvKHQpzfPObR53Cl74iLStGVFKPwCLYRSpYRF7J6vVS/XxW4LzvN2b6VEKOcvJmN3LhpxFRl3YYzW+dwnwtbuHW6WJlmjffbLm1MxLFGlG95aCz31X8wzqYNsvb9+5AXcv8Ll69tLXmO1OtsY/3wILNUEp4VLZTE3wqm3n8hMnClZiiKyZCS7L4E0mClbx+BRSMH3eVo6jgve41/fK3FQM4QCNIkpGs7FjjLy+ptC+JyyWqcfvORrFV/GOgB5hD+G5ghJcIpeigD/lHsCRYsOa5sFdqREhwIWLmSWtNwfLZdJ3dkCc7yRpm3gal6qRfTkYpxTNxxKyvKbkaJDoxR9vtWrC3iNrQd9VvxC3TXtuzoHbqumeqgcAqefWF9u6snQ4Q9FkXzeuJArNuSvPIhgBjVtggH0w0vm/lmCQYiC/Y12GeCxfgYlL33bujZnNpZ1RzdKFpdHN0VG9rZW5zgaFjdmFsWQ44MIIONDADAgEAMIIOKwYJKoZIhvcNAQcCoIIOHDCCDhgCAQMxDzANBglghkgBZQMEAgEFADCBgQYLKoZIhvcNAQkQAQSgcgRwMG4CAQEGCWCGSAGG/WwHATAxMA0GCWCGSAFlAwQCAQUABCA7OsTxHbva0n4WPQKyeOWgBUOmMJsJ6Qwa0iqMTQt3CAIQMYUnNFTymhGBwhuvtuFjJRgPMjAyNTA1MjIxNTAzMjdaAggZ0IGPp/fOVaCCC8AwggUKMIIC8qADAgECAhAMCy/HenjPuu1lVlTBmiQDMA0GCSqGSIb3DQEBCwUAMGMxCzAJBgNVBAYTAlVTMRcwFQYDVQQKEw5EaWdpQ2VydCwgSW5jLjE7MDkGA1UEAxMyRGlnaUNlcnQgVHJ1c3RlZCBHNCBSU0E0MDk2IFNIQTI1NiBUaW1lU3RhbXBpbmcgQ0EwHhcNMjQxMTIwMDAwMDAwWhcNMzYwMjE5MjM1OTU5WjBbMQswCQYDVQQGEwJVUzERMA8GA1UEChMIRGlnaUNlcnQxOTA3BgNVBAMTMEVDQzI1Nl9TSEEyNTZfVGltZXN0YW1wX1Jlc3BvbmRlcl9BZG9iZV9OT1ZfMjAyNDBZMBMGByqGSM49AgEGCCqGSM49AwEHA0IABND8HoX4gZimKpBAvE5+qRSZ5OZJFZnPFIK3AzzayJb9JtdrOS1HIRabAhWz7w8mOFX0Lh9QnbcgZHGx/MkzyV6jggGLMIIBhzAOBgNVHQ8BAf8EBAMCB4AwDAYDVR0TAQH/BAIwADAWBgNVHSUBAf8EDDAKBggrBgEFBQcDCDAgBgNVHSAEGTAXMAgGBmeBDAEEAjALBglghkgBhv1sBwEwHwYDVR0jBBgwFoAUuhbZbU2FL3MpdpovdYxqII+eyG8wHQYDVR0OBBYEFOzRHG9856BN5DE/hwAI1K3UfTa7MFoGA1UdHwRTMFEwT6BNoEuGSWh0dHA6Ly9jcmwzLmRpZ2ljZXJ0LmNvbS9EaWdpQ2VydFRydXN0ZWRHNFJTQTQwOTZTSEEyNTZUaW1lU3RhbXBpbmdDQS5jcmwwgZAGCCsGAQUFBwEBBIGDMIGAMCQGCCsGAQUFBzABhhhodHRwOi8vb2NzcC5kaWdpY2VydC5jb20wWAYIKwYBBQUHMAKGTGh0dHA6Ly9jYWNlcnRzLmRpZ2ljZXJ0LmNvbS9EaWdpQ2VydFRydXN0ZWRHNFJTQTQwOTZTSEEyNTZUaW1lU3RhbXBpbmdDQS5jcnQwDQYJKoZIhvcNAQELBQADggIBAKLswSDyeS8tq4sjtwCPbUOCcwSuHSae0K3hzi2xb3IlBl1m/WfwTV255rJvoiJnyZhqZsiatN65UrAapRIhNlOJWG0VE/fNEP0OkWT4THg/TXQhK0f94PWWArptV9pjSC/NwhFA/cLAjOoFkATzVzlAg2M+zzVy8ks4Up39xfvM6GhC+vOI0PLXlQ1Pl+5RF7Z+KgA1CxE1g6ZVcB2DZMrs6S1gP4Qf8PyBavucdCFEky4PngY2OJmc0+dhfPoXePsG7ZpWWKu9AYACytbbsuqGD2Sxbn5ov6D3+XKpGgytYtLLgoNBrO08H48qyR5w7VHt1slvDtQEVWX4ZsZpRzjHoe9Us00vmEeOIut/0DjPF7nZ71mqlJTuQO7t2xFe+b64ssxeMcVLH+PSy0hzGdAfA4vgDlFG5QfVfDXDPYKIa8gc1yhiuSp+RvpOwolTue0Oo0oUpnfj2wEStN1fBWgh3jNL9xX8Dms7UrDlo07/NRMK1CRtwyDzxcZaoiZpiYgeEi8doTWdF09YJrRCGvG+Kh4/jmnj/Op38mtVs2ygS4QFJEg8Hf5WItqgWWKZlFR4/PApi/JOt3qDvaZW0Xg+ttu/LWSoJSaxkMwWqffcNHQ3xDOqTOKvdu583IjmT3lGrc1dxt81gPH2pnyCMK7g0e1LEB0kqzDNv2CLqPIVMIIGrjCCBJagAwIBAgIQBzY3tyRUfNhHrP0oZipeWzANBgkqhkiG9w0BAQsFADBiMQswCQYDVQQGEwJVUzEVMBMGA1UEChMMRGlnaUNlcnQgSW5jMRkwFwYDVQQLExB3d3cuZGlnaWNlcnQuY29tMSEwHwYDVQQDExhEaWdpQ2VydCBUcnVzdGVkIFJvb3QgRzQwHhcNMjIwMzIzMDAwMDAwWhcNMzcwMzIyMjM1OTU5WjBjMQswCQYDVQQGEwJVUzEXMBUGA1UEChMORGlnaUNlcnQsIEluYy4xOzA5BgNVBAMTMkRpZ2lDZXJ0IFRydXN0ZWQgRzQgUlNBNDA5NiBTSEEyNTYgVGltZVN0YW1waW5nIENBMIICIjANBgkqhkiG9w0BAQEFAAOCAg8AMIICCgKCAgEAxoY1BkmzwT1ySVFVxyUDxPKRN6mXUaHW0oPRnkyibaCwzIP5WvYRoUQVQl+kiPNo+n3znIkLf50fng8zH1ATCyZzlm34V6gCff1DtITaEfFzsbPuK4CEiiIY3+vaPcQXf6sZKz5C3GeO6lE98NZW1OcoLevTsbV15x8GZY2UKdPZ7Gnf2ZCHRgB720RBidx8ald68Dd5n12sy+iEZLRS8nZH92GDGd1ftFQLIWhuNyG7QKxfst5Kfc71ORJn7w6lY2zkpsUdzTYNXNXmG6jBZHRAp8ByxbpOH7G1WE15/tePc5OsLDnipUjW8LAxE6lXKZYnLvWHpo9OdhVVJnCYJn+gGkcgQ+NDY4B7dW4nJZCYOjgRs/b2nuY7W+yB3iIU2YIqx5K/oN7jPqJz+ucfWmyU8lKVEStYdEAoq3NDzt9KoRxrOMUp88qqlnNCaJ+2RrOdOqPVA+C/8KI8ykLcGEh/FDTP0kyr75s9/g64ZCr6dSgkQe1CvwWcZklSUPRR8zZJTYsg0ixXNXkrqPNFYLwjjVj33GHek/45wPmyMKVM1+mYSlg+0wOI/rOP015LdhJRk8mMDDtbiiKowSYI+RQQEgN9XyO7ZONj4KbhPvbCdLI/Hgl27KtdRnXiYKNYCQEoAA6EVO7O6V3IXjASvUaetdN2udIOa5kM0jO0zbECAwEAAaOCAV0wggFZMBIGA1UdEwEB/wQIMAYBAf8CAQAwHQYDVR0OBBYEFLoW2W1NhS9zKXaaL3WMaiCPnshvMB8GA1UdIwQYMBaAFOzX44LScV1kTN8uZz/nupiuHA9PMA4GA1UdDwEB/wQEAwIBhjATBgNVHSUEDDAKBggrBgEFBQcDCDB3BggrBgEFBQcBAQRrMGkwJAYIKwYBBQUHMAGGGGh0dHA6Ly9vY3NwLmRpZ2ljZXJ0LmNvbTBBBggrBgEFBQcwAoY1aHR0cDovL2NhY2VydHMuZGlnaWNlcnQuY29tL0RpZ2lDZXJ0VHJ1c3RlZFJvb3RHNC5jcnQwQwYDVR0fBDwwOjA4oDagNIYyaHR0cDovL2NybDMuZGlnaWNlcnQuY29tL0RpZ2lDZXJ0VHJ1c3RlZFJvb3RHNC5jcmwwIAYDVR0gBBkwFzAIBgZngQwBBAIwCwYJYIZIAYb9bAcBMA0GCSqGSIb3DQEBCwUAA4ICAQB9WY7Ak7ZvmKlEIgF+ZtbYIULhsBguEE0TzzBTzr8Y+8dQXeJLKftwig2qKWn8acHPHQfpPmDI2AvlXFvXbYf6hCAlNDFnzbYSlm/EUExiHQwIgqgWvalWzxVzjQEiJc6VaT9Hd/tydBTX/6tPiix6q4XNQ1/tYLaqT5Fmniye4Iqs5f2MvGQmh2ySvZ180HAKfO+ovHVPulr3qRCyXen/KFSJ8NWKcXZl2szwcqMj+sAngkSumScbqyQeJsG33irr9p6xeZmBo1aGqwpFyd/EjaDnmPv7pp1yr8THwcFqcdnGE4AJxLafzYeHJLtPo0m5d2aR8XKc6UsCUqc3fpNTrDsdCEkPlM05et3/JWOZJyw9P2un8WbDQc1PtkCbISFA0LcTJM3cHXg65J6t5TRxktcma+Q4c6umAU+9Pzt4rUyt+8SVe+0KXzM5h0F4ejjpnOHdI/0dKNPH+ejxmF/7K9h+8kaddSweJywm228Vex4Ziza4k9Tm8heZWcpw8De/mADfIBZPJ/tgZxahZrrdVcA6KYawmKAr7ZVBtzrVFZgxtGIJDwq9gdkT/r+k0fNX2bwE+oLeMt8EifAAzV3C+dAjfwAL5HYCJtnwZXZCpimHCUcr5n8apIUP/JiW9lVUKx+A+sDyDivl1vupL0QVSucTDh3bNzgaoSv27dZ8/DGCAbgwggG0AgEBMHcwYzELMAkGA1UEBhMCVVMxFzAVBgNVBAoTDkRpZ2lDZXJ0LCBJbmMuMTswOQYDVQQDEzJEaWdpQ2VydCBUcnVzdGVkIEc0IFJTQTQwOTYgU0hBMjU2IFRpbWVTdGFtcGluZyBDQQIQDAsvx3p4z7rtZVZUwZokAzANBglghkgBZQMEAgEFAKCB0TAaBgkqhkiG9w0BCQMxDQYLKoZIhvcNAQkQAQQwHAYJKoZIhvcNAQkFMQ8XDTI1MDUyMjE1MDMyN1owKwYLKoZIhvcNAQkQAgwxHDAaMBgwFgQU9xMCVGQbnM7SUS1ixb+fKYSM/PgwLwYJKoZIhvcNAQkEMSIEILZLd7z9wVIDxmYfMcGi2bhs+QQFgGxal60a9I3hYLenMDcGCyqGSIb3DQEJEAIvMSgwJjAkMCIEILl6JmgdGOm5fGM++Eg5ZFV1l5baUENELI+MzeUn4ACpMAoGCCqGSM49BAMCBEcwRQIgNxg06HLkSf+obsQ6gLp2Ahn4qCDyNGX30eHoq7iCZbECIQD+tC/uLNOdlmCeJQYFkPQ5U6aQe9pICF4Mr9TnwuJwKGVyVmFsc6Fob2NzcFZhbHOBWQjYMIII1AoBAKCCCM0wggjJBgkrBgEFBQcwAQEEggi6MIIItjCBnqIWBBTAidaHhzyv6RWQe3dynA7rftzStBgPMjAyNTA1MjAyMTEzMzlaMHMwcTBJMAkGBSsOAwIaBQAEFLvfcyV72yOix06JXd/8EYWom4sBBBRXKXoyTcz+5DVOwB8kc85zU6vfagIQFY3/J6wj0rglS05jNx4dnoAAGA8yMDI1MDUyMDIxMTMzOVqgERgPMjAyNTA1MjcyMTEzMzlaMA0GCSqGSIb3DQEBCwUAA4ICAQAiRP6WyMC3DmjFe5nAZnIERTTtJOcj3P5llJglNLAzBO9wqYiKB8m+RUHTi/H6FxxBiwqLR94bMzVd2uF8XFdQgc+X5gGMqU+WPTKX9I2ZqsAoV8y3wYpwcURpqtZjFkGFDekh5O0H+hl87wR6PjCsv5f5ZfENV0nooewQ6kU4bXA6ns1noykCwMiOWIZEhJfQ9YrklMdjpGYO4v+E14pw90kklGbO0I6Ix9XuxsPYC84Y3lqCC+FfCueaXl765fkZrhn2ceBicA3rntEc4zbouzanY5UlmaoxgnOTC0gS2JeBDtzMcgzqIWWQYYN0fvqriTECWcf1NT34dbyCV0/JqYPEvhzy3EmukEuBPQZL8Pz7yfvnJcYN3BEil3POt//peyN3k1i4gHSTgagHIVEjA9TruFMWlH2yZJFFvfYcFE1fdl9YkDdn9w1MrP1zadc+huYDS0g1tFyZNeZprHeLTDaM1To3zr2fqeemfLAG37FORLinZlk08/WCeUKjmEBjZ5dWlzrlHhcG0J5iTFs3qUpe5J3uhWg6/NjBsbiyp6TkMkLZv10c6gC6v4IbIiCJKciqsJMYcAk0FuCiKojErRo23uK7XtBhy0BEGaNGDqgLONY/74uiwmVTi/oytPExaYW9cPfDhNjnh3qAHqIPR1qFP5xlnp+5TczB/OFP36CCBf0wggX5MIIF9TCCA92gAwIBAgIUN+O4Ed9HtRBqiC3CrYSErk15G9cwDQYJKoZIhvcNAQELBQAwdTELMAkGA1UEBhMCVVMxIzAhBgNVBAoTGkFkb2JlIFN5c3RlbXMgSW5jb3Jwb3JhdGVkMR0wGwYDVQQLExRBZG9iZSBUcnVzdCBTZXJ2aWNlczEiMCAGA1UEAxMZQWRvYmUgUHJvZHVjdCBTZXJ2aWNlcyBHMzAeFw0yNTA0MzAyMDI4MDlaFw0yNTA3MjkyMDI4MDlaMHoxCzAJBgNVBAYTAlVTMSMwIQYDVQQKExpBZG9iZSBTeXN0ZW1zIEluY29ycG9yYXRlZDFGMEQGA1UEAxM9QWRvYmUgUHJvZHVjdCBTZXJ2aWNlcyBHMyBPQ1NQIFJlc3BvbmRlciAyMDI1LTA0LTMwVDIwOjI4OjA5WjCCAiIwDQYJKoZIhvcNAQEBBQADggIPADCCAgoCggIBAOL8/x57U01Kngwtgq5TUDg6anofXZuV2Kkqpu35N8jpTTG/+tlAU5iYWP9HWep/H+amcx7SnQqIDVR+2KslUMvUliIrMnV0qnFgdrR8eloty3102NMgX+ZXKkPPvIMbc3nxaGZNGenW7/u7VgMLNrZtGxElRkRsTBTKQJwhbeNjU9DyWAcqweBmTXcJ5NjjHN6csUl2Bblbl4N9T2W4fas/UZa1nhrO9veWzpTpg6krEkUz68f4igOEbDkY5nbaGfObamk5OIic8JxGjkAkdu3QrmFQEH0puvKSSF9bywstwAlju9FlxOwQLu6NIOWv4IyLsGR0GJvXukNc66h8E2QP/ugbBKNxTpon53Ii9xVTzXxQvfoZyh94ppEemdwEASlUArGNWV/SyGbQe0NNhmwF5aw15aL6eXCH9A13eHWfK1zcfIO19wdy2Js/8ltDg2NEfn+Ui60ZVxXfRErznX+ZyUjWj2DElBcBpiaMxQl8v7DtaMR+KChSRmxnYAYyyzNbDbO2lyHQlUl/4WbLkk3k0lbwNGJ/lxHUc7ZvNWdr8m30/SrAc4/GRT7qmk2B9a7tG8rCErOPff6G8LfN3A9xiL6Bpjg6sSqeJBlSkQtW42g/7UC9dFZqtNigocYjFMB1ezc/OEFybiRblnHYRtiZAGkcGW/k44A39lWcVgTBAgMBAAGjeDB2MB0GA1UdDgQWBBTAidaHhzyv6RWQe3dynA7rftzStDAfBgNVHSMEGDAWgBRXKXoyTcz+5DVOwB8kc85zU6vfajAOBgNVHQ8BAf8EBAMCB4AwEwYDVR0lBAwwCgYIKwYBBQUHAwkwDwYJKwYBBQUHMAEFBAIFADANBgkqhkiG9w0BAQsFAAOCAgEAbvOr1xF4VBXLVV2OvsJkxVcF1HS0f6Dvc38hg5QarKjHKumd32eTsOzezhX0c8rpgyry5JbPaxDG17S3M/35M3W0jt2jHkiskbN/F4lIDexedHE9xLGk6AkpC2rwbu4JAt3Lh11Gv7WU6ej8uXZfFlKrIv8ULTyhaIMH9saoVsXXU8dtC5LIBENB8AX8j9kdim05WFVCAG+zkhctkv7r6z9CdAZxEV553cLW8x+JqtKSfp+dsfelhvsdBrDt7/ObcZxsBkLUezCi2dt08T2rAVnO5UmXFu1ptz0i7DIvIgdibGfNpaCCAE8Hm/8x01l4/YO4egQu8mIqgZfG43w73kZXaYN6KWPILz8RigyeletGy3lhbGta2DIqJDR9LjrI61l/zFReG6PAwyzTOuRMcanpBVpe0bL5N4yc5FmwKZZuetyBM9FAxPi+n3kn+xAj9jQqFJmrK+dtJEYQQJL87AWN4wSet/JlCs96O2KXlqBQ3p8iCP1zCkxeJNKxHN8YGvPDmFm41RMUS9/1nhzok+3/OOhrGv/Dg1/ZKig9LfayfPL05truqkNgqo6Xh2/YPinxPC+KFS98ZbjG8EWgR0MRIxF8m0Z9W/lL/teGXPy3tpRmQyceCY7HXwKJZLqSxB8PH+PkxlntE6GzitRFsjyOB+IqY1f6IYy/V3fl2wVjcGFkWQqZAAAAAAAAAAAAAAAAAAAAAAAAAAAAAAAAAAAAAAAAAAAAAAAAAAAAAAAAAAAAAAAAAAAAAAAAAAAAAAAAAAAAAAAAAAAAAAAAAAAAAAAAAAAAAAAAAAAAAAAAAAAAAAAAAAAAAAAAAAAAAAAAAAAAAAAAAAAAAAAAAAAAAAAAAAAAAAAAAAAAAAAAAAAAAAAAAAAAAAAAAAAAAAAAAAAAAAAAAAAAAAAAAAAAAAAAAAAAAAAAAAAAAAAAAAAAAAAAAAAAAAAAAAAAAAAAAAAAAAAAAAAAAAAAAAAAAAAAAAAAAAAAAAAAAAAAAAAAAAAAAAAAAAAAAAAAAAAAAAAAAAAAAAAAAAAAAAAAAAAAAAAAAAAAAAAAAAAAAAAAAAAAAAAAAAAAAAAAAAAAAAAAAAAAAAAAAAAAAAAAAAAAAAAAAAAAAAAAAAAAAAAAAAAAAAAAAAAAAAAAAAAAAAAAAAAAAAAAAAAAAAAAAAAAAAAAAAAAAAAAAAAAAAAAAAAAAAAAAAAAAAAAAAAAAAAAAAAAAAAAAAAAAAAAAAAAAAAAAAAAAAAAAAAAAAAAAAAAAAAAAAAAAAAAAAAAAAAAAAAAAAAAAAAAAAAAAAAAAAAAAAAAAAAAAAAAAAAAAAAAAAAAAAAAAAAAAAAAAAAAAAAAAAAAAAAAAAAAAAAAAAAAAAAAAAAAAAAAAAAAAAAAAAAAAAAAAAAAAAAAAAAAAAAAAAAAAAAAAAAAAAAAAAAAAAAAAAAAAAAAAAAAAAAAAAAAAAAAAAAAAAAAAAAAAAAAAAAAAAAAAAAAAAAAAAAAAAAAAAAAAAAAAAAAAAAAAAAAAAAAAAAAAAAAAAAAAAAAAAAAAAAAAAAAAAAAAAAAAAAAAAAAAAAAAAAAAAAAAAAAAAAAAAAAAAAAAAAAAAAAAAAAAAAAAAAAAAAAAAAAAAAAAAAAAAAAAAAAAAAAAAAAAAAAAAAAAAAAAAAAAAAAAAAAAAAAAAAAAAAAAAAAAAAAAAAAAAAAAAAAAAAAAAAAAAAAAAAAAAAAAAAAAAAAAAAAAAAAAAAAAAAAAAAAAAAAAAAAAAAAAAAAAAAAAAAAAAAAAAAAAAAAAAAAAAAAAAAAAAAAAAAAAAAAAAAAAAAAAAAAAAAAAAAAAAAAAAAAAAAAAAAAAAAAAAAAAAAAAAAAAAAAAAAAAAAAAAAAAAAAAAAAAAAAAAAAAAAAAAAAAAAAAAAAAAAAAAAAAAAAAAAAAAAAAAAAAAAAAAAAAAAAAAAAAAAAAAAAAAAAAAAAAAAAAAAAAAAAAAAAAAAAAAAAAAAAAAAAAAAAAAAAAAAAAAAAAAAAAAAAAAAAAAAAAAAAAAAAAAAAAAAAAAAAAAAAAAAAAAAAAAAAAAAAAAAAAAAAAAAAAAAAAAAAAAAAAAAAAAAAAAAAAAAAAAAAAAAAAAAAAAAAAAAAAAAAAAAAAAAAAAAAAAAAAAAAAAAAAAAAAAAAAAAAAAAAAAAAAAAAAAAAAAAAAAAAAAAAAAAAAAAAAAAAAAAAAAAAAAAAAAAAAAAAAAAAAAAAAAAAAAAAAAAAAAAAAAAAAAAAAAAAAAAAAAAAAAAAAAAAAAAAAAAAAAAAAAAAAAAAAAAAAAAAAAAAAAAAAAAAAAAAAAAAAAAAAAAAAAAAAAAAAAAAAAAAAAAAAAAAAAAAAAAAAAAAAAAAAAAAAAAAAAAAAAAAAAAAAAAAAAAAAAAAAAAAAAAAAAAAAAAAAAAAAAAAAAAAAAAAAAAAAAAAAAAAAAAAAAAAAAAAAAAAAAAAAAAAAAAAAAAAAAAAAAAAAAAAAAAAAAAAAAAAAAAAAAAAAAAAAAAAAAAAAAAAAAAAAAAAAAAAAAAAAAAAAAAAAAAAAAAAAAAAAAAAAAAAAAAAAAAAAAAAAAAAAAAAAAAAAAAAAAAAAAAAAAAAAAAAAAAAAAAAAAAAAAAAAAAAAAAAAAAAAAAAAAAAAAAAAAAAAAAAAAAAAAAAAAAAAAAAAAAAAAAAAAAAAAAAAAAAAAAAAAAAAAAAAAAAAAAAAAAAAAAAAAAAAAAAAAAAAAAAAAAAAAAAAAAAAAAAAAAAAAAAAAAAAAAAAAAAAAAAAAAAAAAAAAAAAAAAAAAAAAAAAAAAAAAAAAAAAAAAAAAAAAAAAAAAAAAAAAAAAAAAAAAAAAAAAAAAAAAAAAAAAAAAAAAAAAAAAAAAAAAAAAAAAAAAAAAAAAAAAAAAAAAAAAAAAAAAAAAAAAAAAAAAAAAAAAAAAAAAAAAAAAAAAAAAAAAAAAAAAAAAAAAAAAAAAAAAAAAAAAAAAAAAAAAAAAAAAAAAAAAAAAAAAAAAAAAAAAAAAAAAAAAAAAAAAAAAAAAAAAAAAAAAAAAAAAAAAAAAAAAAAAAAAAAAAAAAAAAAAAAAAAAAAAAAAAAAAAAAAAAAAAAAAAAAAAAAAAAAAAAAAAAAAAAAAAAAAAAAAAAAAAAAAAAAAAAAAAAAAAAAAAAAAAAAAAAAAAAAAAAAAAAAAAAAAAAAAAAAAAAAAAAAAAAAAAAAAAAAAAAAAAAAAAAAAAAAAAAAAAAAAAAAAAAAAAAAAAAAAAAAAAAAAAAAAAAAAAAAAAAAAAAAAAAAAAAAAAAAAAAAAAAAAAAAAAAAAAAAAAAAAAAAAAAAAAAAAAAAAAAAAAAAAAAAAAAAAAAAAAAAAAAAAAAAAAAAAAAAAAAAAAAAAAAAAAAAAAAAAAAAAAAAAAAAAAAAAAAAAAAAAAAAAAAAAAAAAAAAAAAAAAAAAAAAAAAAAAAAAAAAAAAAAAAAAAAAAAAAAAAAAAAAAAAAAAAAAAAAAAAAAAAAAAAAAAAAAAAAAAAAAAAAAAAAAAAAAAAAAAAAAAAAAAAAAAAAAAAAAAAAAAAAAAAAAAAAAAAAAAAAAAAAAAAAAAAAAAAAAAAAAAAAAAAAAAAAAAAAAAAAAAAAAAAAAAAAAAAAAAAAAAAAAAAAAAAAAAAAAAAAAAAAAAAAAAAAAAAAAAAAAAAAAAAAAAAAAAAAAAAAAAAAAAAAAAAAAAAAAAAAAAAAAAAAAAAAAAAAAAAAAAAAAAAAAAAAAAAAAAAAAAAAAAAAAAAAAAAAAAAAAAAAAAAAAAAAAAAAAAAAAAAAAAAAAAAAAAAAAAAAAAAAAAAAAAAAAAAAAAAAAAAAAAAAAAAAAAAAAAAAAAAAAAAAAAAAAAAAAAAAAAAAAAAAAAAAAAAAAAAAAAAAAAAAAAAAAAAAAAAAAAAAAAAAAAAAAAAAAAAAAAAAAAAAAAAAAAAAAAAAAAAAAAAAAAAAAAAAAAAAAAAAAAAAAAAAAAAAAAAAAAAAAAAAAAAAAAAAAAAAAAAAAAAAAAAAAAAAAAAAAAAAAAAAAAAAAAAAAAAAAAAAAAAAAAAAAAAAAAAAAAAAAAAAAAAAAAAAAAAAAAAAAAAAAAAAAAAAAAAAAAAAAAAAAAAAAAAAAAAAAAAAAAAAAAAAAAAAAAAAAAAAAAAAAAAAAAAAAAAAAAAAAAAAAAAAAAAAAAAAAAAAAAAAAAAAAAAAAAAAAAAAAAAAAAAAAAAAAAAAAAAAAAAAAAAAAAAAAAAAAAAAAAAAAAAAAAAAAAAAAAAAAPZZAQAZ49dFx7NmPPSQM6NwukPReYEW3WD4YCOavNjgCPFlWVue5RbJkJrAJ1SEEaJydhdmCWCIKijqhxpVQTCck8wL7DQvoTvlKtr+DS28wT+/N97U1D0ZiKf2+7YZzAsTr5yL78/toLO/WAvLvqUk5FF6gQ7Ipm79ZDpXB440rB3iyC/tWNtBQbZp8Z9Yogh9MCg8PCJzvt91o3uwS+DzYBzhRrQ8AnTKMCYNXtFED2ghAiETO2GvM3HjGssJi8oEo1svnp3gjXZNAHQp/+KpC9RjGsuhb49jJ5UE+sPhtlrqBQ1cmBPjq0iylW5k0Ecu1Kl+3Rb3VW1r3nLVhhVs7k95</c2pa:manifest></metadata>
  <defs>
    <style>
      .springjam-1 {
        fill: hsl(79, 99%, 48%);
        <!-- fill: #01cb8e; -->
      }

      .springjam-2 {
        fill: #hsl(122, 48%, 16%);
        <!-- fill: #013c2c; -->
      }
      .dark .springjam-1 {
        fill: hsl(122, 48%, 16%);
      }

      .dark .springjam-2 {
        fill: hsl(79, 99%, 48%);
      }
    </style>
  </defs>
  <g id="Layer_1-2" data-name="Layer 1">
    <g>
      <g>
        <path class="springjam-2" d="M396.81,38.36c-.24-.73-.61-1.59-1.47-2.08-1.22.37-1.47,1.47-1.96,2.45-2.69,5.26-4.65,10.9-6.37,16.53-.73,2.57-1.35,5.26-1.96,7.84-.29,1.67.12,2.47,1.31,2.47.29,0,.63-.05,1.02-.15,4.04-.86,7.96-1.84,12-2.94,1.96-.49,2.33-1.1,2.08-3.06-1.1-7.1-2.33-14.2-4.65-21.06ZM393.89,56.7s.02-.06.03-.09c0,.03,0,.05.01.08-.01,0-.03,0-.04,0Z"/>
        <path class="springjam-2" d="M545.63,90.46c-.97-3.02-3.58-5.13-6.65-5.46-.31-.41-.75-1.28-1-1.77-1.14-2.62-2.31-5.31-3.33-7.92-2.65-7.55-4.83-15.87-6.67-25.45v-.05s-.02-.05-.02-.05l-.43-2.07c-1.08-5.21-2.19-10.59-3.92-16.02l-.04-.13-.05-.13c-1.02-2.81-2.34-6.11-4.35-9.22-3.07-4.85-7.83-7.52-13.39-7.52-.89,0-1.81.07-2.73.21-2.1.3-4.17.85-6.1,1.4-7.61,2.05-13.33,6.75-16.55,13.61-.22.44-.45.89-.68,1.33-.46.89-2.85-3.79-3.81-7.09-.94-3.23-2.14-6.95-4.51-10.35-2.9-4.23-7.12-6.55-11.89-6.55-.73,0-1.49.06-2.24.16-8.3.96-14.68,4.88-18.48,11.36l-.05.09-.05.09c-1.53,2.8-3.09,5.67-4.44,8.76l-.02.05-.02.05c-3.95,9.46-6.88,19.08-8.96,29.3-1.1-5.69-2.52-11.83-4.54-17.9-1.04-3.24-2.6-7.45-5.4-11.44-4.05-6.11-9.5-7.4-13.36-7.4h0c-.58,0-1.18.03-1.79.09-10.66,1.07-18.25,5.92-22.58,14.45-.96,1.92-1.85,3.86-2.69,5.8-.07-2.02-.15-4.03-.27-6.07v-.04s0-.04,0-.04l-.06-.86c-.24-3.47-.49-6.95-.73-10.49,3.73-.5,7.15-2.24,10-5.11,2.37-2.35,3.38-5.65,2.78-9.07l-.02-.09-.02-.09c-.53-2.61-2.16-4.55-2.64-5.08l-.27-.3-.31-.27c-2.48-2.15-5.34-3.19-8.75-3.19-.96,0-1.82.08-2.59.15h-.08s-.12.02-.12.02c-5.18.59-9.86,2.27-14.39,3.88-.65.23-1.29.46-1.94.69-.64.2-1.28.41-1.92.61-3.06.99-5.95,1.92-8.42,1.92-.44,0-.86-.03-1.26-.09-.67-.11-1.35-.17-2.03-.17-4.1,0-7.83,2.02-10.54,5.7-1.71,2.16-2.13,4.92-1.92,7.01.21,2.96,1.99,5.73,4.54,7.1,2.54,1.49,5.4,2.25,8.5,2.25,1.44,0,2.94-.15,4.7-.49.02,0,.04,0,.06,0,0,.96-.01,1.94-.02,2.93-.01,1.36-.03,2.72-.03,4.11v.09c.09,7.12-.49,14.21-1.11,21.71-.14,1.67-.28,3.33-.41,4.99-.15,1.87-.31,3.69-.48,5.48-.25-1.54-.65-2.96-1.41-4.27-1.16-2.01-3.53-4.42-8.19-4.42-.49,0-.98.02-1.43.05-1.33.03-2.54.28-3.65.65-1.46-1.48-3.47-2.35-5.71-2.35-1.35,0-2.48.32-3.16.51-1.05.09-1.96.32-2.65.49-.17.04-.34.09-.52.13-5.8,1.31-11.79,3.42-18.87,6.65l-.04.02-.04.02c-1.14.54-1.88.77-2.62.81-2.19.07-4.3.52-6.28,1.32.32-1.36.68-2.6,1.1-3.79,1.68-4.71,3.83-10.03,7.2-14.88.92.85,1.95,1.55,3.11,2.13l.33.16.34.13c1.02.38,2.08.58,3.14.58,3.42,0,6.41-2.03,7.68-5.18,1.87-4.47,2.07-8.83.6-12.95l-.03-.08-.03-.08c-1.48-3.85-4.74-6.34-8.74-6.71-.81-.1-1.63-.15-2.46-.15-2.06,0-4.13.3-6.51.95l-.17.04-.16.05c-5.41,1.76-10.28,4.78-14.47,8.97l-.04.04-.04.04c-2.03,2.09-3.9,4.25-5.63,6.49-.3-1.12-.84-2.28-1.78-3.35-1.58-1.79-3.84-2.78-6.38-2.78-1.28,0-2.46.25-3.35.46l-.07.02-.07.02c-3.1.81-7.15,3.05-8.82,9.15v.05s-.03.05-.03.05c-.85,3.32-1.74,6.83-2.58,10.49-.61-3-1.28-6.16-1.97-9.35v-.04s-.02-.04-.02-.04c-.42-1.83-.99-3.47-1.75-5.01-1.59-3.54-4.95-5.73-8.83-5.73-.16,0-.33,0-.5.01-2.85.04-5.66.75-8.52,2.15.36-1.45.45-2.95.21-4.43-.48-2.99-2.15-5.58-4.72-7.29-2.29-1.53-4.68-2.65-6.8-3.63-1.21-.64-2.59-.96-4.11-.96-.29,0-.6.01-.91.03-.09,0-.17,0-.26.01h-.43l-.42.05c-3.83.48-7.4,2.21-10.61,5.16l-.11.1-.11.11c-2.07,2.07-3.34,4.45-3.8,6.94-1.15-.7-2.42-1.3-3.82-1.79l-.08-.03-.08-.03c-2.74-.87-5.64-1.38-8.61-1.5h-.06s-.06,0-.06,0c-.48-.01-.96-.02-1.44-.02-8.32,0-16.6,1.79-24.63,5.32-2.76,1.21-5.3,2.57-7.67,4.1-2.85-11.34-13.17-21.83-27.46-22.17-.31,0-.61-.01-.92-.01-9.29,0-17.59,3.06-24.05,8.53-.05-.32-.08-.63-.14-.95-1.22-8.86-6.5-15.24-14.89-17.96l-.05-.02-.05-.02c-2.4-.74-4.85-1.3-7.26-1.67l-.16-.02-.16-.02c-1.8-.2-3.65-.29-5.5-.29-4.44,0-9.11.55-14.26,1.7-14.31,3.04-27.09,8.69-38,16.78-7.97,5.73-13.45,12.24-16.76,19.91C-.04,52.25-.77,59.42.81,66.04c1.6,6.7,5.54,12.7,11.38,17.37,3.04,2.5,6.78,4.67,10.83,6.31,2.1.93,4.21,1.76,6.36,2.49-1.83,1.26-3.7,3.26-4.25,6.56-.92,4.91,1.45,8.96,7.05,12.02,1.92,1.06,4.1,1.83,6.67,2.34l.14.03.14.02c2.9.46,5.71.77,8.43,1.07l.89.1.67.07.67-.05c4.52-.36,8.08-.68,11.88-1.16l.13-.02.13-.02c9.6-1.57,17.73-4.1,24.85-7.73,3.05-1.53,6.82-3.72,9.83-7.26.08,2.39.18,4.8.35,7.2.57,9.5,7.71,9.98,9.13,9.98,1.33,0,2.7-.25,4.43-.8,4.4-1.31,9.34-3.9,8.85-12.21-.13-2.29.06-4.72.26-7.29.13-1.63.26-3.3.32-5.01,6.18-3.09,12.14-7.22,18.57-12.87l.03-.03.03-.03c2.16-1.94,4.55-4.22,6.75-6.93.41.24.82.47,1.25.67,1.14.55,2.35.83,3.59.83,1.33,0,3.35-.34,5.38-1.97l.05-.04.05-.04c1.68-1.4,3.09-3.77,2.84-6.62l.96-.1c-.04,3.51-.09,7.03-.15,10.67v.28s0,.05,0,.05v5.04c-1.25,1.12-2.34,2.06-3.36,2.46l-.68.27-.61.41c-1.84,1.23-3.8,3.68-3.8,6.9v.58l.09.57c.65,3.9,4.09,6.74,8.18,6.74h.37c.54-.04,1.08-.09,1.6-.16.41,1.7.89,3.35,1.45,4.93l.02.05.02.05c2.36,6.36,6.97,7.31,9.52,7.31,1.24,0,2.5-.21,3.97-.65,1.32-.36,2.64-.95,4.04-1.81,1.81-1.06,3.12-2.63,3.76-4.47,2.91,2.85,5.72,5.31,8.57,7.5,2.12,1.69,5.03,3.76,8.74,4.85,1.96.57,3.93.87,5.85.87,3.62,0,7.03-1.01,10.15-3,.15,1.56.66,3.51,2.2,5.17,1.53,1.65,3.65,2.55,5.98,2.55,1.26,0,2.57-.26,4.12-.82,3.83-1.35,6.48-4.25,7.45-8.17.6-2.19,1.11-4.51,1.56-7.02.43.92.88,1.83,1.33,2.73,1.34,2.68,4.51,9.02,13.06,9.02.68,0,1.4-.04,2.12-.12.35-.04.77-.06,1.26-.07,2.95-.11,8.43-.32,12.56-7.29,1.31-2.22,2.02-5.02,2.42-8.04,2.14,1.58,4.61,2.95,7.42,4.06l.04.02h.04c3.38,1.3,7.03,2.07,10.9,2.3-.13.27-.27.52-.42.77l-.02.03-.02.03c-1.53,2.55-1.66,5.6-.34,8.15,1.27,2.45,3.69,4.09,6.54,4.45,1.02.16,1.95.16,2.65.16h.54l.53-.08c1.4-.22,2.82-.43,4.34-.79,9.1-2.05,15.47-8.12,17.29-16.22,1.95,5.88,4.56,11.25,7.83,16.07,4.48,6.56,9.8,7.93,13.49,7.93.3,0,.6,0,.9-.03h.04s.04,0,.04,0c3.63-.26,7.26-1.28,10.79-3.04,9.27-4.62,15.23-13.08,17.81-25.18,1.68,1.56,3.9,2.48,6.29,2.48.2,0,.39,0,.59-.02,6.98-.13,11.45-4.57,11.7-11.65v-.12s0-.12,0-.12c0-.82-.01-1.63-.03-2.45-.02-1.47-.05-2.86.02-4.16v-.04s0-.04,0-.04c.08-1.88.21-3.7.36-5.55,2.03-.45,4-.87,5.97-1.28.05.26.1.51.15.75.07.32.13.64.19.94.98,6.46,2.14,13.34,4.59,20.15,1.98,5.71,5.81,8.6,11.38,8.6.83,0,1.72-.06,2.73-.19h.1s.1-.03.1-.03c2.75-.44,5.53-1.29,8.48-2.6,1.17-.52,2.23-1.15,3.17-1.86,1.98,1.93,4.59,2.98,7.61,2.98.22,0,.44,0,.67-.02v14.66c0,5.52,4.48,10,10,10h63.21c5.52,0,10-4.48,10-10v-15.99c.87.39,1.81.73,2.84.94h.05s.05.02.05.02c1.78.35,3.57.52,5.31.52,5.56,0,10.76-1.73,15.45-5.16,2.9-2.1,4.12-5.81,3.02-9.24ZM25.76,56.59c.71,4.54,2.46,8.28,5.08,11.35l7,15.66,29.54-.52,19.49,1.88c1.38.39,2.71.91,3.98,1.68,2.41,1.61,2.73,3.86,1.12,6.11-2.09,2.89-5.14,4.82-8.36,6.43-7.23,3.7-14.95,5.78-22.82,7.07-3.86.48-7.55.8-11.57,1.12-2.89-.32-5.95-.64-9-1.12-1.61-.32-3.21-.8-4.66-1.61-1.77-.96-4.02-2.25-3.54-4.66.32-2.09,2.41-2.57,4.18-3.38,2.09-.96,4.18-1.77,6.43-2.25.77-.17,1.52-.28,2.25-.28,1.38,0,2.64.4,3.7,1.56,2.09,2.25,4.98,2.73,7.71,3.05,1.24.16,2.49.24,3.73.24,3.72,0,7.4-.72,10.89-2.17.64-.32,1.12-.8.8-1.61-.16-.48-.32-.97-.64-1.29-2.09-1.29-4.34-1.45-6.75-1.93-8.04-1.29-16.23-2.73-24.43-4.18-4.82-.96-9.48-2.41-14.14-4.5-3.21-1.29-6.43-3.05-9.16-5.3-9.48-7.55-12.05-18.64-7.23-29.89,3.05-7.07,8.2-12.54,14.46-17.04,10.61-7.88,22.5-12.86,35.36-15.59,4.24-.94,8.47-1.54,12.77-1.54,1.57,0,3.16.08,4.75.25,2.09.32,4.18.8,6.27,1.45,5.83,1.89,9.19,6.11,10.07,12.03l-13.64-1.31-5.33.35c-2.48-3.49-6.32-5.55-11.69-5.55-1.11,0-2.29.09-3.53.27-7.04,1.02-13.33,3.54-18.73,7.5h0s0,0,0,0c-3.96,2.9-7.43,6.56-10.36,10.98-3.38,4.98-4.98,10.61-4.02,16.72ZM133.91,71.91c-5.7,5.01-11.89,9.53-18.96,12.77-1.28.59-1.96,1.38-1.96,2.95.1,5.01-.88,10.02-.59,15.13.2,3.34-.59,4.13-3.93,5.11-.98.32-1.76.49-2.37.49-1.48,0-2.01-1.01-2.15-3.44-.3-4.12-.39-8.35-.49-12.47-.06-2.95-.28-5.9-.38-8.87l19.21-7.81,14.99-7.08c-1.08,1.11-2.2,2.18-3.37,3.24ZM143.21,46.22l-11.57-7.45c-1.36-2.36-3.24-4.4-5.69-6.05-2.85-1.95-5.45-2.86-7.92-2.86-.4,0-.79.03-1.18.08l-6.15-.59c4.14-1.99,8.74-3.01,13.52-3.01.25,0,.5,0,.75,0,11.67.27,20.12,9.69,21.27,19.2l-3.03.67ZM151.19,64.25c-.33.26-.66.44-1.01.44-.18,0-.36-.04-.56-.14-.13-.06-.24-.14-.36-.2.25-.47.5-.93.73-1.41l1.08-.36c.05.07.08.13.13.21.29.49.59.98,0,1.47ZM196.77,104.13c-5.11-3.93-9.72-8.55-14.05-13.36-2.26-2.46-4.42-4.91-6.68-7.37-.2-.2-.49-.29-.78-.29-.59,0-.59.49-.69.88-.1,4.03,0,8.05.88,12.08.2.98.49,1.87,1.38,2.55.79.69.59,1.47-.29,1.97-.79.49-1.57.88-2.36,1.08-.81.25-1.48.38-2.06.38-1.45,0-2.25-.84-2.95-2.74-1.08-3.04-1.77-6.19-2.16-9.33-.21-1.12-.52-1.59-1.25-1.59-.29,0-.66.08-1.11.22-1.77.59-3.63,1.18-5.5,1.28-.59,0-1.18-.29-1.28-.88,0-.39.39-.88.69-1.08,2.45-.98,4.32-2.75,6.29-4.52.98-.98,1.57-1.96,1.47-3.34v-6.09c.09-5.83.17-11.59.19-17.41l6.35-6.82c.13.45.25.9.34,1.35.98,5.7,1.38,11.39,1.57,17.19v3.04c0,.2.29.49.39.69.12.12.25.18.36.18.16,0,.31-.1.42-.28.39-.29.69-.49.98-.79,2.95-3.34,5.89-6.78,8.45-10.51.57-.85,1.09-1.73,1.59-2.64l.46,10.99c-.42.46-.84.92-1.27,1.37-1.38,1.47-2.75,2.95-4.03,4.32.29,1.18,1.08,1.47,1.77,2.06,2.55,1.87,4.71,4.22,6.88,6.48,1.58,1.65,3.13,3.31,4.68,4.97l2.57,16.9c-.42-.31-.84-.63-1.25-.96ZM183.11,42.8c-1.42-.4-2.88-.57-4.35-.57-.75,0-1.51.04-2.26.11l-8.14-.56c5.33-1.76,10.83-2.7,16.52-2.7.42,0,.85,0,1.27.02,2.36.1,4.62.49,6.78,1.18,2.38.83,4.05,2,5.08,3.55l-14.91-1.03ZM203.15,107.76c-1.86-.54-3.53-1.51-5.12-2.67.15.08,2.8,1.52,6.67,3.03-.51-.09-1.03-.21-1.56-.36ZM220.64,42.01l-2.59-3.96-5.32,6.05s-.05,0-.07,0c-2.2,0-3.99-1.1-5.5-2.91-1.93-2.73-1.77-5.3.64-7.71,1.93-1.77,4.18-3.05,6.75-3.38.4,0,.8-.04,1.17-.04s.68.04.92.2c2.09.96,4.18,1.93,6.11,3.21,1.93,1.29,2.25,3.7.96,5.62-.78,1.14-1.83,2.12-3.08,2.91ZM230.16,109.34c-.39,1.67-1.38,2.75-3.05,3.34-.73.26-1.31.41-1.75.41-.84,0-1.19-.52-1.22-1.67,2.17-.33,4.23-1.01,6.04-2.17,0,.03-.02.07-.03.1ZM269.06,47.06c-.32,2.8-.56,5.59-.84,8.39-3.08,6.31-5.18,13.06-6.27,20.22-1.03,6.74-.04,12.66,2.81,17.53-.1,3.63-.41,8.97-1.94,11.57-2.7,4.56-5.35,3.61-8.58,3.98-.47.05-.92.08-1.33.08-3.8,0-5.31-2.18-6.82-5.19-2.75-5.43-4.94-11.14-6.65-17.01q2.64-11.84,2.64-11.84l-12.51-19.13c.17-1.26.34-2.52.51-3.78.2-.98.49-1.97.79-2.95.2-.98.78-1.77,1.67-2.36,2.26-1.38,4.71-2.36,7.37-2.36.09,0,.18-.01.27-.01,1.15,0,2.03.59,2.48,1.68.59,1.18.98,2.36,1.28,3.63,1.18,5.4,2.26,10.71,3.34,16.11,1.57,7.37,3.34,14.64,5.99,21.71.29.79.49,1.67,1.77,2.55.29-3.54.59-6.68.88-9.82,1.08-10.71,3.54-21.12,6.19-31.43.59-2.16,1.57-3.64,3.83-4.22.68-.16,1.25-.27,1.71-.27,1.22,0,1.71.71,1.43,2.92ZM318.53,69.01c-1.4.43-2.81.86-4.19,1.33-1.38.39-1.57.88-1.18,2.26,2.26,8.84,1.67,17.78,1.08,26.72-.39,6.19-4.52,11.49-12.38,13.26-1.28.29-2.55.49-3.83.69-.59,0-1.18,0-1.67-.1-1.28-.1-1.77-1.08-1.18-2.06,1.87-3.05,2.56-6.48,3.14-9.92v-1.28c-.59-.31-1.16-.41-1.73-.41-.86,0-1.71.21-2.59.21-.59.03-1.19.04-1.78.04-3.72,0-7.43-.55-10.99-1.91-4.16-1.64-7.31-3.86-9.43-6.67,0-.24.01-.46.02-.64v-.04s0-.04,0-.04c.39-10.08,1.59-20.1,2.79-29.51.16-1.18.29-2.34.42-3.5,2.92-5.71,6.74-10.97,11.4-15.78,3.34-3.34,7.17-5.8,11.69-7.27,1.58-.43,3.11-.71,4.67-.71.57,0,1.14.04,1.72.12,1.47.1,2.46.98,2.95,2.26.98,2.75.59,5.4-.49,7.96-.21.56-.66.82-1.19.82-.22,0-.45-.04-.67-.13-1.38-.69-2.26-1.67-3.04-3.04-1.35-2.32-2.13-3.33-2.94-3.33s-1.7,1.09-3.25,2.94c-5.11,5.99-8.25,12.96-10.8,20.13-1.28,3.63-1.96,7.27-2.46,11-.39,2.46-.29,4.91.1,7.37.69,5.4,3.63,9.23,8.35,11.88,2.16,1.28,4.42,2.06,6.88,2.55.2.04.39.06.56.06.73,0,1.15-.36,1.31-1.23.98-5.3,1.87-10.51,1.57-15.82-.38-.16-.72-.23-1.03-.23-.8,0-1.41.44-2.11.72-2.16,1.08-4.52,1.96-6.97,2.26-.69.1-1.38.2-2.06.2-.59,0-1.28-.2-1.47-.79-.2-.59,0-1.18.39-1.57,2.36-2.75,5.4-4.52,9.04-4.62,1.96-.1,3.63-.69,5.3-1.47,5.6-2.55,11.39-4.81,17.48-6.19.57-.13,1.13-.29,1.68-.39-1.28.99-2.32,2.3-3.09,3.87ZM371.54,16.35c-.89,0-1.8-.11-2.72-.31-.28-.05-.52-.08-.74-.08-1.38,0-1.71,1.09-1.51,3.76.36,5.24.71,10.28,1.07,15.32.61,10.29.51,20.52.04,30.71-.68,4.39-1.1,8.87-1.25,13.47v.43s.02.43.02.43c.06.61.12,1.31.2,2.06-.17,2.2-.35,4.41-.54,6.61-.12.77-.24,1.74-.36,2.52-1.42,14.35-6.87,22.49-15.04,26.56-2.72,1.36-5.45,2.13-8.17,2.33-.16,0-.32.01-.48.01-2.99,0-5.56-1.73-7.7-4.86-5.92-8.72-9.47-19.58-10.54-32.38-.24-2.52,0-5.23.24-7.76.01-.2.03-.39.06-.59.37-.12.74-.24,1.11-.36.1-.03.21-.06.32-.09,5.7-1.65,7.07-5.17,7.28-7.63.5-.15,1.01-.24,1.55-.24.45-.03.84-.05,1.18-.05,2.14,0,2.55.75,2.96,5.09.71,9.11,3.32,16.87,6.63,23.85.47.78.95,1.55,1.54,2.33.16.19.33.28.5.28.33,0,.65-.34.81-.86.36-.78.59-1.94.83-3.1,1.78-10.08,2.96-20.55,3.79-30.83.71-9.11,1.66-18.22,1.54-27.34,0-4.07.12-7.95,0-12.02,0-2.22-.4-3.02-1.52-3.02-.25,0-.53.04-.85.11-1.89.19-3.79.78-5.68.97-1.22.24-2.44.41-3.65.41-1.73,0-3.44-.36-5.12-1.38-.47-.19-.95-.97-.95-1.55-.12-.78.12-1.75.47-2.13,1.42-1.99,3.19-2.99,5.01-2.99.3,0,.61.03.91.08.8.12,1.59.18,2.38.18,4.24,0,8.35-1.58,12.54-2.89,4.98-1.74,9.83-3.68,14.92-4.27.67-.06,1.34-.12,1.99-.12,1.41,0,2.79.29,4.17,1.48.35.39.83,1.16.95,1.74.24,1.36-.24,2.33-.83,2.91-2.29,2.3-4.77,3.22-7.35,3.22ZM421.42,97.2c-2.2.98-4.41,1.71-6.73,2.08-.68.09-1.29.14-1.84.14-2.52,0-3.77-1.02-4.77-3.93-2.2-6.12-3.31-12.49-4.28-18.98-.24-1.35-.61-2.82-.73-4.29-.41-3.26-.71-4.14-2.06-4.14-.67,0-1.61.22-2.96.46-3.92.73-7.71,1.59-11.63,2.45-1.96.37-2.33.73-2.57,2.94-.24,2.82-.49,5.63-.61,8.57-.12,2.33,0,4.65,0,6.98-.12,3.43-1.59,4.9-5.02,4.9-.09.01-.19.02-.28.02-.99,0-1.83-.6-2.17-1.61-.49-1.1-.98-2.33-1.23-3.55-.34-2.5-.63-4.99-.85-7.19.4-5.11.74-10.34.99-15.66,1.61-10.03,4.68-19.37,9.17-28.33,3.55-6.98,9.67-9.92,17.02-10.65.38-.04.75-.05,1.11-.05,3.24,0,5.71,1.48,7.58,4.34,2.08,2.94,3.43,6.24,4.53,9.67,2.57,7.71,4.16,15.67,5.51,23.63,1.07,5.7,1.8,11.41,2.73,17.11-.01,1.84.02,3.66.11,5.44.14,2.83.64,5.45,1.49,7.94-.67.71-1.52,1.27-2.5,1.71ZM538.5,94.03c-3.44,2.51-7.24,3.82-11.34,3.82-1.29,0-2.62-.13-3.97-.4-1.69-.35-3.05-1.29-4.28-2.53v-15.09c0-5.52-4.48-10-10-10h-2.07c-2.12-6.61-3.82-13.37-5.08-20.26-.61-3.67-1.35-7.35-2.08-11.14-.12-.61-.12-1.47-.98-1.71-.06,0-.12,0-.18,0-1.06,0-1.18,1.03-1.41,1.72-.73,1.59-1.35,3.06-1.84,4.53-3.38,8.8-6.04,17.83-8.57,26.87h-23.8c-1.08-9.11-2.14-18.21-3.26-27.24-.61-4.65-1.47-9.3-2.45-13.83-.49-2.08-.98-4.29-2.2-6.12-.19-.26-.59-.41-.96-.41-.33,0-.64.12-.75.41-1.1,1.84-2.32,3.67-3.18,5.63-5.14,11.51-8.94,23.51-11.14,35.99-.6,3.26-1.08,6.53-1.43,9.81-1.15,1.63-1.83,3.61-1.83,5.76v17.82c-.1.01-.19.03-.29.04-.13,0-.25.01-.38.01-1.42,0-2.53-.51-3.34-1.75.37-1.02.62-2.1.73-3.25.02-.24.07-.51.11-.79.21-1.4.54-3.52-.07-5.84-.52-1.98-1.6-3.68-3.14-5.02.14-6.98,1.09-13.89,2.42-20.72,1.96-10.29,4.9-20.2,8.94-29.87,1.22-2.82,2.69-5.51,4.16-8.2,2.94-5.02,7.83-7.35,13.34-7.96.46-.07.9-.11,1.33-.11,2.54,0,4.56,1.23,6.14,3.53,1.71,2.45,2.69,5.39,3.55,8.32,1.96,6.73,3.06,13.71,4.29,20.57.49,2.82.86,5.75,1.35,8.57.12,1.1.24,2.08,1.22,3.18,1.23-.61,1.35-1.96,1.72-2.94,1.96-5.26,3.79-10.53,5.75-15.79.86-2.33,2.08-4.53,3.18-6.73,2.45-5.26,6.61-8.45,12.12-9.92,1.71-.49,3.55-.98,5.27-1.22.58-.09,1.15-.14,1.69-.14,3.14,0,5.72,1.48,7.49,4.3,1.59,2.45,2.69,5.14,3.67,7.84,1.84,5.76,2.94,11.51,4.16,17.39,1.71,8.94,3.92,17.88,6.98,26.57,1.1,2.82,2.32,5.63,3.55,8.45,1.35,2.69,2.82,5.39,6.49,5.75.98,0,1.22,1.47.37,2.08Z"/>
      </g>
      <g>
        <path class="springjam-1" d="M379.72,10.22c-.12-.58-.59-1.36-.95-1.74-2.01-1.74-4.03-1.55-6.16-1.36-5.09.58-9.95,2.52-14.92,4.27-4.97,1.55-9.83,3.49-14.92,2.72-2.13-.39-4.26.58-5.92,2.91-.36.39-.59,1.36-.47,2.13,0,.58.47,1.36.95,1.55,2.84,1.74,5.8,1.55,8.76.97,1.89-.19,3.79-.77,5.68-.97,1.78-.39,2.37.19,2.37,2.91.12,4.07,0,7.95,0,12.02.12,9.11-.83,18.23-1.54,27.34-.83,10.28-2.01,20.75-3.79,30.83-.24,1.16-.47,2.33-.83,3.1-.24.78-.83,1.16-1.3.58-.59-.78-1.07-1.55-1.54-2.33-3.32-6.98-5.92-14.74-6.63-23.85-.47-5.04-.95-5.23-4.15-5.04-3.08,0-5.57,2.91-8.29,4.27-1.19.78-1.9,2.71-2.02,4.65-.24,2.52-.47,5.23-.24,7.76,1.07,12.8,4.62,23.65,10.54,32.38,2.25,3.3,4.97,5.04,8.17,4.85,2.72-.2,5.45-.97,8.17-2.33,8.17-4.07,13.62-12.22,15.04-26.56.12-.78.24-1.74.36-2.52,1.54-17.84,2.61-35.68,1.54-53.71-.35-5.04-.71-10.08-1.07-15.32-.24-3.1.24-4.07,2.25-3.68,3.55.77,6.99.19,10.07-2.91.59-.58,1.07-1.55.83-2.91Z"/>
        <path class="springjam-1" d="M423.37,85.57c-.98-.37-.86-1.84-.98-2.94-.98-5.88-1.71-11.75-2.82-17.63-1.35-7.96-2.94-15.92-5.51-23.63-1.1-3.43-2.45-6.73-4.53-9.67-2.08-3.18-4.9-4.65-8.69-4.28-7.35.73-13.47,3.67-17.02,10.65-6.37,12.73-9.92,26.2-10.41,41.38.24,2.69.61,6.24,1.1,9.79.25,1.22.74,2.45,1.23,3.55.37,1.1,1.35,1.72,2.45,1.59,3.43,0,4.9-1.47,5.02-4.9,0-2.33-.12-4.65,0-6.98.12-2.94.37-5.75.61-8.57.24-2.2.61-2.57,2.57-2.94,3.92-.86,7.71-1.71,11.63-2.45,4.04-.73,4.41-1.22,5.02,3.67.12,1.47.49,2.94.73,4.29.98,6.49,2.08,12.86,4.28,18.98,1.22,3.55,2.82,4.28,6.61,3.8,2.33-.37,4.53-1.1,6.73-2.08,2.2-.98,3.8-2.57,4.04-5.14.24-2.45,1.35-5.14-2.08-6.49ZM399.38,62.48c-4.04,1.1-7.96,2.08-12,2.94-1.96.49-2.69-.24-2.33-2.33.61-2.57,1.22-5.27,1.96-7.84,1.71-5.63,3.67-11.26,6.37-16.53.49-.98.73-2.08,1.96-2.45.86.49,1.22,1.35,1.47,2.08,2.33,6.86,3.55,13.96,4.65,21.06.25,1.96-.12,2.57-2.08,3.06Z"/>
        <path class="springjam-1" d="M538.14,91.95c-3.67-.37-5.14-3.06-6.49-5.76-1.22-2.82-2.45-5.63-3.55-8.45-3.06-8.69-5.27-17.63-6.98-26.57-1.22-5.88-2.33-11.63-4.16-17.39-.98-2.69-2.08-5.39-3.67-7.84-2.08-3.31-5.26-4.77-9.18-4.16-1.71.24-3.55.73-5.26,1.22-5.51,1.47-9.67,4.65-12.12,9.92-1.1,2.2-2.33,4.41-3.18,6.73-1.96,5.26-3.8,10.53-5.75,15.79-.37.98-.49,2.33-1.71,2.94-.98-1.1-1.1-2.08-1.22-3.18-.49-2.82-.86-5.76-1.35-8.57-1.22-6.86-2.33-13.84-4.28-20.57-.86-2.94-1.84-5.88-3.55-8.33-1.84-2.69-4.29-3.92-7.47-3.43-5.51.61-10.41,2.94-13.35,7.96-1.47,2.69-2.94,5.39-4.16,8.2-4.04,9.67-6.98,19.59-8.94,29.88-1.71,8.82-2.82,17.75-2.33,26.81.12,2.57.61,5.02,1.59,7.35.86,2.45,2.33,3.31,4.41,3.18,2.94-.24,4.28-1.47,4.9-4.04.73-3.55.73-7.22,2.45-10.41-.86-.37-1.84-.24-2.2.73-.73,1.22-1.22,2.57-1.84,3.92-.12.24-.49.49-.86.49-.24,0-.61-.37-.61-.61-.12-1.71-.24-3.55-.24-5.39.12-6.12.86-12.12,1.96-18.12,2.2-12.49,6-24.49,11.14-35.99.86-1.96,2.08-3.8,3.18-5.63.24-.61,1.35-.49,1.71,0,1.22,1.84,1.72,4.04,2.2,6.12.98,4.53,1.84,9.18,2.45,13.83,1.47,11.88,2.82,23.88,4.28,35.87.37,2.08.73,4.29,1.35,6.37.37,1.71,1.72,2.57,3.55,2.57,2.69.12,5.39-.61,7.84-1.59,3.43-1.22,5.88-3.3,7.1-6.86.86-2.94,1.96-5.75,2.82-8.69,2.57-9.18,5.26-18.37,8.69-27.3.49-1.47,1.1-2.94,1.84-4.53.24-.73.37-1.84,1.59-1.71.86.24.86,1.1.98,1.71.74,3.8,1.47,7.47,2.08,11.14,2.2,12.12,5.75,23.88,10.65,35.02,1.47,3.18,3.06,6.24,5.14,8.82,1.59,1.96,3.31,3.55,5.63,4.04,5.63,1.1,10.78-.12,15.3-3.43.86-.61.61-2.08-.37-2.08Z"/>
        <path class="springjam-1" d="M59.84,68.97c-2.57,1.93-3.7,1.93-5.95-.8-1.45-1.77-2.57-1.61-4.18-.8-.64.48-1.29.8-1.77,1.29-1.61,1.77-1.12,4.34,1.12,5.14,2.09.96,4.18.8,6.27.48,7.39-1.12,13.82-4.66,19.61-9.32,8.04-6.11,14.14-13.82,17.2-23.63,1.45-4.34,1.77-8.84.96-13.34-.8-6.11-4.18-10.45-10.12-12.38-2.09-.64-4.18-1.12-6.27-1.45-5.95-.64-11.73,0-17.52,1.29-12.86,2.73-24.75,7.71-35.36,15.59-6.27,4.5-11.41,9.97-14.46,17.04-4.82,11.25-2.25,22.34,7.23,29.9,2.73,2.25,5.95,4.02,9.16,5.3,4.66,2.09,9.32,3.54,14.14,4.5,8.2,1.45,16.39,2.89,24.43,4.18,2.41.48,4.66.64,6.75,1.93.32.32.48.8.64,1.29.32.8-.16,1.29-.8,1.61-4.66,1.93-9.64,2.57-14.63,1.93-2.73-.32-5.62-.8-7.71-3.05-1.61-1.77-3.7-1.77-5.95-1.28-2.25.48-4.34,1.28-6.43,2.25-1.77.8-3.86,1.28-4.18,3.37-.48,2.41,1.77,3.7,3.54,4.66,1.45.8,3.05,1.29,4.66,1.61,3.05.48,6.11.8,9,1.13,4.02-.32,7.71-.64,11.57-1.13,7.88-1.28,15.59-3.37,22.82-7.07,3.21-1.61,6.27-3.54,8.36-6.43,1.61-2.25,1.29-4.5-1.12-6.11-2.89-1.77-6.11-2.25-9.48-2.73-6.75-1.12-13.5-1.93-20.25-3.05-7.71-1.29-15.27-3.05-22.34-6.75-7.07-3.7-11.73-9.32-13.02-17.52-.96-6.11.64-11.73,4.02-16.71,6.91-10.45,16.88-16.72,29.09-18.48,12.05-1.77,17.84,5.3,18.64,16.07,0,.96,0,1.93-.16,2.73-1.45,12.38-7.72,21.7-17.52,28.77Z"/>
        <path class="springjam-1" d="M124.97,26.34c-13.26-.29-25.34,7.17-29.86,21.71-.39,1.28-.69,2.55-.79,3.83-.2,2.06,1.08,3.54,3.24,3.73.49.1,1.28-.1.69-.88-1.08-1.38-.79-2.75-.3-4.12,1.47-4.42,3.64-8.45,6.58-12.08.3-.49.79-.89,1.57-.69,0,.49.1,1.08,0,1.67-2.36,12.77-2.55,25.73-3.04,38.7-.2,4.81.29,9.53.39,14.24.1,4.12.2,8.35.49,12.47.2,3.44,1.18,4.03,4.52,2.95,3.34-.98,4.12-1.77,3.93-5.11-.29-5.11.69-10.12.59-15.13,0-1.57.69-2.36,1.97-2.95,7.07-3.24,13.26-7.76,18.96-12.77,2.95-2.65,5.7-5.4,7.86-8.64,3.14-4.71,4.62-9.82,4.62-15.52,0-10.21-8.84-21.12-21.41-21.41ZM126.93,67.49c-3.04,3.54-6.39,6.68-10.12,9.43-.59.49-1.18.79-1.87,1.08-.69.29-1.57-.2-1.67-.88-.1-.88-.1-1.77-.1-2.55-.1-11.3-.1-22.59-.2-33.79v-1.77c0-4.91-.1-4.12-5.11-4.12,1.18-.98,1.87-1.57,2.55-2.06,4.81-3.73,9.63-4.12,15.52-.1,4.81,3.24,7.47,7.96,8.15,13.75.88,8.05-2.06,15.03-7.17,21.02Z"/>
        <path class="springjam-1" d="M214.15,104.23c-4.32-1.37-7.46-4.42-10.51-7.46-4.42-4.42-8.55-9.04-12.87-13.55-2.16-2.26-4.32-4.62-6.88-6.48-.69-.59-1.47-.88-1.77-2.06,1.28-1.38,2.65-2.85,4.03-4.32,3.54-3.83,7.07-7.66,9.82-12.08,1.47-2.36,2.75-4.81,3.14-7.56.78-5.3-1.08-8.64-6.19-10.41-2.16-.69-4.42-1.08-6.78-1.18-8.05-.2-15.72,1.47-23.08,4.71-4.71,2.06-8.94,4.72-12.67,8.25-1.87,1.67-3.44,3.44-4.52,5.7-.59,1.28-.79,2.55.1,3.73.98,1.28,2.16,2.36,3.63,3.05.59.29,1.08.1,1.57-.3.59-.49.29-.98,0-1.47-2.06-3.24-2.06-4.52.1-7.37.39-.59.88-1.08,1.38-1.57,5.99-5.99,13.16-9.92,21.51-11.2,3.14-.49,6.39-.69,9.43.29,5.21,1.57,6.97,4.81,5.5,9.92-.79,2.85-2.16,5.4-3.73,7.76-2.55,3.73-5.5,7.17-8.45,10.51-.29.3-.59.49-.98.79-.2.29-.49.39-.79.1-.1-.2-.39-.49-.39-.69v-3.05c-.2-5.8-.59-11.49-1.57-17.19-.29-1.38-.79-2.85-1.28-4.13-.39-.98-1.28-1.67-2.36-1.67-1.87.1-3.54.59-4.52,2.26-1.38,2.45-2.46,5.11-2.85,8.05.98-.1,1.18-.59,1.38-1.08.59-1.08,1.18-2.06,1.67-3.05.2-.29.49-.49.69-.2.29.1.49.39.49.59.1.98.1,2.06.1,3.04,0,6.39-.1,12.67-.2,19.05v6.09c.1,1.38-.49,2.36-1.47,3.34-1.96,1.77-3.83,3.54-6.29,4.52-.3.2-.69.69-.69,1.08.1.59.69.88,1.28.88,1.87-.1,3.73-.69,5.5-1.28,1.57-.49,2.06-.2,2.36,1.38.39,3.14,1.08,6.28,2.16,9.33.98,2.65,2.16,3.24,5.01,2.36.79-.2,1.57-.59,2.36-1.08.88-.49,1.08-1.28.29-1.96-.88-.69-1.18-1.57-1.38-2.55-.88-4.03-.98-8.05-.88-12.08.1-.39.1-.89.69-.89.29,0,.59.1.78.29,2.26,2.46,4.42,4.91,6.68,7.37,4.32,4.81,8.94,9.43,14.05,13.36,1.97,1.57,4.03,2.95,6.38,3.63,4.03,1.18,7.76.59,11.1-1.87.69-.39.59-1.47-.1-1.67Z"/>
        <path class="springjam-1" d="M222.01,89.2c-1.38-.88-1.28-2.16-1.28-3.44,0-4.91.1-9.82,0-14.73-.1-5.6-.1-11.2-.49-16.8-.29-4.71-.59-5.5-5.99-3.83-2.36.78-3.93,2.26-4.22,4.91-.1,1.57-.49,3.14-.69,4.71-.49,3.54-.98,7.07-1.47,10.71-.69,6.29-1.28,12.57-1.96,18.86,0,2.36.1,4.62.79,6.88.49,1.77,1.28,2.36,3.04,2.55,3.54.2,6.88-.69,9.92-2.55,1.87-1.08,2.75-2.85,3.05-4.91.1-.89.1-1.87-.69-2.36Z"/>
        <path class="springjam-1" d="M265.92,44.41c-2.26.59-3.24,2.06-3.83,4.22-2.65,10.31-5.11,20.73-6.19,31.43-.29,3.14-.59,6.29-.88,9.82-1.28-.88-1.47-1.77-1.77-2.55-2.65-7.07-4.42-14.34-5.99-21.71-1.08-5.4-2.16-10.71-3.34-16.11-.29-1.28-.69-2.46-1.28-3.63-.49-1.18-1.47-1.77-2.75-1.67-2.65,0-5.11.98-7.37,2.36-.88.59-1.47,1.38-1.67,2.36-.29.98-.59,1.96-.79,2.95-.78,5.99-1.67,11.98-2.26,18.07-1.28,13.46-2.36,27.01-3.64,40.57-.2,2.55.49,3.05,2.95,2.16,1.67-.59,2.65-1.67,3.04-3.34,1.08-3.93,1.77-7.96,2.26-11.98.69-5.7,1.28-11.39,1.96-17.19.29-1.96.69-3.93.98-5.89,1.18.2,1.38.88,1.57,1.57.39,1.67.59,3.44.98,5.11,1.87,7.86,4.52,15.52,8.15,22.69,1.67,3.34,3.35,5.66,8.15,5.11,3.23-.37,5.88.58,8.58-3.98,2.08-3.51,1.9-12.06,2.03-14.58.39-10.12,1.57-20.14,2.85-30.16.59-4.32.88-8.64,1.37-12.96.39-3.04-.69-3.24-3.14-2.65Z"/>
        <path class="springjam-1" d="M314.34,70.34c2.85-.98,5.79-1.77,8.64-2.75,1.18-.39,3.14-.69,2.85-2.06-.39-1.77-2.16-.59-3.34-.49-.79,0-1.67.29-2.55.49-6.09,1.38-11.88,3.63-17.48,6.19-1.67.79-3.34,1.38-5.3,1.47-3.64.1-6.68,1.87-9.04,4.62-.39.39-.59.98-.39,1.57.2.59.88.79,1.47.79.69,0,1.37-.1,2.06-.2,2.46-.29,4.81-1.18,6.97-2.26.98-.39,1.77-1.08,3.14-.49.29,5.3-.59,10.51-1.57,15.81-.2,1.08-.79,1.37-1.87,1.18-2.46-.49-4.71-1.28-6.88-2.55-4.72-2.65-7.66-6.48-8.35-11.88-.39-2.46-.49-4.91-.1-7.37.49-3.73,1.18-7.37,2.46-11,2.55-7.17,5.7-14.14,10.8-20.14,3.05-3.63,3.44-4.32,6.19.39.78,1.38,1.67,2.36,3.04,3.04.79.3,1.57.1,1.87-.69,1.08-2.55,1.47-5.21.49-7.96-.49-1.28-1.47-2.16-2.95-2.26-2.16-.29-4.22,0-6.39.59-4.52,1.47-8.35,3.93-11.69,7.27-9.53,9.82-15.52,21.51-17.58,35.07-1.57,10.31,2.65,17.29,12.38,21.12,4.12,1.57,8.45,2.06,12.77,1.87,1.47,0,2.85-.59,4.32.2v1.28c-.59,3.44-1.28,6.88-3.14,9.92-.59.98-.1,1.96,1.18,2.06.49.1,1.08.1,1.67.1,1.28-.2,2.55-.39,3.83-.69,7.86-1.77,11.98-7.07,12.38-13.26.59-8.94,1.18-17.88-1.08-26.72-.39-1.38-.2-1.87,1.18-2.26Z"/>
        <path class="springjam-1" d="M222.75,33.47c-1.93-1.28-4.02-2.25-6.11-3.21-.48-.32-1.29-.16-2.09-.16-2.57.32-4.82,1.61-6.75,3.37-2.41,2.41-2.57,4.98-.64,7.72,1.61,1.93,3.54,3.05,5.95,2.89,4.5,0,8.52-1.93,10.61-4.98,1.29-1.93.96-4.34-.96-5.62Z"/>
      </g>
      <g>
        <path class="springjam-1" d="M445.48,123.44v-6.08l7.24-10.56c.92-1.42,1.46-2.39,1.62-2.91.2-.67.29-1.48.29-2.43,0-1.7-.52-2.55-1.56-2.55-.49,0-.87.17-1.15.5-.27.33-.41.81-.41,1.41v1.44h-6.04v-.82c0-2.66.68-4.75,2.03-6.28,1.35-1.53,3.21-2.29,5.56-2.29s4.21.79,5.56,2.36c1.35,1.57,2.03,3.7,2.03,6.39,0,2.92-.96,5.77-2.89,8.54l-4.95,7.24h8.07v6.04h-15.43Z"/>
        <path class="springjam-1" d="M462.94,115.11v-13.48c0-2.69.68-4.82,2.03-6.39,1.35-1.57,3.21-2.36,5.56-2.36s4.21.79,5.56,2.36c1.35,1.57,2.03,3.7,2.03,6.39v13.48c0,2.69-.68,4.82-2.03,6.39-1.35,1.57-3.21,2.36-5.56,2.36s-4.21-.78-5.56-2.36c-1.35-1.57-2.03-3.7-2.03-6.39ZM468.98,115.67c0,.61.14,1.09.41,1.42s.66.5,1.15.5.87-.17,1.15-.5.41-.81.41-1.42v-14.83c0-.61-.14-1.09-.41-1.42-.27-.34-.66-.5-1.15-.5s-.87.17-1.15.5c-.27.34-.41.81-.41,1.42v14.83Z"/>
        <path class="springjam-1" d="M480.55,123.44v-6.08l7.24-10.56c.92-1.42,1.46-2.39,1.62-2.91.2-.67.29-1.48.29-2.43,0-1.7-.52-2.55-1.56-2.55-.49,0-.87.17-1.15.5-.27.33-.41.81-.41,1.41v1.44h-6.04v-.82c0-2.66.68-4.75,2.03-6.28,1.35-1.53,3.21-2.29,5.56-2.29s4.21.79,5.56,2.36c1.35,1.57,2.03,3.7,2.03,6.39,0,2.92-.96,5.77-2.89,8.54l-4.95,7.24h8.07v6.04h-15.43Z"/>
        <path class="springjam-1" d="M497.71,115.11v-.24h6.21v.85c0,.59.14,1.06.41,1.4.27.34.65.52,1.14.52s.87-.17,1.14-.52c.27-.34.41-.81.41-1.4v-5.86c0-1.28-.5-1.91-1.49-1.91s-1.49.64-1.49,1.91h-6.04v-16.58h14.75v6.04h-8.71v4.71c.89-.84,2.01-1.27,3.36-1.27,1.71,0,3.07.64,4.08,1.91,1.01,1.28,1.54,2.98,1.58,5.12v5.3c0,2.69-.68,4.82-2.03,6.39-1.35,1.57-3.2,2.36-5.55,2.36s-4.28-.79-5.67-2.37c-1.39-1.58-2.09-3.7-2.09-6.37Z"/>
      </g>
    </g>
  </g>
</svg>