<?xml version="1.0" encoding="UTF-8"?>
<svg fill="CurrentColor" xmlns="http://www.w3.org/2000/svg" viewBox="0 0 139.86 140.23">
  <g>
    <path d="M118.12,10.21v41c8.34-.29,17.89-.96,20.95,8.55-1.65,20.88,2.38,45.54.05,65.95-.87,7.64-7.29,12.94-14.48,14.52l-122.52-.52c-6.88-9.71,4.62-10.13,12-9.5v-26.5c0-.29,2.46-4.41,2.99-5.01,3.69-4.2,9.71-4.65,15.01-4.49v-26c-4.99.57-8.24,7-13.43,6.96-4.63-.03-6.22-5.8-2.61-8.5L109.39,1.98c4.53-1.75,27.04-3.51,29.23.21,1.73,2.58,0,8.01-3.01,8.01h-17.5ZM108.12,15.21L42.12,59.21v35h15c-2.38-22.31,10.28-21.54,28.06-21.44,1.9-1.32-.61-13.44,5.42-18.58,4.66-3.98,11.88-2.87,17.52-2.98V15.21Z"/>
  </g>
</svg>