<?xml version="1.0" encoding="UTF-8"?>
<svg fill="CurrentColor" xmlns="http://www.w3.org/2000/svg" viewBox="0 0 308.54 310.24">
  <g>
    <g>
      <path d="M176.85,36.3c1.59,1.48,3.06,7.8,3.29,10.2,1.03,10.56,1.48,42.15.01,52.09-1.61,10.96-14.3.29-19.84-1.26-79.02-22.14-132.09,81.5-68.12,132.12,56.8,44.95,138.05-6.92,120.44-78.44-1.55-6.3-11.02-19.81-2.08-21.02,10.31-1.4,44.52-1.22,55.04.05,8.98,1.09,9.76,7.06,11.25,14.75,23.99,123.61-120.28,213.28-220.66,137.66C-54.59,199,10.13,22.25,148.58,30.06c4.26.24,25.92,4.05,28.27,6.23Z"/>
      <path d="M265.32,43.83c5.13,3.76,23.21,1.55,30.26,2.23,15.17,1.47,16.11,12.81,7.55,23.51-5.74,7.18-27.95,29.78-35.01,34.99-2.01,1.49-4.03,2.85-6.47,3.53-8.8,2.44-43.45,1.72-54.09.99-6.03-.41-6.97-.17-7.5-6.5-.97-11.54-1.51-43.11.28-53.8,1.34-8.02,15.98-20.64,22.21-26.81S241.02,1.65,248.84.26c22.57-3.99,9.6,38.51,16.48,43.56Z"/>
      <path d="M149.65,142.56c-4.61,4.91-19.42,18.31-21.39,23.13-4.27,10.44,5.55,18.13,15.79,14.8,6.08-1.98,26.59-27.24,34.03-32.97,8.82-6.79,12.53,12.89,13,19.04,3.87,51.42-65.4,77.84-95.79,32.79-25.44-37.71,6.79-86.93,51.07-81.07,3.57.47,19.47,4.6,17.28,9.73-.73,1.72-11.71,12.13-13.99,14.56Z"/>
    </g>
  </g>
</svg>