<?xml version="1.0" encoding="UTF-8"?>
<svg fill="CurrentColor" xmlns="http://www.w3.org/2000/svg" viewBox="0 0 110.31 122.23">
  <g>
    <path d="M30.18,96.09C11.7,95.74-1.71,76.09.18,58.58c.48-4.42,4.02-9.64,4.05-12.97.02-2.53-1.73-4.66-1.97-7.1C.16,16.32,13.72-1.04,36.73.05c12.63.6,19.23,6.65,26.93,15.7,20.53-9.74,45.44,4.56,45.13,27.67-.05,3.95-2.75,9.96-2.61,12.09.21,3.16,3.65,8.03,4.04,13.03,1.27,16.47-11.59,32.5-27.99,34.59-.94,4.24,2.23,17.29-2.75,18.78-9.32,2.79-5.5-13.56-6.39-18.73-3.82-.5-7.26-2.07-10.57-3.93-2.33-1.32-8.47-6.92-9.04-7.06-1.98-.5-10.63,5.56-14.29,3.9v23.5c0,3.17-9,3.17-9,0v-23.5ZM39.18,87.09c11.78-.02,21.48-14.23,20.92-25.34-.29-5.62-4.99-12.73-4.98-16.16,0-4.25,3.63-7.71,3.05-14.99C55.7-.57,9.61,3.22,10.46,33.31c.12,4.21,3.69,10.94,3.46,13.13-.18,1.79-2.73,5.03-3.46,7.43-4.66,15.22,3.29,31.64,19.72,33.22v-27.5c0-3.17,9-3.17,9,0v27.5ZM75.97,21.3c-1.83.16-8.11,1.82-8.65,3.43-.48,4.58.17,9.2-.22,13.78-.2,2.37-1.98,4.58-1.96,7.1.02,2.95,3.29,8.87,3.76,13.26,1.14,10.52-1.99,19.53-8.65,27.59,15.15,17.49,44.04,4.45,40.84-18.78-.61-4.4-4.2-8.49-3.98-13.08.17-3.59,3.21-7.35,3.1-11.96-.28-11.89-12.45-22.38-24.24-21.34Z"/>
  </g>
</svg>